SplineFontDB: 3.0
FontName: Antonio-Light
FullName: Antonio Light
FamilyName: Antonio
Weight: Light
Copyright: Copyright (c) 2011-12, vernon adams (vern@newtypography.co.uk), with Reserved Font Names 'Antonio'
Version: 1
ItalicAngle: 0
UnderlinePosition: 0
UnderlineWidth: 0
Ascent: 1638
Descent: 410
sfntRevision: 0x00010000
LayerCount: 2
Layer: 0 1 "Back"  1
Layer: 1 1 "Fore"  0
XUID: [1021 865 679097947 40672]
FSType: 0
OS2Version: 4
OS2_WeightWidthSlopeOnly: 0
OS2_UseTypoMetrics: 1
CreationTime: 1358387396
ModificationTime: 1362109256
PfmFamily: 17
TTFWeight: 300
TTFWidth: 1
LineGap: 0
VLineGap: 0
Panose: 2 0 3 3 0 0 0 0 0 0
OS2TypoAscent: 2342
OS2TypoAOffset: 0
OS2TypoDescent: -612
OS2TypoDOffset: 0
OS2TypoLinegap: 0
OS2WinAscent: 2342
OS2WinAOffset: 0
OS2WinDescent: 612
OS2WinDOffset: 0
HheadAscent: 2342
HheadAOffset: 0
HheadDescent: -612
HheadDOffset: 0
OS2SubXSize: 1331
OS2SubYSize: 1433
OS2SubXOff: 0
OS2SubYOff: 286
OS2SupXSize: 1331
OS2SupYSize: 1433
OS2SupXOff: 0
OS2SupYOff: 983
OS2StrikeYSize: 102
OS2StrikeYPos: 530
OS2Vendor: 'newt'
OS2CodePages: 20000093.00000000
OS2UnicodeRanges: a00000ef.5000204b.00000000.00000000
Lookup: 258 0 0 "'kern' Horizontal Kerning in Latin lookup 0"  {"'kern' Horizontal Kerning in Latin lookup 0 per glyph data 0"  "'kern' Horizontal Kerning in Latin lookup 0 kerning class 1"  } ['kern' ('DFLT' <'dflt' > 'latn' <'dflt' > ) ]
MarkAttachClasses: 1
DEI: 91125
KernClass2: 16 27 "'kern' Horizontal Kerning in Latin lookup 0 kerning class 1" 
 89 A Agrave Aacute Acircumflex Atilde Adieresis Aring Amacron Abreve Aogonek uni0200 uni0202
 9 B uni1E02
 47 C Ccedilla Cacute Ccircumflex Cdotaccent Ccaron
 16 D Dcaron uni1E0A
 9 F uni1E1E
 52 G Gcircumflex Gbreve Gdotaccent Gcommaaccent uni01F4
 13 J Jcircumflex
 14 K Kcommaaccent
 28 L Lacute Lcommaaccent Lcaron
 9 P uni1E56
 1 V
 37 W Wcircumflex Wgrave Wacute Wdieresis
 37 Y Yacute Ycircumflex Ydieresis Ygrave

StartChar: exclam
Encoding: 33 33 1
Width: 540
GlyphClass: 2
Flags: W
LayerCount: 2
UndoRedoHistory
Layer: 1
Undoes
EndUndoes
Redoes
EndRedoes
EndUndoRedoHistory
Fore
SplineSet
175 202 m 1,0,-1
 361 202 l 1,1,-1
 361 0 l 1,2,-1
 175 0 l 1,3,-1
 175 202 l 1,0,-1
176 1760 m 1,4,-1
 364 1760 l 1,5,-1
 299 368 l 1,6,-1
 239 368 l 1,7,-1
 176 1760 l 1,4,-1
EndSplineSet
EndChar

StartChar: quotedbl
Encoding: 34 34 2
Width: 944
GlyphClass: 2
Flags: W
LayerCount: 2
UndoRedoHistory
Layer: 1
Undoes
EndUndoes
Redoes
EndRedoes
EndUndoRedoHistory
Fore
SplineSet
267 1761 m 1,0,-1
 423 1761 l 1,1,-1
 359 1125 l 1,2,-1
 325 1125 l 1,3,-1
 267 1761 l 1,0,-1
535 1761 m 1,4,-1
 692 1761 l 1,5,-1
 627 1125 l 1,6,-1
 593 1125 l 1,7,-1
 535 1761 l 1,4,-1
EndSplineSet
EndChar

StartChar: numbersign
Encoding: 35 35 3
Width: 1288
GlyphClass: 2
Flags: W
LayerCount: 2
UndoRedoHistory
Layer: 1
Undoes
EndUndoes
Redoes
EndRedoes
EndUndoRedoHistory
Fore
SplineSet
713 765 m 1,0,-1
 766 1035 l 1,1,-1
 547 1035 l 1,2,-1
 493 765 l 1,3,-1
 713 765 l 1,0,-1
909 1761 m 1,4,-1
 1039 1761 l 1,5,-1
 916 1138 l 1,6,-1
 1079 1138 l 1,7,-1
 1079 1041 l 1,8,-1
 896 1041 l 1,9,-1
 842 767 l 1,10,-1
 1036 767 l 1,11,-1
 1036 670 l 1,12,-1
 823 670 l 1,13,-1
 690 0 l 1,14,-1
 561 0 l 1,15,-1
 691 670 l 1,16,-1
 475 670 l 1,17,-1
 344 0 l 1,18,-1
 215 0 l 1,19,-1
 347 670 l 1,20,-1
 181 670 l 1,21,-1
 181 767 l 1,22,-1
 367 767 l 1,23,-1
 421 1041 l 1,24,-1
 224 1041 l 1,25,-1
 224 1138 l 1,26,-1
 440 1138 l 1,27,-1
 563 1761 l 1,28,-1
 693 1761 l 1,29,-1
 568 1138 l 1,30,-1
 784 1138 l 1,31,-1
 909 1761 l 1,4,-1
EndSplineSet
EndChar

StartChar: dollar
Encoding: 36 36 4
Width: 860
GlyphClass: 2
Flags: W
LayerCount: 2
UndoRedoHistory
Layer: 1
Undoes
EndUndoes
Redoes
EndRedoes
EndUndoRedoHistory
Fore
SplineSet
120 1178 m 0,0,1
 120 1344 120 1344 200 1430 c 0,2,3
 251 1485 251 1485 327 1505 c 1,4,-1
 327 1760 l 1,5,-1
 434 1760 l 1,6,-1
 434 1516 l 1,7,8
 563 1510 563 1510 626 1402 c 128,-1,9
 689 1294 689 1294 689 1035 c 2,10,-1
 689 955 l 1,11,-1
 534 955 l 1,12,-1
 534 1062 l 2,13,14
 534 1221 534 1221 506.5 1300 c 128,-1,15
 479 1379 479 1379 410.5 1379 c 128,-1,16
 342 1379 342 1379 306.5 1333.5 c 128,-1,17
 271 1288 271 1288 271 1170 c 0,18,19
 271 995 271 995 434 837 c 2,20,-1
 511 762 l 1,21,22
 710 563 710 563 710 323 c 0,23,24
 710 163 710 163 644.5 75.5 c 128,-1,25
 579 -12 579 -12 455 -21 c 1,26,-1
 455 -271 l 1,27,-1
 348 -271 l 1,28,-1
 348 -14 l 1,29,30
 256 6 256 6 202 80 c 0,31,32
 129 181 129 181 129 399 c 0,33,34
 129 402 129 402 129 405 c 1,35,-1
 129 534 l 1,36,-1
 282 534 l 1,37,-1
 282 431 l 2,38,39
 282 114 282 114 420 114 c 0,40,41
 494 114 494 114 525 162 c 128,-1,42
 556 210 556 210 556 332 c 0,43,44
 556 513 556 513 400 672 c 2,45,-1
 321 752 l 2,46,47
 120 956 120 956 120 1178 c 0,0,1
EndSplineSet
EndChar

StartChar: percent
Encoding: 37 37 5
Width: 2148
GlyphClass: 2
Flags: W
LayerCount: 2
UndoRedoHistory
Layer: 1
Undoes
EndUndoes
Redoes
EndRedoes
EndUndoRedoHistory
Fore
SplineSet
1821 835 m 2,0,1
 1821 958 1821 958 1792 1001.5 c 128,-1,2
 1763 1045 1763 1045 1683.5 1045 c 128,-1,3
 1604 1045 1604 1045 1575.5 1001.5 c 128,-1,4
 1547 958 1547 958 1547 835 c 2,5,-1
 1547 335 l 2,6,7
 1547 207 1547 207 1575.5 162 c 128,-1,8
 1604 117 1604 117 1684 117 c 128,-1,9
 1764 117 1764 117 1792.5 162 c 128,-1,10
 1821 207 1821 207 1821 335 c 2,11,-1
 1821 835 l 2,0,1
1399 763 m 2,12,13
 1399 1056 1399 1056 1488 1128 c 0,14,15
 1553 1180 1553 1180 1684.5 1180 c 128,-1,16
 1816 1180 1816 1180 1880 1128 c 0,17,18
 1968 1055 1968 1055 1968 763 c 2,19,-1
 1968 411 l 2,20,21
 1968 280 1968 280 1955.5 199.5 c 128,-1,22
 1943 119 1943 119 1909.5 68.5 c 128,-1,23
 1876 18 1876 18 1823 -1 c 128,-1,24
 1770 -20 1770 -20 1683.5 -20 c 128,-1,25
 1597 -20 1597 -20 1544.5 -1 c 128,-1,26
 1492 18 1492 18 1458 68.5 c 128,-1,27
 1424 119 1424 119 1411.5 199.5 c 128,-1,28
 1399 280 1399 280 1399 411 c 2,29,-1
 1399 763 l 2,12,13
180 1364 m 2,30,31
 180 1658 180 1658 268 1730 c 0,32,33
 332 1782 332 1782 463.5 1782 c 128,-1,34
 595 1782 595 1782 660 1730 c 0,35,36
 749 1658 749 1658 749 1364 c 2,37,-1
 749 1012 l 2,38,39
 749 881 749 881 736.5 800.5 c 128,-1,40
 724 720 724 720 690 669.5 c 128,-1,41
 656 619 656 619 603.5 600 c 128,-1,42
 551 581 551 581 464.5 581 c 128,-1,43
 378 581 378 581 325 600 c 128,-1,44
 272 619 272 619 238.5 669.5 c 128,-1,45
 205 720 205 720 192.5 800.5 c 128,-1,46
 180 881 180 881 180 1012 c 2,47,-1
 180 1364 l 2,30,31
601 1436 m 2,48,49
 601 1559 601 1559 572.5 1602.5 c 128,-1,50
 544 1646 544 1646 464.5 1646 c 128,-1,51
 385 1646 385 1646 356 1602.5 c 128,-1,52
 327 1559 327 1559 327 1436 c 2,53,-1
 327 936 l 2,54,55
 327 808 327 808 355.5 763 c 128,-1,56
 384 718 384 718 464 718 c 128,-1,57
 544 718 544 718 572.5 763 c 128,-1,58
 601 808 601 808 601 936 c 2,59,-1
 601 1436 l 2,48,49
1372 1760 m 1,60,-1
 1512 1760 l 1,61,-1
 790 0 l 1,62,-1
 642 0 l 1,63,-1
 1372 1760 l 1,60,-1
EndSplineSet
EndChar

StartChar: ampersand
Encoding: 38 38 6
Width: 915
GlyphClass: 2
Flags: W
LayerCount: 2
UndoRedoHistory
Layer: 1
Undoes
EndUndoes
Redoes
EndRedoes
EndUndoRedoHistory
Fore
SplineSet
321 1482 m 2,0,-1
 322 1441 l 1,1,2
 322 1333 322 1333 434 1057 c 1,3,4
 511 1153 511 1153 552.5 1245.5 c 128,-1,5
 594 1338 594 1338 594 1452 c 128,-1,6
 594 1566 594 1566 569 1614.5 c 128,-1,7
 544 1663 544 1663 451 1663 c 0,8,9
 330 1663 330 1663 323 1524 c 0,10,11
 322 1502 322 1502 321.5 1495.5 c 128,-1,12
 321 1489 321 1489 321 1482 c 2,0,-1
751 365 m 1,13,14
 893 67 893 67 923 0 c 1,15,-1
 799 0 l 1,16,17
 773 62 773 62 693 226 c 1,18,19
 643 113 643 113 590 64 c 128,-1,20
 537 15 537 15 484.5 -2.5 c 128,-1,21
 432 -20 432 -20 364 -20 c 0,22,23
 228 -20 228 -20 144 74 c 128,-1,24
 60 168 60 168 60 332 c 128,-1,25
 60 496 60 496 93.5 575 c 128,-1,26
 127 654 127 654 157 714 c 128,-1,27
 187 774 187 774 343 950 c 1,28,29
 176 1324 176 1324 176 1443 c 0,30,31
 176 1782 176 1782 462 1782 c 0,32,33
 629 1782 629 1782 681.5 1694 c 128,-1,34
 734 1606 734 1606 734 1448 c 128,-1,35
 734 1290 734 1290 664.5 1172.5 c 128,-1,36
 595 1055 595 1055 490 925 c 1,37,38
 561 761 561 761 681 513 c 1,39,40
 762 683 762 683 859 797 c 1,41,-1
 928 690 l 1,42,43
 838 578 838 578 751 365 c 1,13,14
619 376 m 1,44,45
 473 670 473 670 404 817 c 1,46,47
 320 705 320 705 266 590 c 128,-1,48
 212 475 212 475 211 327 c 1,49,50
 211 105 211 105 382 105 c 0,51,52
 476 105 476 105 540 215 c 1,53,54
 572 272 572 272 619 376 c 1,44,45
EndSplineSet
EndChar

StartChar: quotesingle
Encoding: 39 39 7
Width: 404
GlyphClass: 2
Flags: W
LayerCount: 2
UndoRedoHistory
Layer: 1
Undoes
EndUndoes
Redoes
EndRedoes
EndUndoRedoHistory
Fore
SplineSet
124 1761 m 1,0,-1
 282 1761 l 1,1,-1
 217 1125 l 1,2,-1
 184 1125 l 1,3,-1
 124 1761 l 1,0,-1
EndSplineSet
EndChar

StartChar: parenleft
Encoding: 40 40 8
Width: 519
GlyphClass: 2
Flags: W
LayerCount: 2
UndoRedoHistory
Layer: 1
Undoes
EndUndoes
Redoes
EndRedoes
EndUndoRedoHistory
Fore
SplineSet
401 14 m 2,0,-1
 421 14 l 1,1,-1
 421 -99 l 1,2,3
 297 -99 297 -99 251.5 -77.5 c 128,-1,4
 206 -56 206 -56 187.5 -29.5 c 128,-1,5
 169 -3 169 -3 151 61 c 128,-1,6
 133 125 133 125 133 313 c 2,7,-1
 133 1388 l 2,8,9
 133 1576 133 1576 151 1640 c 128,-1,10
 169 1704 169 1704 187.5 1730.5 c 128,-1,11
 206 1757 206 1757 251.5 1778.5 c 128,-1,12
 297 1800 297 1800 421 1800 c 1,13,-1
 421 1687 l 1,14,-1
 412 1687 l 2,15,16
 335 1687 335 1687 325.5 1676 c 128,-1,17
 316 1665 316 1665 306 1650 c 0,18,19
 282 1613 282 1613 282 1392 c 2,20,-1
 282 309 l 2,21,22
 282 88 282 88 306 51 c 0,23,24
 316 36 316 36 326 25 c 128,-1,25
 336 14 336 14 401 14 c 2,0,-1
EndSplineSet
EndChar

StartChar: parenright
Encoding: 41 41 9
Width: 519
GlyphClass: 2
Flags: W
LayerCount: 2
UndoRedoHistory
Layer: 1
Undoes
EndUndoes
Redoes
EndRedoes
EndUndoRedoHistory
Fore
SplineSet
98 1687 m 1,0,-1
 98 1800 l 1,1,2
 222 1800 222 1800 267.5 1778.5 c 128,-1,3
 313 1757 313 1757 331.5 1730.5 c 128,-1,4
 350 1704 350 1704 368 1640 c 128,-1,5
 386 1576 386 1576 386 1388 c 2,6,-1
 386 313 l 2,7,8
 386 125 386 125 368 61 c 128,-1,9
 350 -3 350 -3 331.5 -29.5 c 128,-1,10
 313 -56 313 -56 267.5 -77.5 c 128,-1,11
 222 -99 222 -99 98 -99 c 1,12,-1
 98 14 l 1,13,-1
 107 14 l 2,14,15
 184 14 184 14 194 25 c 128,-1,16
 204 36 204 36 214 51 c 0,17,18
 237 87 237 87 237 292 c 0,19,20
 237 301 237 301 237 309 c 2,21,-1
 237 1392 l 2,22,23
 237 1401 237 1401 237 1409 c 0,24,25
 237 1614 237 1614 214 1650 c 0,26,27
 204 1665 204 1665 194 1676 c 128,-1,28
 184 1687 184 1687 127 1687 c 2,29,-1
 98 1687 l 1,0,-1
EndSplineSet
EndChar

StartChar: asterisk
Encoding: 42 42 10
Width: 960
GlyphClass: 2
Flags: W
LayerCount: 2
UndoRedoHistory
Layer: 1
Undoes
EndUndoes
Redoes
EndRedoes
EndUndoRedoHistory
Fore
SplineSet
414 1777 m 1,0,-1
 547 1777 l 1,1,-1
 527 1509 l 1,2,-1
 751 1681 l 1,3,-1
 819 1565 l 1,4,-1
 569 1433 l 1,5,-1
 819 1293 l 1,6,-1
 751 1176 l 1,7,-1
 527 1353 l 1,8,-1
 547 1081 l 1,9,-1
 414 1081 l 1,10,-1
 438 1357 l 1,11,-1
 216 1185 l 1,12,-1
 149 1303 l 1,13,-1
 391 1433 l 1,14,-1
 141 1555 l 1,15,-1
 209 1671 l 1,16,-1
 438 1508 l 1,17,-1
 414 1777 l 1,0,-1
EndSplineSet
EndChar

StartChar: plus
Encoding: 43 43 11
Width: 808
GlyphClass: 2
Flags: W
LayerCount: 2
UndoRedoHistory
Layer: 1
Undoes
EndUndoes
Redoes
EndRedoes
EndUndoRedoHistory
Fore
SplineSet
342 1208 m 1,0,-1
 460 1208 l 1,1,-1
 460 948 l 1,2,-1
 694 948 l 1,3,-1
 694 842 l 1,4,-1
 460 842 l 1,5,-1
 460 576 l 1,6,-1
 342 576 l 1,7,-1
 342 842 l 1,8,-1
 112 842 l 1,9,-1
 112 948 l 1,10,-1
 342 948 l 1,11,-1
 342 1208 l 1,0,-1
EndSplineSet
EndChar

StartChar: comma
Encoding: 44 44 12
Width: 437
GlyphClass: 2
Flags: W
LayerCount: 2
UndoRedoHistory
Layer: 1
Undoes
EndUndoes
Redoes
EndRedoes
EndUndoRedoHistory
Fore
SplineSet
151 173 m 1,0,-1
 351 173 l 1,1,-1
 351 9 l 1,2,-1
 247 -350 l 1,3,-1
 170 -350 l 1,4,-1
 266 0 l 1,5,-1
 151 0 l 1,6,-1
 151 173 l 1,0,-1
EndSplineSet
EndChar

StartChar: hyphen
Encoding: 45 45 13
Width: 696
GlyphClass: 2
Flags: W
LayerCount: 2
UndoRedoHistory
Layer: 1
Undoes
EndUndoes
Redoes
EndRedoes
EndUndoRedoHistory
Fore
SplineSet
88 958 m 1,0,-1
 516 958 l 1,1,-1
 516 858 l 1,2,-1
 88 858 l 1,3,-1
 88 958 l 1,0,-1
EndSplineSet
EndChar

StartChar: period
Encoding: 46 46 14
Width: 532
GlyphClass: 2
Flags: W
LayerCount: 2
UndoRedoHistory
Layer: 1
Undoes
EndUndoes
Redoes
EndRedoes
EndUndoRedoHistory
Fore
SplineSet
174 164 m 1,0,-1
 328 164 l 1,1,-1
 328 0 l 1,2,-1
 174 0 l 1,3,-1
 174 164 l 1,0,-1
EndSplineSet
EndChar

StartChar: slash
Encoding: 47 47 15
Width: 743
GlyphClass: 2
Flags: W
LayerCount: 2
UndoRedoHistory
Layer: 1
Undoes
EndUndoes
Redoes
EndRedoes
EndUndoRedoHistory
Fore
SplineSet
538 1768 m 1,0,-1
 673 1768 l 1,1,-1
 222 0 l 1,2,-1
 88 0 l 1,3,-1
 538 1768 l 1,0,-1
EndSplineSet
EndChar

StartChar: zero
Encoding: 48 48 16
Width: 746
GlyphClass: 2
Flags: W
LayerCount: 2
UndoRedoHistory
Layer: 1
Undoes
EndUndoes
Redoes
EndRedoes
EndUndoRedoHistory
Fore
SplineSet
540 1327 m 2,0,1
 540 1500 540 1500 500 1578.5 c 128,-1,2
 460 1657 460 1657 372 1657 c 128,-1,3
 284 1657 284 1657 246 1579 c 128,-1,4
 208 1501 208 1501 208 1328 c 2,5,-1
 208 470 l 2,6,7
 208 276 208 276 246 189 c 128,-1,8
 284 102 284 102 372 102 c 128,-1,9
 460 102 460 102 500 189 c 128,-1,10
 540 276 540 276 540 470 c 2,11,-1
 540 1327 l 2,0,1
60 1316 m 2,12,13
 60 1560 60 1560 134 1670.5 c 128,-1,14
 208 1781 208 1781 374 1781 c 128,-1,15
 540 1781 540 1781 614.5 1670.5 c 128,-1,16
 689 1560 689 1560 689 1316 c 2,17,-1
 689 475 l 2,18,19
 689 215 689 215 613.5 97 c 128,-1,20
 538 -21 538 -21 373 -21 c 128,-1,21
 208 -21 208 -21 134 97 c 128,-1,22
 60 215 60 215 60 475 c 2,23,-1
 60 1316 l 2,12,13
EndSplineSet
EndChar

StartChar: one
Encoding: 49 49 17
Width: 569
GlyphClass: 2
Flags: W
LayerCount: 2
UndoRedoHistory
Layer: 1
Undoes
EndUndoes
Redoes
EndRedoes
EndUndoRedoHistory
Fore
SplineSet
314 1761 m 1,0,-1
 403 1761 l 1,1,-1
 403 0 l 1,2,-1
 254 0 l 1,3,-1
 254 1534 l 1,4,5
 220 1493 220 1493 158 1470.5 c 128,-1,6
 96 1448 96 1448 36 1448 c 1,7,-1
 36 1541 l 1,8,9
 121 1553 121 1553 197.5 1610 c 128,-1,10
 274 1667 274 1667 314 1761 c 1,0,-1
EndSplineSet
EndChar

StartChar: two
Encoding: 50 50 18
Width: 746
GlyphClass: 2
Flags: W
LayerCount: 2
UndoRedoHistory
Layer: 1
Undoes
EndUndoes
Redoes
EndRedoes
EndUndoRedoHistory
Fore
SplineSet
118 1303 m 2,0,1
 118 1554 118 1554 187 1667 c 128,-1,2
 256 1780 256 1780 398.5 1780 c 128,-1,3
 541 1780 541 1780 600.5 1668.5 c 128,-1,4
 660 1557 660 1557 660 1300 c 128,-1,5
 660 1043 660 1043 544 786 c 0,6,7
 494 675 494 675 440 572 c 1,8,9
 304 305 304 305 271 121 c 1,10,-1
 636 121 l 1,11,-1
 636 0 l 1,12,-1
 121 0 l 1,13,-1
 121 92 l 1,14,15
 120.993006993 92.8391608392 120.993006993 92.8391608392 120.993006993 93.686879554 c 0,16,17
 120.993006993 214.062937063 120.993006993 214.062937063 262 507 c 0,18,19
 320 629 320 629 380 759 c 0,20,21
 522 1072 522 1072 522 1280.5 c 128,-1,22
 522 1489 522 1489 492 1572 c 128,-1,23
 462 1655 462 1655 395.5 1655 c 128,-1,24
 329 1655 329 1655 299 1570.5 c 128,-1,25
 269 1486 269 1486 269 1299 c 2,26,-1
 269 1065 l 1,27,-1
 118 1065 l 1,28,-1
 118 1303 l 2,0,1
EndSplineSet
EndChar

StartChar: three
Encoding: 51 51 19
Width: 746
GlyphClass: 2
Flags: W
LayerCount: 2
UndoRedoHistory
Layer: 1
Undoes
EndUndoes
Redoes
EndRedoes
EndUndoRedoHistory
Fore
SplineSet
44 1321 m 2,0,1
 44 1555 44 1555 113 1667.5 c 128,-1,2
 182 1780 182 1780 346.5 1780 c 128,-1,3
 511 1780 511 1780 586 1666 c 128,-1,4
 661 1552 661 1552 661 1321 c 0,5,6
 661 980 661 980 486 914 c 1,7,8
 575 874 575 874 619.5 750 c 128,-1,9
 664 626 664 626 664 468 c 0,10,11
 664 218 664 218 587 99 c 128,-1,12
 510 -20 510 -20 344.5 -20 c 128,-1,13
 179 -20 179 -20 108.5 99.5 c 128,-1,14
 38 219 38 219 38 474 c 2,15,-1
 38 517 l 1,16,-1
 190 517 l 1,17,-1
 190 474 l 2,18,19
 190 250 190 250 218.5 177 c 128,-1,20
 247 104 247 104 345 104 c 128,-1,21
 443 104 443 104 478.5 183.5 c 128,-1,22
 514 263 514 263 514 441.5 c 128,-1,23
 514 620 514 620 491 704 c 128,-1,24
 468 788 468 788 422.5 821 c 128,-1,25
 377 854 377 854 300 854 c 2,26,-1
 261 854 l 1,27,-1
 261 982 l 1,28,-1
 298 982 l 2,29,30
 389 982 389 982 426.5 1007 c 128,-1,31
 464 1032 464 1032 479 1070 c 0,32,33
 511 1150 511 1150 511 1288 c 0,34,35
 511 1529 511 1529 464 1592 c 128,-1,36
 417 1655 417 1655 355.5 1655 c 128,-1,37
 294 1655 294 1655 264 1630 c 0,38,39
 195 1572 195 1572 195 1318 c 2,40,-1
 195 1287 l 1,41,-1
 44 1287 l 1,42,-1
 44 1321 l 2,0,1
EndSplineSet
EndChar

StartChar: four
Encoding: 52 52 20
Width: 746
GlyphClass: 2
Flags: W
LayerCount: 2
UndoRedoHistory
Layer: 1
Undoes
EndUndoes
Redoes
EndRedoes
EndUndoRedoHistory
Fore
SplineSet
449 468 m 1,0,-1
 449 1428 l 1,1,-1
 186 468 l 1,2,-1
 449 468 l 1,0,-1
445 1761 m 1,3,-1
 589 1761 l 1,4,-1
 589 468 l 1,5,-1
 743 468 l 1,6,-1
 743 352 l 1,7,-1
 589 352 l 1,8,-1
 589 -1 l 1,9,-1
 449 -1 l 1,10,-1
 449 352 l 1,11,-1
 51 352 l 1,12,-1
 51 449 l 1,13,-1
 445 1761 l 1,3,-1
EndSplineSet
EndChar

StartChar: five
Encoding: 53 53 21
Width: 746
GlyphClass: 2
Flags: W
LayerCount: 2
UndoRedoHistory
Layer: 1
Undoes
EndUndoes
Redoes
EndRedoes
EndUndoRedoHistory
Fore
SplineSet
135 1760 m 1,0,-1
 595 1760 l 1,1,-1
 595 1624 l 1,2,-1
 270 1624 l 1,3,-1
 270 1146 l 1,4,5
 285 1175 285 1175 323.5 1198 c 128,-1,6
 362 1221 362 1221 402.5 1221 c 128,-1,7
 443 1221 443 1221 480 1210 c 0,8,9
 558 1185 558 1185 595.5 1084 c 128,-1,10
 633 983 633 983 633 768 c 2,11,-1
 633 477 l 2,12,13
 633 246 633 246 608 159 c 128,-1,14
 583 72 583 72 552 40 c 0,15,16
 494 -20 494 -20 377 -20 c 0,17,18
 111 -20 111 -20 111 291 c 2,19,-1
 111 459 l 1,20,-1
 263 459 l 1,21,-1
 263 263 l 2,22,23
 263 102 263 102 377.5 102 c 128,-1,24
 492 102 492 102 492 274 c 2,25,-1
 492 869 l 2,26,27
 492 985 492 985 466.5 1038 c 128,-1,28
 441 1091 441 1091 384 1091 c 128,-1,29
 327 1091 327 1091 293 1039.5 c 128,-1,30
 259 988 259 988 259 888 c 1,31,-1
 135 910 l 1,32,-1
 135 1760 l 1,0,-1
EndSplineSet
EndChar

StartChar: six
Encoding: 54 54 22
Width: 746
GlyphClass: 2
Flags: W
LayerCount: 2
UndoRedoHistory
Layer: 1
Undoes
EndUndoes
Redoes
EndRedoes
EndUndoRedoHistory
Fore
SplineSet
544 547 m 2,0,1
 544 797 544 797 516 887.5 c 128,-1,2
 488 978 488 978 408.5 978 c 128,-1,3
 329 978 329 978 282.5 952.5 c 128,-1,4
 236 927 236 927 233 926 c 1,5,-1
 233 504 l 2,6,7
 233 262 233 262 257.5 197 c 128,-1,8
 282 132 282 132 328 116 c 0,9,10
 354 107 354 107 404 107 c 128,-1,11
 454 107 454 107 485.5 135 c 128,-1,12
 517 163 517 163 530.5 234 c 128,-1,13
 544 305 544 305 544 446 c 2,14,-1
 544 547 l 2,0,1
233 1013 m 1,15,16
 299 1102 299 1102 411 1102 c 0,17,18
 567 1102 567 1102 630.5 984 c 128,-1,19
 694 866 694 866 694 559 c 2,20,-1
 694 442 l 2,21,22
 694 212 694 212 631 96 c 128,-1,23
 568 -20 568 -20 396 -20 c 128,-1,24
 224 -20 224 -20 154.5 96.5 c 128,-1,25
 85 213 85 213 85 506 c 2,26,-1
 85 1264 l 2,27,28
 85 1486 85 1486 111.5 1575 c 128,-1,29
 138 1664 138 1664 172 1702 c 0,30,31
 243 1780 243 1780 382.5 1780 c 128,-1,32
 522 1780 522 1780 589.5 1698.5 c 128,-1,33
 657 1617 657 1617 660 1284 c 1,34,-1
 660 1252 l 1,35,-1
 508 1252 l 1,36,-1
 508 1283 l 2,37,38
 508 1519 508 1519 488.5 1577.5 c 128,-1,39
 469 1636 469 1636 432 1648 c 0,40,41
 412 1654 412 1654 376 1655 c 1,42,43
 266 1655 266 1655 247 1531 c 0,44,45
 233 1445 233 1445 233 1255 c 2,46,-1
 233 1013 l 1,15,16
EndSplineSet
EndChar

StartChar: seven
Encoding: 55 55 23
Width: 746
GlyphClass: 2
Flags: W
LayerCount: 2
UndoRedoHistory
Layer: 1
Undoes
EndUndoes
Redoes
EndRedoes
EndUndoRedoHistory
Fore
SplineSet
56 1761 m 1,0,-1
 689 1761 l 1,1,-1
 689 1654 l 2,2,3
 689 1655 689 1655 686 1655 c 128,-1,4
 683 1655 683 1655 636.5 1507.5 c 128,-1,5
 590 1360 590 1360 543 1175 c 0,6,7
 388 560 388 560 352 1 c 1,8,-1
 197 1 l 1,9,10
 246 619 246 619 395 1165 c 1,11,12
 477 1450 477 1450 538 1592 c 1,13,-1
 559 1644 l 1,14,-1
 56 1644 l 1,15,-1
 56 1761 l 1,0,-1
EndSplineSet
EndChar

StartChar: eight
Encoding: 56 56 24
Width: 746
GlyphClass: 2
Flags: W
LayerCount: 2
UndoRedoHistory
Layer: 1
Undoes
EndUndoes
Redoes
EndRedoes
EndUndoRedoHistory
Fore
SplineSet
494 1070 m 128,-1,1
 529 1158 529 1158 529 1334.5 c 128,-1,2
 529 1511 529 1511 494 1582 c 128,-1,3
 459 1653 459 1653 382.5 1653 c 128,-1,4
 306 1653 306 1653 272 1580.5 c 128,-1,5
 238 1508 238 1508 238 1332 c 128,-1,6
 238 1156 238 1156 272 1069 c 128,-1,7
 306 982 306 982 382.5 982 c 128,-1,0
 459 982 459 982 494 1070 c 128,-1,1
380 869 m 0,8,9
 220 869 220 869 220 464 c 0,10,11
 220 258 220 258 259.5 180.5 c 128,-1,12
 299 103 299 103 380.5 103 c 128,-1,13
 462 103 462 103 497.5 183 c 128,-1,14
 533 263 533 263 533 464 c 128,-1,15
 533 665 533 665 497.5 767 c 128,-1,16
 462 869 462 869 380 869 c 0,8,9
72 403 m 2,17,-1
 71 434 l 1,18,19
 71 638 71 638 107.5 755 c 128,-1,20
 144 872 144 872 226 927 c 1,21,22
 154 978 154 978 121.5 1077.5 c 128,-1,23
 89 1177 89 1177 89 1375.5 c 128,-1,24
 89 1574 89 1574 159.5 1677 c 128,-1,25
 230 1780 230 1780 384.5 1780 c 128,-1,26
 539 1780 539 1780 608.5 1677 c 128,-1,27
 678 1574 678 1574 678 1377.5 c 128,-1,28
 678 1181 678 1181 643.5 1082.5 c 128,-1,29
 609 984 609 984 532 931 c 1,30,31
 611 874 611 874 646.5 756 c 128,-1,32
 682 638 682 638 682 434 c 2,33,-1
 682 413 l 1,34,35
 677 186 677 186 605.5 83 c 128,-1,36
 534 -20 534 -20 380 -20 c 128,-1,37
 226 -20 226 -20 152.5 80.5 c 128,-1,38
 79 181 79 181 72 403 c 2,17,-1
EndSplineSet
EndChar

StartChar: nine
Encoding: 57 57 25
Width: 746
GlyphClass: 2
Flags: W
LayerCount: 2
UndoRedoHistory
Layer: 1
Undoes
EndUndoes
Redoes
EndRedoes
EndUndoRedoHistory
Fore
SplineSet
522 1255 m 2,0,1
 522 1484 522 1484 499.5 1554 c 128,-1,2
 477 1624 477 1624 436 1642 c 0,3,4
 412 1652 412 1652 380 1653 c 1,5,6
 312 1653 312 1653 282 1604.5 c 128,-1,7
 252 1556 252 1556 244.5 1473 c 128,-1,8
 237 1390 237 1390 237 1257 c 2,9,-1
 237 1208 l 2,10,11
 237 942 237 942 260 871 c 128,-1,12
 283 800 283 800 328 784 c 0,13,14
 352 776 352 776 407 776 c 128,-1,15
 462 776 462 776 522 803 c 1,16,-1
 522 1255 l 2,0,1
87 1252 m 2,17,18
 87 1468 87 1468 101.5 1527.5 c 128,-1,19
 116 1587 116 1587 134 1639 c 128,-1,20
 152 1691 152 1691 213 1735.5 c 128,-1,21
 274 1780 274 1780 393.5 1780 c 128,-1,22
 513 1780 513 1780 583 1702 c 128,-1,23
 653 1624 653 1624 666 1443 c 0,24,25
 672 1362 672 1362 672 1254 c 2,26,-1
 672 542 l 2,27,28
 672 265 672 265 642.5 165 c 128,-1,29
 613 65 613 65 554.5 22.5 c 128,-1,30
 496 -20 496 -20 413.5 -20 c 128,-1,31
 331 -20 331 -20 285 0 c 0,32,33
 194 39 194 39 160.5 159.5 c 128,-1,34
 127 280 127 280 127 508 c 1,35,-1
 270 508 l 1,36,-1
 270 483 l 1,37,38
 273 229 273 229 293.5 174 c 128,-1,39
 314 119 314 119 357 108 c 0,40,41
 377 103 377 103 409 103 c 0,42,43
 480 103 480 103 501 158 c 128,-1,44
 522 213 522 213 522 371 c 2,45,-1
 522 712 l 1,46,47
 471 662 471 662 385.5 662 c 128,-1,48
 300 662 300 662 249 686 c 0,49,50
 150 734 150 734 118.5 865 c 128,-1,51
 87 996 87 996 87 1226 c 2,52,-1
 87 1252 l 2,17,18
EndSplineSet
EndChar

StartChar: colon
Encoding: 58 58 26
Width: 555
GlyphClass: 2
Flags: W
LayerCount: 2
UndoRedoHistory
Layer: 1
Undoes
EndUndoes
Redoes
EndRedoes
EndUndoRedoHistory
Fore
SplineSet
179 1279 m 1,0,-1
 362 1279 l 1,1,-1
 362 1048 l 1,2,-1
 179 1048 l 1,3,-1
 179 1279 l 1,0,-1
179 543 m 1,4,-1
 362 543 l 1,5,-1
 362 312 l 1,6,-1
 179 312 l 1,7,-1
 179 543 l 1,4,-1
EndSplineSet
EndChar

StartChar: semicolon
Encoding: 59 59 27
Width: 561
GlyphClass: 2
Flags: W
LayerCount: 2
UndoRedoHistory
Layer: 1
Undoes
EndUndoes
Redoes
EndRedoes
EndUndoRedoHistory
Fore
SplineSet
181 523 m 1,0,-1
 381 523 l 1,1,-1
 381 359 l 1,2,-1
 277 0 l 1,3,-1
 200 0 l 1,4,-1
 296 350 l 1,5,-1
 181 350 l 1,6,-1
 181 523 l 1,0,-1
179 1279 m 1,7,-1
 362 1279 l 1,8,-1
 362 1048 l 1,9,-1
 179 1048 l 1,10,-1
 179 1279 l 1,7,-1
EndSplineSet
EndChar

StartChar: less
Encoding: 60 60 28
Width: 730
GlyphClass: 2
Flags: W
LayerCount: 2
UndoRedoHistory
Layer: 1
Undoes
EndUndoes
Redoes
EndRedoes
EndUndoRedoHistory
Fore
SplineSet
63 823 m 1,0,-1
 642 1219 l 1,1,-1
 642 1051 l 1,2,-1
 174 758 l 1,3,-1
 642 448 l 1,4,-1
 642 288 l 1,5,-1
 63 688 l 1,6,-1
 63 823 l 1,0,-1
EndSplineSet
EndChar

StartChar: equal
Encoding: 61 61 29
Width: 722
GlyphClass: 2
Flags: W
LayerCount: 2
UndoRedoHistory
Layer: 1
Undoes
EndUndoes
Redoes
EndRedoes
EndUndoRedoHistory
Fore
SplineSet
104 733 m 1,0,-1
 618 733 l 1,1,-1
 618 601 l 1,2,-1
 104 601 l 1,3,-1
 104 733 l 1,0,-1
104 1025 m 1,4,-1
 618 1025 l 1,5,-1
 618 892 l 1,6,-1
 104 892 l 1,7,-1
 104 1025 l 1,4,-1
EndSplineSet
EndChar

StartChar: greater
Encoding: 62 62 30
Width: 730
GlyphClass: 2
Flags: W
LayerCount: 2
UndoRedoHistory
Layer: 1
Undoes
EndUndoes
Redoes
EndRedoes
EndUndoRedoHistory
Fore
SplineSet
84 1059 m 1,0,-1
 84 1219 l 1,1,-1
 663 818 l 1,2,-1
 663 684 l 1,3,-1
 84 288 l 1,4,-1
 84 456 l 1,5,-1
 552 749 l 1,6,-1
 84 1059 l 1,0,-1
EndSplineSet
EndChar

StartChar: question
Encoding: 63 63 31
Width: 708
GlyphClass: 2
Flags: W
LayerCount: 2
UndoRedoHistory
Layer: 1
Undoes
EndUndoes
Redoes
EndRedoes
EndUndoRedoHistory
Fore
SplineSet
227 299 m 1,0,-1
 353 299 l 1,1,-1
 353 1 l 1,2,-1
 227 1 l 1,3,-1
 227 299 l 1,0,-1
158 1365 m 1,4,-1
 157 1476 l 2,5,6
 157 1480 157 1480 157 1483 c 0,7,8
 157 1615 157 1615 192 1678 c 0,9,10
 251 1782 251 1782 368 1782 c 128,-1,11
 485 1782 485 1782 517.5 1755.5 c 128,-1,12
 550 1729 550 1729 567 1712 c 0,13,14
 623 1656 623 1656 623 1383 c 2,15,-1
 623 1314 l 2,16,17
 623 1048 623 1048 564.5 920.5 c 128,-1,18
 506 793 506 793 353 750 c 1,19,-1
 353 494 l 1,20,-1
 228 494 l 1,21,-1
 228 810 l 1,22,23
 313 842 313 842 384 900 c 0,24,25
 420 930 420 930 454 1035 c 0,26,27
 474 1095 474 1095 474 1371 c 2,28,-1
 474 1379 l 2,29,30
 474 1556 474 1556 462.5 1605.5 c 128,-1,31
 451 1655 451 1655 392.5 1655 c 128,-1,32
 334 1655 334 1655 321 1605 c 128,-1,33
 308 1555 308 1555 308 1375 c 2,34,-1
 308 1160 l 1,35,-1
 158 1160 l 1,36,-1
 158 1365 l 1,4,-1
EndSplineSet
EndChar

StartChar: at
Encoding: 64 64 32
Width: 1325
GlyphClass: 2
Flags: W
LayerCount: 2
UndoRedoHistory
Layer: 1
Undoes
EndUndoes
Redoes
EndRedoes
EndUndoRedoHistory
Fore
SplineSet
847 1062 m 1,0,1
 753 1195 753 1195 653 1195 c 0,2,3
 577 1195 577 1195 529.5 1102 c 128,-1,4
 482 1009 482 1009 482 818.5 c 128,-1,5
 482 628 482 628 529 550.5 c 128,-1,6
 576 473 576 473 660 473 c 128,-1,7
 744 473 744 473 795.5 553.5 c 128,-1,8
 847 634 847 634 847 759 c 2,9,-1
 847 1062 l 1,0,1
1029 494 m 0,10,11
 1122 494 1122 494 1122 866 c 0,12,13
 1122 1116 1122 1116 1110 1214 c 0,14,15
 1053 1662 1053 1662 726 1662 c 0,16,17
 487 1662 487 1662 369 1510 c 0,18,19
 217 1314 217 1314 217 844 c 0,20,21
 217 282 217 282 409 132 c 0,22,23
 502 60 502 60 628 60 c 128,-1,24
 754 60 754 60 849 88 c 1,25,-1
 866 -24 l 1,26,27
 726 -53 726 -53 648 -53 c 0,28,29
 91 -53 91 -53 91 836 c 0,30,31
 91 839 91 839 91 841 c 0,32,33
 91 1379 91 1379 290 1608 c 1,34,35
 439 1781 439 1781 715 1781 c 0,36,37
 717 1781 717 1781 718 1781 c 0,38,39
 1241 1781 1241 1781 1241 910 c 0,40,41
 1241 531 1241 531 1126 419 c 0,42,43
 1084 378 1084 378 1028.5 378 c 128,-1,44
 973 378 973 378 930 444 c 128,-1,45
 887 510 887 510 874 585 c 1,46,47
 857 488 857 488 798.5 424.5 c 128,-1,48
 740 361 740 361 675 361 c 0,49,50
 551 361 551 361 463 462.5 c 128,-1,51
 375 564 375 564 375 795 c 128,-1,52
 375 1026 375 1026 439 1154.5 c 128,-1,53
 503 1283 503 1283 624 1283 c 0,54,55
 708 1283 708 1283 769 1238.5 c 128,-1,56
 830 1194 830 1194 855 1136 c 1,57,-1
 885 1258 l 1,58,-1
 957 1258 l 1,59,-1
 957 689 l 2,60,61
 957 590 957 590 973 542 c 128,-1,62
 989 494 989 494 1029 494 c 0,10,11
EndSplineSet
EndChar

StartChar: A
Encoding: 65 65 33
Width: 860
GlyphClass: 2
Flags: W
LayerCount: 2
UndoRedoHistory
Layer: 1
Undoes
EndUndoes
Redoes
EndRedoes
EndUndoRedoHistory
Fore
SplineSet
339 1760 m 1,0,-1
 491 1760 l 1,1,-1
 804 0 l 1,2,-1
 660 0 l 1,3,-1
 602 357 l 1,4,-1
 250 357 l 1,5,-1
 197 0 l 1,6,-1
 56 0 l 1,7,-1
 339 1760 l 1,0,-1
582 480 m 1,8,-1
 420 1476 l 1,9,-1
 418 1476 l 1,10,-1
 269 480 l 1,11,-1
 582 480 l 1,8,-1
EndSplineSet
EndChar

StartChar: B
Encoding: 66 66 34
Width: 885
GlyphClass: 2
Flags: W
LayerCount: 2
UndoRedoHistory
Layer: 1
Undoes
EndUndoes
Redoes
EndRedoes
EndUndoRedoHistory
Fore
SplineSet
421 1629 m 2,0,-1
 309 1629 l 1,1,-1
 309 1004 l 1,2,-1
 443 1004 l 2,3,4
 512 1004 512 1004 535.5 1019 c 128,-1,5
 559 1034 559 1034 568 1054 c 0,6,7
 596 1117 596 1117 596 1301.5 c 128,-1,8
 596 1486 596 1486 577.5 1536 c 128,-1,9
 559 1586 559 1586 528 1607.5 c 128,-1,10
 497 1629 497 1629 421 1629 c 2,0,-1
470 884 m 2,11,-1
 309 884 l 1,12,-1
 309 128 l 1,13,-1
 467 128 l 2,14,15
 540 128 540 128 574 176 c 128,-1,17
 608 224 608 224 614 326 c 128,-1,18
 620 428 620 428 620 500 c 2,19,-1
 620 583 l 2,20,21
 620 731 620 731 589.5 807.5 c 128,-1,22
 559 884 559 884 470 884 c 2,11,-1
160 1760 m 1,23,-1
 417 1760 l 2,24,25
 575 1760 575 1760 646.5 1706 c 128,-1,26
 718 1652 718 1652 736 1516 c 0,27,28
 744 1456 744 1456 745 1366 c 1,29,-1
 745 1343 l 2,30,31
 745 1172 745 1172 723 1082 c 128,-1,32
 701 992 701 992 632 947 c 1,33,34
 710 909 710 909 739.5 797.5 c 128,-1,35
 769 686 769 686 769 518 c 2,36,-1
 769 487 l 1,37,38
 765 230 765 230 703 115 c 128,-1,39
 641 0 641 0 462 0 c 2,40,-1
 160 0 l 1,41,-1
 160 1760 l 1,23,-1
EndSplineSet
EndChar

StartChar: C
Encoding: 67 67 35
Width: 865
GlyphClass: 2
Flags: W
LayerCount: 2
UndoRedoHistory
Layer: 1
Undoes
EndUndoes
Redoes
EndRedoes
EndUndoRedoHistory
Fore
SplineSet
134 1251 m 2,0,1
 134 1571 134 1571 214.5 1676.5 c 128,-1,2
 295 1782 295 1782 443.5 1782 c 128,-1,3
 592 1782 592 1782 656 1709 c 0,4,5
 702 1656 702 1656 716 1604 c 0,6,7
 749 1482 749 1482 749 1239 c 2,8,-1
 749 1087 l 1,9,-1
 598 1087 l 1,10,-1
 598 1257 l 2,11,12
 598 1479 598 1479 574 1554 c 128,-1,13
 550 1629 550 1629 506 1649 c 0,14,15
 482 1660 482 1660 451 1660 c 0,16,17
 356 1660 356 1660 319.5 1563 c 128,-1,18
 283 1466 283 1466 283 1258 c 2,19,-1
 283 552 l 2,20,21
 283 297 283 297 315 199.5 c 128,-1,22
 347 102 347 102 443 102 c 128,-1,23
 539 102 539 102 568.5 199 c 128,-1,24
 598 296 598 296 598 551 c 2,25,-1
 598 692 l 1,26,-1
 748 692 l 1,27,-1
 748 552 l 2,28,29
 748 321 748 321 722 219.5 c 128,-1,30
 696 118 696 118 663 74 c 0,31,32
 593 -20 593 -20 446 -20 c 128,-1,33
 299 -20 299 -20 225 73 c 0,34,35
 134 187 134 187 134 550 c 2,36,-1
 134 1251 l 2,0,1
EndSplineSet
EndChar

StartChar: D
Encoding: 68 68 36
Width: 903
GlyphClass: 2
Flags: W
LayerCount: 2
UndoRedoHistory
Layer: 1
Undoes
EndUndoes
Redoes
EndRedoes
EndUndoRedoHistory
Fore
SplineSet
621 1274 m 2,0,1
 621 1466 621 1466 577 1551 c 128,-1,2
 533 1636 533 1636 439 1636 c 2,3,-1
 307 1636 l 1,4,-1
 307 128 l 1,5,-1
 430 128 l 2,6,7
 554 128 554 128 592 241 c 1,8,9
 622 334 622 334 622 519 c 2,10,-1
 621 1274 l 2,0,1
159 1760 m 1,11,-1
 430 1760 l 2,12,13
 667 1760 667 1760 732 1566 c 0,14,15
 770 1453 770 1453 770 1258 c 2,16,-1
 771 504 l 2,17,18
 771 229 771 229 693 114.5 c 128,-1,19
 615 0 615 0 424 0 c 2,20,-1
 159 0 l 1,21,-1
 159 1760 l 1,11,-1
EndSplineSet
EndChar

StartChar: E
Encoding: 69 69 37
Width: 709
GlyphClass: 2
Flags: W
LayerCount: 2
UndoRedoHistory
Layer: 1
Undoes
EndUndoes
Redoes
EndRedoes
EndUndoRedoHistory
Fore
SplineSet
160 1760 m 1,0,-1
 625 1760 l 1,1,-1
 625 1644 l 1,2,-1
 309 1644 l 1,3,-1
 309 956 l 1,4,-1
 606 956 l 1,5,-1
 606 835 l 1,6,-1
 309 835 l 1,7,-1
 309 118 l 1,8,-1
 622 118 l 1,9,-1
 622 0 l 1,10,-1
 160 0 l 1,11,-1
 160 1760 l 1,0,-1
EndSplineSet
EndChar

StartChar: F
Encoding: 70 70 38
Width: 690
GlyphClass: 2
Flags: W
LayerCount: 2
UndoRedoHistory
Layer: 1
Undoes
EndUndoes
Redoes
EndRedoes
EndUndoRedoHistory
Fore
SplineSet
160 1760 m 1,0,-1
 622 1760 l 1,1,-1
 622 1644 l 1,2,-1
 308 1644 l 1,3,-1
 308 1005 l 1,4,-1
 605 1005 l 1,5,-1
 605 886 l 1,6,-1
 308 886 l 1,7,-1
 308 0 l 1,8,-1
 160 0 l 1,9,-1
 160 1760 l 1,0,-1
EndSplineSet
EndChar

StartChar: G
Encoding: 71 71 39
Width: 889
GlyphClass: 2
Flags: W
LayerCount: 2
UndoRedoHistory
Layer: 1
Undoes
EndUndoes
Redoes
EndRedoes
EndUndoRedoHistory
Fore
SplineSet
134 1245 m 2,0,1
 134 1518 134 1518 188 1625 c 0,2,3
 266 1782 266 1782 445 1782 c 0,4,5
 560 1782 560 1782 621 1737 c 128,-1,6
 682 1692 682 1692 700 1639 c 0,7,8
 734 1540 734 1540 740.5 1450.5 c 128,-1,9
 747 1361 747 1361 747 1247 c 2,10,-1
 747 1100 l 1,11,-1
 595 1100 l 1,12,-1
 595 1372 l 2,13,14
 595 1522 595 1522 565 1591 c 128,-1,15
 535 1660 535 1660 445.5 1660 c 128,-1,16
 356 1660 356 1660 319.5 1570.5 c 128,-1,17
 283 1481 283 1481 283 1261 c 2,18,-1
 283 543 l 2,19,20
 283 294 283 294 315 198 c 128,-1,21
 347 102 347 102 441 102 c 128,-1,22
 535 102 535 102 567 199 c 128,-1,23
 599 296 599 296 599 541 c 2,24,-1
 599 763 l 1,25,-1
 448 763 l 1,26,-1
 448 890 l 1,27,-1
 747 890 l 1,28,-1
 747 0 l 1,29,-1
 649 0 l 1,30,-1
 633 102 l 1,31,32
 596 40 596 40 546 10 c 128,-1,33
 496 -20 496 -20 417 -20 c 0,34,35
 269 -20 269 -20 201.5 109.5 c 128,-1,36
 134 239 134 239 134 532 c 2,37,-1
 134 1245 l 2,0,1
EndSplineSet
EndChar

StartChar: H
Encoding: 72 72 40
Width: 940
GlyphClass: 2
Flags: W
LayerCount: 2
UndoRedoHistory
Layer: 1
Undoes
EndUndoes
Redoes
EndRedoes
EndUndoRedoHistory
Fore
SplineSet
631 1760 m 1,0,-1
 780 1760 l 1,1,-1
 780 0 l 1,2,-1
 631 0 l 1,3,-1
 631 886 l 1,4,-1
 309 886 l 1,5,-1
 309 0 l 1,6,-1
 160 0 l 1,7,-1
 160 1760 l 1,8,-1
 309 1760 l 1,9,-1
 309 998 l 1,10,-1
 631 998 l 1,11,-1
 631 1760 l 1,0,-1
EndSplineSet
EndChar

StartChar: I
Encoding: 73 73 41
Width: 504
GlyphClass: 2
Flags: W
LayerCount: 2
UndoRedoHistory
Layer: 1
Undoes
EndUndoes
Redoes
EndRedoes
EndUndoRedoHistory
Fore
SplineSet
178 1760 m 1,0,-1
 327 1760 l 1,1,-1
 327 0 l 1,2,-1
 178 0 l 1,3,-1
 178 1760 l 1,0,-1
EndSplineSet
EndChar

StartChar: J
Encoding: 74 74 42
Width: 798
GlyphClass: 2
Flags: W
LayerCount: 2
UndoRedoHistory
Layer: 1
Undoes
EndUndoes
Redoes
EndRedoes
EndUndoRedoHistory
Fore
SplineSet
497 1760 m 1,0,-1
 646 1760 l 1,1,-1
 646 420 l 2,2,3
 646 190 646 190 583.5 84.5 c 128,-1,4
 521 -21 521 -21 370 -21 c 128,-1,5
 219 -21 219 -21 156.5 76.5 c 128,-1,6
 94 174 94 174 94 389 c 2,7,-1
 94 540 l 1,8,-1
 245 540 l 1,9,-1
 245 331 l 2,10,11
 245 192 245 192 274 153.5 c 128,-1,12
 303 115 303 115 325.5 109 c 128,-1,13
 348 103 348 103 375 103 c 0,14,15
 481 103 481 103 492 242 c 0,16,17
 497 298 497 298 497 349 c 2,18,-1
 497 1760 l 1,0,-1
EndSplineSet
EndChar

StartChar: K
Encoding: 75 75 43
Width: 827
GlyphClass: 2
Flags: W
LayerCount: 2
UndoRedoHistory
Layer: 1
Undoes
EndUndoes
Redoes
EndRedoes
EndUndoRedoHistory
Fore
SplineSet
664 1760 m 1,0,-1
 808 1760 l 1,1,-1
 446 891 l 1,2,-1
 831 0 l 1,3,-1
 677 0 l 1,4,-1
 311 860 l 1,5,-1
 311 0 l 1,6,-1
 160 0 l 1,7,-1
 160 1760 l 1,8,-1
 309 1760 l 1,9,-1
 309 893 l 1,10,-1
 664 1760 l 1,0,-1
EndSplineSet
EndChar

StartChar: L
Encoding: 76 76 44
Width: 639
GlyphClass: 2
Flags: W
LayerCount: 2
UndoRedoHistory
Layer: 1
Undoes
EndUndoes
Redoes
EndRedoes
EndUndoRedoHistory
Fore
SplineSet
160 1760 m 1,0,-1
 309 1760 l 1,1,-1
 309 118 l 1,2,-1
 621 118 l 1,3,-1
 621 0 l 1,4,-1
 160 0 l 1,5,-1
 160 1760 l 1,0,-1
EndSplineSet
EndChar

StartChar: M
Encoding: 77 77 45
Width: 1198
GlyphClass: 2
Flags: W
LayerCount: 2
UndoRedoHistory
Layer: 1
Undoes
EndUndoes
Redoes
EndRedoes
EndUndoRedoHistory
Fore
SplineSet
871 1760 m 1,0,-1
 1038 1760 l 1,1,-1
 1038 0 l 1,2,-1
 903 0 l 1,3,-1
 903 754 l 1,4,-1
 926 1463 l 1,5,-1
 675 38 l 1,6,-1
 533 38 l 1,7,-1
 273 1463 l 1,8,-1
 296 754 l 1,9,-1
 296 0 l 1,10,-1
 160 0 l 1,11,-1
 160 1760 l 1,12,-1
 327 1760 l 1,13,-1
 604 282 l 1,14,-1
 871 1760 l 1,0,-1
EndSplineSet
EndChar

StartChar: N
Encoding: 78 78 46
Width: 971
GlyphClass: 2
Flags: W
LayerCount: 2
UndoRedoHistory
Layer: 1
Undoes
EndUndoes
Redoes
EndRedoes
EndUndoRedoHistory
Fore
SplineSet
681 1760 m 1,0,-1
 811 1760 l 1,1,-1
 811 0 l 1,2,-1
 695 0 l 1,3,-1
 290 1326 l 1,4,-1
 300 850 l 1,5,-1
 300 0 l 1,6,-1
 160 0 l 1,7,-1
 160 1760 l 1,8,-1
 264 1760 l 1,9,-1
 696 399 l 1,10,-1
 681 1005 l 1,11,-1
 681 1760 l 1,0,-1
EndSplineSet
EndChar

StartChar: O
Encoding: 79 79 47
Width: 887
GlyphClass: 2
Flags: W
LayerCount: 2
UndoRedoHistory
Layer: 1
Undoes
EndUndoes
Redoes
EndRedoes
EndUndoRedoHistory
Fore
SplineSet
604 1280 m 2,0,1
 604 1490 604 1490 573.5 1575 c 128,-1,2
 543 1660 543 1660 449 1660 c 128,-1,3
 355 1660 355 1660 319 1572.5 c 128,-1,4
 283 1485 283 1485 283 1281 c 2,5,-1
 283 519 l 2,6,7
 283 276 283 276 308 208 c 128,-1,8
 333 140 333 140 363.5 121 c 128,-1,9
 394 102 394 102 444 102 c 128,-1,10
 494 102 494 102 524 121 c 128,-1,11
 554 140 554 140 579 207.5 c 128,-1,12
 604 275 604 275 604 519 c 2,13,-1
 604 1280 l 2,0,1
134 1268 m 2,14,15
 134 1587 134 1587 214 1684.5 c 128,-1,16
 294 1782 294 1782 460 1782 c 128,-1,17
 626 1782 626 1782 689 1674 c 0,18,19
 731 1601 731 1601 742 1504 c 128,-1,20
 753 1407 753 1407 753 1268 c 2,21,-1
 753 519 l 2,22,23
 753 290 753 290 725.5 196.5 c 128,-1,24
 698 103 698 103 664 63 c 0,25,26
 592 -20 592 -20 445 -20 c 0,27,28
 226 -20 226 -20 171 169 c 0,29,30
 134 293 134 293 134 519 c 2,31,-1
 134 1268 l 2,14,15
EndSplineSet
EndChar

StartChar: P
Encoding: 80 80 48
Width: 843
GlyphClass: 2
Flags: W
LayerCount: 2
UndoRedoHistory
Layer: 1
Undoes
EndUndoes
Redoes
EndRedoes
EndUndoRedoHistory
Fore
SplineSet
622 1229 m 2,0,-1
 622 1276 l 2,1,2
 622 1470 622 1470 592.5 1553 c 128,-1,3
 563 1636 563 1636 474 1636 c 2,4,-1
 309 1636 l 1,5,-1
 309 815 l 1,6,-1
 467 815 l 2,7,8
 559 815 559 815 590.5 902.5 c 128,-1,9
 622 990 622 990 622 1229 c 2,0,-1
160 1760 m 1,10,-1
 466 1760 l 2,11,12
 574 1760 574 1760 636.5 1719.5 c 128,-1,13
 699 1679 699 1679 720 1629 c 0,14,15
 756 1539 756 1539 763.5 1454 c 128,-1,16
 771 1369 771 1369 771 1249 c 2,17,-1
 771 1231 l 2,18,19
 771 1002 771 1002 742.5 908 c 128,-1,20
 714 814 714 814 678 773 c 0,21,22
 605 689 605 689 457 689 c 2,23,-1
 309 689 l 1,24,-1
 309 0 l 1,25,-1
 160 0 l 1,26,-1
 160 1760 l 1,10,-1
EndSplineSet
EndChar

StartChar: Q
Encoding: 81 81 49
Width: 887
GlyphClass: 2
Flags: W
LayerCount: 2
UndoRedoHistory
Layer: 1
Undoes
EndUndoes
Redoes
EndRedoes
EndUndoRedoHistory
Fore
SplineSet
134 1268 m 2,0,1
 134 1587 134 1587 214 1684.5 c 128,-1,2
 294 1782 294 1782 466 1782 c 0,3,4
 663 1782 663 1782 722 1602 c 0,5,6
 753 1508 753 1508 753 1268 c 2,7,-1
 753 519 l 2,8,9
 753 290 753 290 717 167 c 0,10,11
 675 24 675 24 538 -10 c 1,12,-1
 720 -337 l 1,13,-1
 622 -389 l 1,14,-1
 410 -19 l 1,15,16
 291 -10 291 -10 226 63 c 0,17,18
 190 103 190 103 162 198 c 128,-1,19
 134 293 134 293 134 519 c 2,20,-1
 134 1268 l 2,0,1
604 1280 m 2,21,22
 604 1490 604 1490 573.5 1575 c 128,-1,23
 543 1660 543 1660 449 1660 c 128,-1,24
 355 1660 355 1660 319 1572.5 c 128,-1,25
 283 1485 283 1485 283 1281 c 2,26,-1
 283 519 l 2,27,28
 283 276 283 276 308 208 c 128,-1,29
 333 140 333 140 363.5 121 c 128,-1,30
 394 102 394 102 444 102 c 128,-1,31
 494 102 494 102 524 121 c 128,-1,32
 554 140 554 140 579 207.5 c 128,-1,33
 604 275 604 275 604 519 c 2,34,-1
 604 1280 l 2,21,22
EndSplineSet
EndChar

StartChar: R
Encoding: 82 82 50
Width: 903
GlyphClass: 2
Flags: W
LayerCount: 2
UndoRedoHistory
Layer: 1
Undoes
EndUndoes
Redoes
EndRedoes
EndUndoRedoHistory
Fore
SplineSet
623 1335 m 2,0,1
 623 1468 623 1468 610.5 1530 c 128,-1,2
 598 1592 598 1592 568.5 1614 c 128,-1,3
 539 1636 539 1636 475 1636 c 2,4,-1
 308 1636 l 1,5,-1
 308 968 l 1,6,-1
 464 968 l 2,7,8
 540 968 540 968 567.5 994 c 128,-1,9
 595 1020 595 1020 609 1080.5 c 128,-1,10
 623 1141 623 1141 623 1322 c 2,11,-1
 623 1335 l 2,0,1
160 1760 m 1,12,-1
 459 1760 l 2,13,14
 640 1760 640 1760 701 1684 c 0,15,16
 747 1627 747 1627 759.5 1544.5 c 128,-1,17
 772 1462 772 1462 772 1305 c 128,-1,18
 772 1148 772 1148 735.5 1048.5 c 128,-1,19
 699 949 699 949 610 925 c 1,20,21
 645 919 645 919 669 903.5 c 128,-1,22
 693 888 693 888 712 851 c 0,23,24
 771 736 771 736 771 285 c 0,25,26
 771 98 771 98 774.5 69.5 c 128,-1,27
 778 41 778 41 793 0 c 1,28,-1
 645 0 l 1,29,30
 629 30 629 30 626 113.5 c 128,-1,31
 623 197 623 197 623 380 c 2,32,-1
 623 574 l 2,33,34
 623 758 623 758 600.5 808 c 128,-1,35
 578 858 578 858 467 858 c 1,36,-1
 309 868 l 1,37,-1
 309 0 l 1,38,-1
 160 0 l 1,39,-1
 160 1760 l 1,12,-1
EndSplineSet
EndChar

StartChar: S
Encoding: 83 83 51
Width: 795
GlyphClass: 2
Flags: W
LayerCount: 2
UndoRedoHistory
Layer: 1
Undoes
EndUndoes
Redoes
EndRedoes
EndUndoRedoHistory
Fore
SplineSet
98 1490 m 0,0,1
 113 1633 113 1633 182.5 1707.5 c 128,-1,2
 252 1782 252 1782 400 1782 c 128,-1,3
 548 1782 548 1782 606 1708 c 0,4,5
 638 1668 638 1668 656 1628 c 0,6,7
 694 1547 694 1547 695 1242 c 1,8,-1
 695 1143 l 1,9,-1
 542 1143 l 1,10,-1
 542 1253 l 2,11,12
 542 1485 542 1485 527 1534 c 128,-1,13
 512 1583 512 1583 496 1608 c 0,14,15
 467 1654 467 1654 392 1654 c 0,16,17
 240 1654 240 1654 240 1371 c 0,18,19
 240 1272 240 1272 259 1236.5 c 128,-1,20
 278 1201 278 1201 287.5 1181 c 128,-1,21
 297 1161 297 1161 415 1043 c 2,22,-1
 511 946 l 1,23,24
 724 727 724 727 724 443.5 c 128,-1,25
 724 160 724 160 642.5 70 c 128,-1,26
 561 -20 561 -20 401 -20 c 0,27,28
 155 -20 155 -20 118 277 c 0,29,30
 105 377 105 377 105 523 c 2,31,-1
 105 706 l 1,32,-1
 257 706 l 1,33,-1
 257 526 l 2,34,35
 257 288 257 288 288.5 198 c 128,-1,36
 320 108 320 108 417 108 c 128,-1,37
 514 108 514 108 540.5 166.5 c 128,-1,38
 567 225 567 225 569.5 308 c 128,-1,39
 572 391 572 391 572 486 c 0,40,41
 572 682 572 682 417 833 c 1,42,-1
 315 930 l 1,43,44
 181 1061 181 1061 136 1150.5 c 128,-1,45
 91 1240 91 1240 91 1332.5 c 128,-1,46
 91 1425 91 1425 98 1490 c 0,0,1
EndSplineSet
EndChar

StartChar: T
Encoding: 84 84 52
Width: 577
GlyphClass: 2
Flags: W
LayerCount: 2
UndoRedoHistory
Layer: 1
Undoes
EndUndoes
Redoes
EndRedoes
EndUndoRedoHistory
Fore
SplineSet
40 1760 m 1,0,-1
 537 1760 l 1,1,-1
 537 1644 l 1,2,-1
 372 1644 l 1,3,-1
 372 0 l 1,4,-1
 224 0 l 1,5,-1
 224 1644 l 1,6,-1
 40 1644 l 1,7,-1
 40 1760 l 1,0,-1
EndSplineSet
EndChar

StartChar: U
Encoding: 85 85 53
Width: 911
GlyphClass: 2
Flags: W
LayerCount: 2
UndoRedoHistory
Layer: 1
Undoes
EndUndoes
Redoes
EndRedoes
EndUndoRedoHistory
Fore
SplineSet
616 1760 m 1,0,-1
 765 1760 l 1,1,-1
 765 452 l 2,2,3
 765 204 765 204 702 91.5 c 128,-1,4
 639 -21 639 -21 457 -21 c 128,-1,5
 275 -21 275 -21 210.5 92 c 128,-1,6
 146 205 146 205 146 452 c 2,7,-1
 146 1760 l 1,8,-1
 295 1760 l 1,9,-1
 295 457 l 2,10,11
 295 274 295 274 311 213 c 0,12,13
 341 102 341 102 451 102 c 0,14,15
 541 102 541 102 578.5 153.5 c 128,-1,16
 616 205 616 205 616 456 c 2,17,-1
 616 1760 l 1,0,-1
EndSplineSet
EndChar

StartChar: V
Encoding: 86 86 54
Width: 878
GlyphClass: 2
Flags: W
LayerCount: 2
UndoRedoHistory
Layer: 1
Undoes
EndUndoes
Redoes
EndRedoes
EndUndoRedoHistory
Fore
SplineSet
672 1760 m 1,0,-1
 815 1760 l 1,1,-1
 531 0 l 1,2,-1
 376 0 l 1,3,-1
 63 1760 l 1,4,-1
 206 1760 l 1,5,-1
 452 318 l 1,6,-1
 453 318 l 1,7,-1
 672 1760 l 1,0,-1
EndSplineSet
EndChar

StartChar: W
Encoding: 87 87 55
Width: 1338
GlyphClass: 2
Flags: W
LayerCount: 2
UndoRedoHistory
Layer: 1
Undoes
EndUndoes
Redoes
EndRedoes
EndUndoRedoHistory
Fore
SplineSet
1127 1760 m 1,0,-1
 1268 1760 l 1,1,-1
 1055 0 l 1,2,-1
 908 0 l 1,3,-1
 690 1448 l 1,4,-1
 456 0 l 1,5,-1
 319 0 l 1,6,-1
 70 1760 l 1,7,-1
 216 1760 l 1,8,-1
 400 322 l 1,9,-1
 620 1760 l 1,10,-1
 744 1760 l 1,11,-1
 979 322 l 1,12,-1
 1127 1760 l 1,0,-1
EndSplineSet
EndChar

StartChar: X
Encoding: 88 88 56
Width: 754
GlyphClass: 2
Flags: W
LayerCount: 2
UndoRedoHistory
Layer: 1
Undoes
EndUndoes
Redoes
EndRedoes
EndUndoRedoHistory
Fore
SplineSet
459 853 m 1,0,-1
 678 0 l 1,1,-1
 545 0 l 1,2,-1
 369 680 l 1,3,-1
 198 0 l 1,4,-1
 74 0 l 1,5,-1
 307 919 l 1,6,-1
 89 1760 l 1,7,-1
 226 1760 l 1,8,-1
 395 1101 l 1,9,-1
 557 1760 l 1,10,-1
 681 1760 l 1,11,-1
 459 853 l 1,0,-1
EndSplineSet
EndChar

StartChar: Y
Encoding: 89 89 57
Width: 802
GlyphClass: 2
Flags: W
LayerCount: 2
UndoRedoHistory
Layer: 1
Undoes
EndUndoes
Redoes
EndRedoes
EndUndoRedoHistory
Fore
SplineSet
624 1760 m 1,0,-1
 778 1760 l 1,1,-1
 491 773 l 1,2,-1
 491 0 l 1,3,-1
 342 0 l 1,4,-1
 342 772 l 1,5,-1
 24 1760 l 1,6,-1
 174 1760 l 1,7,-1
 415 982 l 1,8,-1
 418 982 l 1,9,-1
 624 1760 l 1,0,-1
EndSplineSet
EndChar

StartChar: Z
Encoding: 90 90 58
Width: 691
GlyphClass: 2
Flags: W
LayerCount: 2
UndoRedoHistory
Layer: 1
Undoes
EndUndoes
Redoes
EndRedoes
EndUndoRedoHistory
Fore
SplineSet
121 1760 m 1,0,-1
 603 1760 l 1,1,-1
 603 1658 l 1,2,-1
 262 118 l 1,3,-1
 597 118 l 1,4,-1
 597 0 l 1,5,-1
 112 0 l 1,6,-1
 112 125 l 1,7,-1
 451 1644 l 1,8,-1
 121 1644 l 1,9,-1
 121 1760 l 1,0,-1
EndSplineSet
EndChar

StartChar: bracketleft
Encoding: 91 91 59
Width: 764
GlyphClass: 2
Flags: W
LayerCount: 2
UndoRedoHistory
Layer: 1
Undoes
EndUndoes
Redoes
EndRedoes
EndUndoRedoHistory
Fore
SplineSet
253 1761 m 1,0,-1
 616 1761 l 1,1,-1
 616 1646 l 1,2,-1
 402 1646 l 1,3,-1
 402 115 l 1,4,-1
 616 115 l 1,5,-1
 616 0 l 1,6,-1
 253 0 l 1,7,-1
 253 1761 l 1,0,-1
EndSplineSet
EndChar

StartChar: backslash
Encoding: 92 92 60
Width: 868
GlyphClass: 2
Flags: W
LayerCount: 2
UndoRedoHistory
Layer: 1
Undoes
EndUndoes
Redoes
EndRedoes
EndUndoRedoHistory
Fore
SplineSet
133 1761 m 1,0,-1
 261 1761 l 1,1,-1
 671 0 l 1,2,-1
 544 0 l 1,3,-1
 133 1761 l 1,0,-1
EndSplineSet
EndChar

StartChar: bracketright
Encoding: 93 93 61
Width: 764
GlyphClass: 2
Flags: W
LayerCount: 2
UndoRedoHistory
Layer: 1
Undoes
EndUndoes
Redoes
EndRedoes
EndUndoRedoHistory
Fore
SplineSet
196 1761 m 1,0,-1
 558 1761 l 1,1,-1
 558 0 l 1,2,-1
 196 0 l 1,3,-1
 196 115 l 1,4,-1
 409 115 l 1,5,-1
 409 1646 l 1,6,-1
 196 1646 l 1,7,-1
 196 1761 l 1,0,-1
EndSplineSet
EndChar

StartChar: asciicircum
Encoding: 94 94 62
Width: 1030
GlyphClass: 2
Flags: W
LayerCount: 2
UndoRedoHistory
Layer: 1
Undoes
EndUndoes
Redoes
EndRedoes
EndUndoRedoHistory
Fore
SplineSet
411 1500 m 1,0,-1
 617 1500 l 1,1,-1
 858 577 l 1,2,-1
 709 577 l 1,3,-1
 515 1388 l 1,4,-1
 321 577 l 1,5,-1
 170 577 l 1,6,-1
 411 1500 l 1,0,-1
EndSplineSet
EndChar

StartChar: underscore
Encoding: 95 95 63
Width: 748
GlyphClass: 2
Flags: W
LayerCount: 2
UndoRedoHistory
Layer: 1
Undoes
EndUndoes
Redoes
EndRedoes
EndUndoRedoHistory
Fore
SplineSet
48 -64 m 1,0,-1
 699 -64 l 1,1,-1
 699 -185 l 1,2,-1
 48 -185 l 1,3,-1
 48 -64 l 1,0,-1
EndSplineSet
EndChar

StartChar: grave
Encoding: 96 96 64
Width: 650
GlyphClass: 2
Flags: W
LayerCount: 2
UndoRedoHistory
Layer: 1
Undoes
EndUndoes
Redoes
EndRedoes
EndUndoRedoHistory
Fore
SplineSet
136 14 m 1,0,-1
 136 174 l 1,1,-1
 468 -11 l 1,2,-1
 468 -80 l 1,3,-1
 136 14 l 1,0,-1
EndSplineSet
EndChar

StartChar: a
Encoding: 97 97 65
Width: 874
GlyphClass: 2
Flags: W
LayerCount: 2
UndoRedoHistory
Layer: 1
Undoes
EndUndoes
Redoes
EndRedoes
EndUndoRedoHistory
Fore
SplineSet
162 1051 m 2,0,1
 162 1214 162 1214 171 1261.5 c 128,-1,2
 180 1309 180 1309 190.5 1344.5 c 128,-1,3
 201 1380 201 1380 215.5 1403 c 128,-1,4
 230 1426 230 1426 251.5 1450 c 128,-1,5
 273 1474 273 1474 301 1487.5 c 128,-1,6
 329 1501 329 1501 366.5 1509.5 c 128,-1,7
 404 1518 404 1518 450 1518 c 128,-1,8
 496 1518 496 1518 533 1510 c 128,-1,9
 570 1502 570 1502 598 1492 c 128,-1,10
 626 1482 626 1482 646.5 1456.5 c 128,-1,11
 667 1431 667 1431 681 1412 c 0,12,13
 729 1347 729 1347 729 1043 c 2,14,-1
 729 0 l 1,15,-1
 580 0 l 1,16,-1
 580 112 l 1,17,18
 567 72 567 72 515.5 30.5 c 128,-1,19
 464 -11 464 -11 383 -11 c 0,20,21
 265 -11 265 -11 204.5 88.5 c 128,-1,22
 144 188 144 188 144 377 c 2,23,-1
 144 569 l 2,24,25
 144 672 144 672 193.5 729 c 128,-1,26
 243 786 243 786 279 809 c 0,27,28
 374 869 374 869 470 909.5 c 128,-1,29
 566 950 566 950 580 956 c 1,30,-1
 580 1124 l 2,31,32
 580 1269 580 1269 569 1295 c 128,-1,33
 558 1321 558 1321 551 1337 c 0,34,35
 529 1387 529 1387 445 1387 c 128,-1,36
 361 1387 361 1387 336.5 1316.5 c 128,-1,37
 312 1246 312 1246 312 1048 c 2,38,-1
 312 1011 l 1,39,-1
 162 1011 l 1,40,-1
 162 1051 l 2,0,1
580 837 m 1,41,42
 415 762 415 762 389.5 743 c 128,-1,43
 364 724 364 724 344 704 c 0,44,45
 292 652 292 652 292 509 c 2,46,-1
 292 390 l 2,47,48
 292 235 292 235 316 174 c 128,-1,49
 340 113 340 113 402 113 c 128,-1,50
 464 113 464 113 512 144 c 128,-1,51
 560 175 560 175 580 211 c 1,52,-1
 580 837 l 1,41,42
EndSplineSet
EndChar

StartChar: b
Encoding: 98 98 66
Width: 876
GlyphClass: 2
Flags: W
LayerCount: 2
UndoRedoHistory
Layer: 1
Undoes
EndUndoes
Redoes
EndRedoes
EndUndoRedoHistory
Fore
SplineSet
597 1061 m 2,0,1
 597 1237 597 1237 582 1280.5 c 128,-1,2
 567 1324 567 1324 553 1345 c 0,3,4
 526 1386 526 1386 481 1386 c 128,-1,5
 436 1386 436 1386 414 1380 c 0,6,7
 360 1365 360 1365 334.5 1294.5 c 128,-1,8
 309 1224 309 1224 309 1059 c 2,9,-1
 309 460 l 2,10,11
 309 271 309 271 339.5 193 c 128,-1,12
 370 115 370 115 455 115 c 128,-1,13
 540 115 540 115 568.5 193.5 c 128,-1,14
 597 272 597 272 597 466 c 2,15,-1
 597 1061 l 2,0,1
160 1783 m 1,16,-1
 309 1783 l 1,17,-1
 309 1372 l 1,18,19
 320 1432 320 1432 373 1475.5 c 128,-1,20
 426 1519 426 1519 488 1519 c 0,21,22
 667 1519 667 1519 716 1325 c 1,23,24
 746 1201 746 1201 746 1012 c 2,25,-1
 746 490 l 2,26,27
 746 233 746 233 707 133.5 c 128,-1,28
 668 34 668 34 600 6 c 0,29,30
 562 -10 562 -10 510 -11 c 1,31,32
 363 -11 363 -11 309 114 c 1,33,-1
 309 0 l 1,34,-1
 160 0 l 1,35,-1
 160 1783 l 1,16,-1
EndSplineSet
EndChar

StartChar: c
Encoding: 99 99 67
Width: 791
GlyphClass: 2
Flags: W
LayerCount: 2
UndoRedoHistory
Layer: 1
Undoes
EndUndoes
Redoes
EndRedoes
EndUndoRedoHistory
Fore
SplineSet
128 1028 m 2,0,1
 128 1278 128 1278 178 1376 c 128,-1,2
 228 1474 228 1474 312 1502 c 0,3,4
 361 1518 361 1518 445 1518 c 128,-1,5
 529 1518 529 1518 599 1472 c 0,6,7
 644 1442 644 1442 672 1357 c 128,-1,8
 700 1272 700 1272 700 1020 c 2,9,-1
 700 973 l 1,10,-1
 549 973 l 1,11,-1
 549 1065 l 2,12,13
 549 1239 549 1239 537 1291 c 0,14,15
 515 1381 515 1381 426 1381 c 0,16,17
 317 1381 317 1381 291 1255 c 0,18,19
 277 1187 277 1187 277 1057 c 2,20,-1
 277 455 l 2,21,22
 277 252 277 252 292.5 213.5 c 128,-1,23
 308 175 308 175 324 155 c 0,24,25
 352 119 352 119 424.5 119 c 128,-1,26
 497 119 497 119 522 182.5 c 128,-1,27
 547 246 547 246 548 321 c 128,-1,28
 549 396 549 396 549 449 c 2,29,-1
 549 562 l 1,30,-1
 700 562 l 1,31,-1
 700 517 l 2,32,33
 700 292 700 292 685 209 c 0,34,35
 646 -18 646 -18 432 -18 c 0,36,37
 250 -18 250 -18 190 94 c 0,38,39
 149 169 149 169 138.5 265 c 128,-1,40
 128 361 128 361 128 511 c 2,41,-1
 128 1028 l 2,0,1
EndSplineSet
EndChar

StartChar: d
Encoding: 100 100 68
Width: 872
GlyphClass: 2
Flags: W
LayerCount: 2
UndoRedoHistory
Layer: 1
Undoes
EndUndoes
Redoes
EndRedoes
EndUndoRedoHistory
Fore
SplineSet
567 1037 m 2,0,1
 567 1230 567 1230 537.5 1307.5 c 128,-1,2
 508 1385 508 1385 423 1385 c 128,-1,3
 338 1385 338 1385 309 1305.5 c 128,-1,4
 280 1226 280 1226 280 1030 c 2,5,-1
 280 436 l 2,6,7
 280 230 280 230 312.5 172 c 128,-1,8
 345 114 345 114 409 114 c 128,-1,9
 473 114 473 114 500.5 137.5 c 128,-1,10
 528 161 528 161 547.5 216.5 c 128,-1,11
 567 272 567 272 567 434 c 2,12,-1
 567 1037 l 2,0,1
566 1783 m 1,13,-1
 716 1783 l 1,14,-1
 716 0 l 1,15,-1
 566 0 l 1,16,-1
 566 114 l 1,17,18
 514 -11 514 -11 367 -11 c 0,19,20
 200 -10 200 -10 155 188 c 0,21,22
 130 297 130 297 130 481 c 2,23,-1
 130 1008 l 2,24,25
 130 1310 130 1310 202.5 1414 c 128,-1,26
 275 1518 275 1518 407 1518 c 0,27,28
 458 1518 458 1518 501.5 1481.5 c 128,-1,29
 545 1445 545 1445 566 1393 c 1,30,-1
 566 1783 l 1,13,-1
EndSplineSet
EndChar

StartChar: e
Encoding: 101 101 69
Width: 817
GlyphClass: 2
Flags: W
LayerCount: 2
UndoRedoHistory
Layer: 1
Undoes
EndUndoes
Redoes
EndRedoes
EndUndoRedoHistory
Fore
SplineSet
549 877 m 1,0,-1
 549 1078 l 2,1,2
 549 1247 549 1247 536 1299 c 0,3,4
 514 1387 514 1387 426 1387 c 0,5,6
 308 1387 308 1387 286 1232 c 0,7,8
 277 1169 277 1169 277 1078 c 0,9,10
 277 1069 277 1069 277 1060 c 1,11,-1
 277 877 l 1,12,-1
 549 877 l 1,0,-1
128 1014 m 2,13,14
 128 1276 128 1276 176 1374 c 1,15,16
 226 1472 226 1472 310 1501 c 0,17,18
 360 1518 360 1518 425.5 1518 c 128,-1,19
 491 1518 491 1518 539 1502 c 0,20,21
 612 1478 612 1478 662 1371 c 0,22,23
 698 1296 698 1296 698 1002 c 2,24,-1
 698 752 l 1,25,-1
 277 752 l 1,26,-1
 277 450 l 2,27,28
 277 218 277 218 311.5 165.5 c 128,-1,29
 346 113 346 113 413.5 113 c 128,-1,30
 481 113 481 113 508.5 155 c 128,-1,31
 536 197 536 197 542.5 263.5 c 128,-1,32
 549 330 549 330 549 444 c 2,33,-1
 549 556 l 1,34,-1
 694 556 l 1,35,-1
 694 507 l 2,36,37
 694 285 694 285 679 203 c 0,38,39
 641 -18 641 -18 432 -18 c 0,40,41
 250 -18 250 -18 190 94 c 1,42,43
 149 168 149 168 138.5 263 c 128,-1,44
 128 358 128 358 128 511 c 2,45,-1
 128 1014 l 2,13,14
EndSplineSet
EndChar

StartChar: f
Encoding: 102 102 70
Width: 610
GlyphClass: 2
Flags: W
LayerCount: 2
UndoRedoHistory
Layer: 1
Undoes
EndUndoes
Redoes
EndRedoes
EndUndoRedoHistory
Fore
SplineSet
224 1512 m 2,0,1
 224 1650 224 1650 273 1719.5 c 128,-1,2
 322 1789 322 1789 438 1789 c 0,3,4
 519 1789 519 1789 573 1771 c 1,5,-1
 573 1650 l 1,6,7
 528 1657 528 1657 472 1657 c 128,-1,8
 416 1657 416 1657 395 1627.5 c 128,-1,9
 374 1598 374 1598 374 1534 c 2,10,-1
 374 1442 l 1,11,-1
 573 1442 l 1,12,-1
 573 1329 l 1,13,-1
 374 1329 l 1,14,-1
 374 0 l 1,15,-1
 224 0 l 1,16,-1
 224 1329 l 1,17,-1
 84 1329 l 1,18,-1
 84 1442 l 1,19,-1
 224 1442 l 1,20,-1
 224 1512 l 2,0,1
EndSplineSet
EndChar

StartChar: g
Encoding: 103 103 71
Width: 860
GlyphClass: 2
Flags: W
LayerCount: 2
UndoRedoHistory
Layer: 1
Undoes
EndUndoes
Redoes
EndRedoes
EndUndoRedoHistory
Fore
SplineSet
563 1050 m 2,0,1
 563 1275 563 1275 527.5 1331 c 128,-1,2
 492 1387 492 1387 419.5 1387 c 128,-1,3
 347 1387 347 1387 315.5 1333 c 128,-1,4
 284 1279 284 1279 279.5 1199 c 128,-1,5
 275 1119 275 1119 275 1052 c 2,6,-1
 275 611 l 2,7,8
 275 418 275 418 308.5 336.5 c 128,-1,9
 342 255 342 255 434 255 c 1,10,11
 482 256 482 256 508 282 c 0,12,13
 563 338 563 338 563 614 c 2,14,-1
 563 1050 l 2,0,1
190.5 1376.5 m 128,-1,16
 255 1518 255 1518 389 1518 c 128,-1,17
 523 1518 523 1518 563 1412 c 1,18,-1
 563 1500 l 1,19,-1
 712 1500 l 1,20,-1
 712 97 l 2,21,22
 712 -126 712 -126 546 -204 c 0,23,24
 481 -235 481 -235 410 -235 c 128,-1,25
 339 -235 339 -235 261.5 -211 c 128,-1,26
 184 -187 184 -187 132 -147 c 1,27,-1
 189 -32 l 1,28,29
 287 -105 287 -105 409 -105 c 0,30,31
 486 -105 486 -105 524.5 -54.5 c 128,-1,32
 563 -4 563 -4 563 80 c 2,33,-1
 563 245 l 1,34,35
 533 178 533 178 487.5 152.5 c 128,-1,36
 442 127 442 127 380 127 c 0,37,38
 208 127 208 127 157 321 c 1,39,40
 126 443 126 443 126 632 c 2,41,-1
 126 1013 l 2,42,15
 126 1235 126 1235 190.5 1376.5 c 128,-1,16
EndSplineSet
EndChar

StartChar: h
Encoding: 104 104 72
Width: 923
GlyphClass: 2
Flags: W
LayerCount: 2
UndoRedoHistory
Layer: 1
Undoes
EndUndoes
Redoes
EndRedoes
EndUndoRedoHistory
Fore
SplineSet
502 1381 m 0,0,1
 310 1381 310 1381 309 1191 c 1,2,-1
 309 0 l 1,3,-1
 160 0 l 1,4,-1
 160 1783 l 1,5,-1
 309 1783 l 1,6,-1
 309 1353 l 1,7,8
 329 1420 329 1420 398.5 1469.5 c 128,-1,9
 468 1519 468 1519 561 1519 c 128,-1,10
 654 1519 654 1519 713.5 1442 c 128,-1,11
 773 1365 773 1365 773 1211 c 2,12,-1
 773 0 l 1,13,-1
 623 0 l 1,14,-1
 623 1201 l 2,15,16
 623 1303 623 1303 587.5 1342 c 128,-1,17
 552 1381 552 1381 502 1381 c 0,0,1
EndSplineSet
EndChar

StartChar: i
Encoding: 105 105 73
Width: 474
GlyphClass: 2
Flags: W
LayerCount: 2
UndoRedoHistory
Layer: 1
Undoes
EndUndoes
Redoes
EndRedoes
EndUndoRedoHistory
Fore
SplineSet
162 1500 m 1,0,-1
 312 1500 l 1,1,-1
 312 0 l 1,2,-1
 162 0 l 1,3,-1
 162 1500 l 1,0,-1
162 1782 m 1,4,-1
 311 1782 l 1,5,-1
 311 1638 l 1,6,-1
 162 1638 l 1,7,-1
 162 1782 l 1,4,-1
EndSplineSet
EndChar

StartChar: j
Encoding: 106 106 74
Width: 504
GlyphClass: 2
Flags: W
LayerCount: 2
UndoRedoHistory
Layer: 1
Undoes
EndUndoes
Redoes
EndRedoes
EndUndoRedoHistory
Fore
SplineSet
195 1782 m 1,0,-1
 344 1782 l 1,1,-1
 344 1638 l 1,2,-1
 195 1638 l 1,3,-1
 195 1782 l 1,0,-1
292 -185 m 0,4,5
 270 -203 270 -203 247 -213.5 c 128,-1,6
 224 -224 224 -224 172 -224 c 128,-1,7
 120 -224 120 -224 90 -218 c 1,8,-1
 86 -218 l 1,9,-1
 86 -110 l 1,10,11
 106 -114 106 -114 124 -114 c 128,-1,12
 142 -114 142 -114 158 -111 c 0,13,14
 194 -105 194 -105 194 -44 c 2,15,-1
 194 1500 l 1,16,-1
 343 1500 l 1,17,-1
 343 -34 l 1,18,19
 342 -145 342 -145 292 -185 c 0,4,5
EndSplineSet
EndChar

StartChar: k
Encoding: 107 107 75
Width: 799
GlyphClass: 2
Flags: W
LayerCount: 2
UndoRedoHistory
Layer: 1
Undoes
EndUndoes
Redoes
EndRedoes
EndUndoRedoHistory
Fore
SplineSet
161 1783 m 1,0,-1
 310 1783 l 1,1,-1
 310 760 l 1,2,-1
 641 1500 l 1,3,-1
 790 1500 l 1,4,-1
 449 756 l 1,5,-1
 808 0 l 1,6,-1
 652 0 l 1,7,-1
 310 742 l 1,8,-1
 310 0 l 1,9,-1
 161 0 l 1,10,-1
 161 1783 l 1,0,-1
EndSplineSet
EndChar

StartChar: l
Encoding: 108 108 76
Width: 470
GlyphClass: 2
Flags: W
LayerCount: 2
UndoRedoHistory
Layer: 1
Undoes
EndUndoes
Redoes
EndRedoes
EndUndoRedoHistory
Fore
SplineSet
160 1783 m 1,0,-1
 310 1783 l 1,1,-1
 310 0 l 1,2,-1
 160 0 l 1,3,-1
 160 1783 l 1,0,-1
EndSplineSet
EndChar

StartChar: m
Encoding: 109 109 77
Width: 1362
GlyphClass: 2
Flags: W
LayerCount: 2
UndoRedoHistory
Layer: 1
Undoes
EndUndoes
Redoes
EndRedoes
EndUndoRedoHistory
Fore
SplineSet
1062 1226 m 2,0,1
 1062 1381 1062 1381 925 1381 c 0,2,3
 810 1381 810 1381 778 1314 c 0,4,5
 764 1284 764 1284 760 1239 c 1,6,-1
 760 0 l 1,7,-1
 611 0 l 1,8,-1
 611 1226 l 2,9,10
 611 1312 611 1312 575.5 1346.5 c 128,-1,11
 540 1381 540 1381 467.5 1381 c 128,-1,12
 395 1381 395 1381 352 1337.5 c 128,-1,13
 309 1294 309 1294 309 1209 c 2,14,-1
 309 0 l 1,15,-1
 160 0 l 1,16,-1
 160 1500 l 1,17,-1
 309 1500 l 1,18,-1
 309 1351 l 1,19,20
 329 1419 329 1419 392.5 1469 c 128,-1,21
 456 1519 456 1519 538 1519 c 0,22,23
 688 1519 688 1519 739 1367 c 1,24,25
 776 1435 776 1435 844 1477 c 128,-1,26
 912 1519 912 1519 1002 1519 c 128,-1,27
 1092 1519 1092 1519 1152 1444 c 128,-1,28
 1212 1369 1212 1369 1212 1217 c 2,29,-1
 1212 0 l 1,30,-1
 1062 0 l 1,31,-1
 1062 1226 l 2,0,1
EndSplineSet
EndChar

StartChar: n
Encoding: 110 110 78
Width: 922
GlyphClass: 2
Flags: W
LayerCount: 2
UndoRedoHistory
Layer: 1
Undoes
EndUndoes
Redoes
EndRedoes
EndUndoRedoHistory
Fore
SplineSet
309 1353 m 1,0,1
 329 1420 329 1420 397.5 1469.5 c 128,-1,2
 466 1519 466 1519 559 1519 c 128,-1,3
 652 1519 652 1519 712 1442 c 128,-1,4
 772 1365 772 1365 772 1211 c 2,5,-1
 772 0 l 1,6,-1
 623 0 l 1,7,-1
 623 1223 l 2,8,9
 623 1310 623 1310 583.5 1348.5 c 128,-1,10
 544 1387 544 1387 478 1387 c 0,11,12
 309 1387 309 1387 309 1220 c 2,13,-1
 309 0 l 1,14,-1
 160 0 l 1,15,-1
 160 1500 l 1,16,-1
 309 1500 l 1,17,-1
 309 1353 l 1,0,1
EndSplineSet
EndChar

StartChar: o
Encoding: 111 111 79
Width: 845
GlyphClass: 2
Flags: W
LayerCount: 2
UndoRedoHistory
Layer: 1
Undoes
EndUndoes
Redoes
EndRedoes
EndUndoRedoHistory
Fore
SplineSet
568 1053 m 2,0,1
 568 1311 568 1311 500 1364 c 0,2,3
 470 1387 470 1387 428 1387 c 0,4,5
 314 1387 314 1387 292 1260 c 1,6,7
 277 1181 277 1181 277 1053 c 2,8,-1
 277 463 l 2,9,10
 277 242 277 242 314.5 177.5 c 128,-1,11
 352 113 352 113 434 113 c 128,-1,12
 516 113 516 113 542 204.5 c 128,-1,13
 568 296 568 296 568 463 c 2,14,-1
 568 1053 l 2,0,1
128 1018 m 2,15,16
 128 1278 128 1278 177 1376 c 128,-1,17
 226 1474 226 1474 310 1502 c 0,18,19
 360 1518 360 1518 422 1518 c 0,20,21
 675 1518 675 1518 706 1243 c 0,22,23
 717 1149 717 1149 717 1018 c 2,24,-1
 717 515 l 2,25,26
 717 338 717 338 709.5 286 c 128,-1,27
 702 234 702 234 695 196 c 0,28,29
 655 -18 655 -18 417 -18 c 0,30,31
 320 -18 320 -18 262 22 c 0,32,33
 152 98 152 98 135 301 c 0,34,35
 128 391 128 391 128 515 c 2,36,-1
 128 1018 l 2,15,16
EndSplineSet
EndChar

StartChar: p
Encoding: 112 112 80
Width: 873
GlyphClass: 2
Flags: W
LayerCount: 2
UndoRedoHistory
Layer: 1
Undoes
EndUndoes
Redoes
EndRedoes
EndUndoRedoHistory
Fore
SplineSet
596 1061 m 2,0,1
 596 1237 596 1237 581.5 1280.5 c 128,-1,2
 567 1324 567 1324 547 1355 c 128,-1,3
 527 1386 527 1386 481 1386 c 128,-1,4
 435 1386 435 1386 413 1380 c 0,5,6
 359 1365 359 1365 334 1293.5 c 128,-1,7
 309 1222 309 1222 309 1059 c 2,8,-1
 309 463 l 2,9,10
 309 272 309 272 339.5 193.5 c 128,-1,11
 370 115 370 115 455 115 c 128,-1,12
 540 115 540 115 568 193 c 128,-1,13
 596 271 596 271 596 468 c 2,14,-1
 596 1061 l 2,0,1
309 1385 m 1,15,16
 362 1511 362 1511 508 1511 c 0,17,18
 610 1511 610 1511 661.5 1443.5 c 128,-1,19
 713 1376 713 1376 729 1269.5 c 128,-1,20
 745 1163 745 1163 745 1013 c 2,21,-1
 745 475 l 2,22,23
 745 472 745 472 745 468 c 0,24,25
 745 185 745 185 671 83.5 c 128,-1,26
 597 -18 597 -18 469 -18 c 0,27,28
 418 -18 418 -18 373.5 18.5 c 128,-1,29
 329 55 329 55 309 108 c 1,30,-1
 309 -265 l 1,31,-1
 160 -265 l 1,32,-1
 160 1500 l 1,33,-1
 309 1500 l 1,34,-1
 309 1385 l 1,15,16
EndSplineSet
EndChar

StartChar: q
Encoding: 113 113 81
Width: 858
GlyphClass: 2
Flags: W
LayerCount: 2
UndoRedoHistory
Layer: 1
Undoes
EndUndoes
Redoes
EndRedoes
EndUndoRedoHistory
Fore
SplineSet
564 1037 m 2,0,1
 564 1269 564 1269 524.5 1327 c 128,-1,2
 485 1385 485 1385 408.5 1385 c 128,-1,3
 332 1385 332 1385 304 1306.5 c 128,-1,4
 276 1228 276 1228 276 1031 c 2,5,-1
 276 437 l 2,6,7
 276 229 276 229 308 171.5 c 128,-1,8
 340 114 340 114 404.5 114 c 128,-1,9
 469 114 469 114 496.5 139 c 128,-1,10
 524 164 524 164 544 220 c 128,-1,11
 564 276 564 276 564 441 c 2,12,-1
 564 1037 l 2,0,1
128 1013 m 2,13,14
 128 1268 128 1268 168 1366 c 1,15,16
 206 1464 206 1464 274 1494 c 0,17,18
 312 1510 312 1510 364 1511 c 1,19,20
 511 1511 511 1511 565 1381 c 1,21,-1
 565 1500 l 1,22,-1
 715 1500 l 1,23,-1
 715 -265 l 1,24,-1
 565 -265 l 1,25,-1
 565 106 l 1,26,27
 543 53 543 53 499 17.5 c 128,-1,28
 455 -18 455 -18 388.5 -18 c 128,-1,29
 322 -18 322 -18 266 19 c 0,30,31
 128 110 128 110 128 479 c 2,32,-1
 128 1013 l 2,13,14
EndSplineSet
EndChar

StartChar: r
Encoding: 114 114 82
Width: 617
GlyphClass: 2
Flags: W
LayerCount: 2
UndoRedoHistory
Layer: 1
Undoes
EndUndoes
Redoes
EndRedoes
EndUndoRedoHistory
Fore
SplineSet
565 1518 m 0,0,1
 569 1518 569 1518 569 1486 c 128,-1,2
 569 1454 569 1454 568 1422 c 1,3,-1
 568 1391 l 1,4,5
 489 1391 489 1391 428.5 1359.5 c 128,-1,6
 368 1328 368 1328 310 1246 c 1,7,-1
 310 0 l 1,8,-1
 161 0 l 1,9,-1
 161 1500 l 1,10,-1
 310 1500 l 1,11,-1
 310 1333 l 1,12,13
 336 1421 336 1421 401.5 1469.5 c 128,-1,14
 467 1518 467 1518 565 1518 c 0,0,1
EndSplineSet
EndChar

StartChar: s
Encoding: 115 115 83
Width: 817
GlyphClass: 2
Flags: W
LayerCount: 2
UndoRedoHistory
Layer: 1
Undoes
EndUndoes
Redoes
EndRedoes
EndUndoRedoHistory
Fore
SplineSet
120 1180 m 0,0,1
 120 1346 120 1346 199.5 1432 c 128,-1,2
 279 1518 279 1518 419 1518 c 128,-1,3
 559 1518 559 1518 624 1407 c 128,-1,4
 689 1296 689 1296 689 1037 c 2,5,-1
 689 957 l 1,6,-1
 534 957 l 1,7,-1
 534 1064 l 2,8,9
 534 1223 534 1223 506.5 1302 c 128,-1,10
 479 1381 479 1381 410.5 1381 c 128,-1,11
 342 1381 342 1381 306.5 1335.5 c 128,-1,12
 271 1290 271 1290 271 1178 c 0,13,14
 271 1175 271 1175 271 1172 c 0,15,16
 271 997 271 997 434 839 c 2,17,-1
 511 764 l 1,18,19
 710 565 710 565 710 325 c 0,20,21
 710 165 710 165 641 72.5 c 128,-1,22
 572 -20 572 -20 424 -20 c 128,-1,23
 276 -20 276 -20 202.5 82 c 128,-1,24
 129 184 129 184 129 407 c 2,25,-1
 129 536 l 1,26,-1
 282 536 l 1,27,-1
 282 433 l 2,28,29
 282 116 282 116 420 116 c 0,30,31
 494 116 494 116 525 164 c 128,-1,32
 556 212 556 212 556 334 c 0,33,34
 556 515 556 515 400 674 c 2,35,-1
 321 754 l 2,36,37
 120 958 120 958 120 1180 c 0,0,1
EndSplineSet
EndChar

StartChar: t
Encoding: 116 116 84
Width: 582
GlyphClass: 2
Flags: W
LayerCount: 2
UndoRedoHistory
Layer: 1
Undoes
EndUndoes
Redoes
EndRedoes
EndUndoRedoHistory
Fore
SplineSet
195 1760 m 1,0,-1
 345 1760 l 1,1,-1
 345 1506 l 1,2,-1
 522 1506 l 1,3,-1
 522 1390 l 1,4,-1
 345 1390 l 1,5,-1
 345 209 l 2,6,7
 345 164 345 164 356 147 c 128,-1,8
 367 130 367 130 397 124 c 128,-1,9
 427 118 427 118 521 118 c 1,10,-1
 521 -9 l 1,11,-1
 417 -9 l 2,12,13
 275 -9 275 -9 234 41 c 0,14,15
 210 70 210 70 202.5 109.5 c 128,-1,16
 195 149 195 149 195 217 c 2,17,-1
 195 1390 l 1,18,-1
 45 1390 l 1,19,-1
 45 1506 l 1,20,-1
 195 1506 l 1,21,-1
 195 1760 l 1,0,-1
EndSplineSet
EndChar

StartChar: u
Encoding: 117 117 85
Width: 924
GlyphClass: 2
Flags: W
LayerCount: 2
UndoRedoHistory
Layer: 1
Undoes
EndUndoes
Redoes
EndRedoes
EndUndoRedoHistory
Fore
SplineSet
300 292 m 2,0,1
 300 119 300 119 452 119 c 0,2,3
 526 119 526 119 570.5 168.5 c 128,-1,4
 615 218 615 218 615 303 c 2,5,-1
 614 1500 l 1,6,-1
 764 1500 l 1,7,-1
 764 0 l 1,8,-1
 615 0 l 1,9,-1
 615 150 l 1,10,11
 596 82 596 82 533.5 31 c 128,-1,12
 471 -20 471 -20 389 -20 c 128,-1,13
 307 -20 307 -20 229 47.5 c 128,-1,14
 151 115 151 115 151 285 c 2,15,-1
 151 1500 l 1,16,-1
 300 1500 l 1,17,-1
 300 292 l 2,0,1
EndSplineSet
EndChar

StartChar: v
Encoding: 118 118 86
Width: 677
GlyphClass: 2
Flags: W
LayerCount: 2
UndoRedoHistory
Layer: 1
Undoes
EndUndoes
Redoes
EndRedoes
EndUndoRedoHistory
Fore
SplineSet
497 1500 m 1,0,-1
 631 1500 l 1,1,-1
 413 0 l 1,2,-1
 264 0 l 1,3,-1
 45 1500 l 1,4,-1
 179 1500 l 1,5,-1
 297 624 l 1,6,-1
 337 259 l 1,7,-1
 347 259 l 1,8,-1
 387 625 l 1,9,-1
 497 1500 l 1,0,-1
EndSplineSet
EndChar

StartChar: w
Encoding: 119 119 87
Width: 1075
GlyphClass: 2
Flags: W
LayerCount: 2
UndoRedoHistory
Layer: 1
Undoes
EndUndoes
Redoes
EndRedoes
EndUndoRedoHistory
Fore
SplineSet
885 1500 m 1,0,-1
 1017 1500 l 1,1,-1
 843 0 l 1,2,-1
 695 0 l 1,3,-1
 548 1283 l 1,4,-1
 375 0 l 1,5,-1
 233 0 l 1,6,-1
 57 1500 l 1,7,-1
 194 1500 l 1,8,-1
 284 613 l 1,9,-1
 308 302 l 1,10,-1
 320 302 l 1,11,-1
 350 614 l 1,12,-1
 476 1500 l 1,13,-1
 603 1500 l 1,14,-1
 740 646 l 1,15,-1
 780 302 l 1,16,-1
 790 302 l 1,17,-1
 810 648 l 1,18,-1
 885 1500 l 1,0,-1
EndSplineSet
EndChar

StartChar: x
Encoding: 120 120 88
Width: 670
GlyphClass: 2
Flags: W
LayerCount: 2
UndoRedoHistory
Layer: 1
Undoes
EndUndoes
Redoes
EndRedoes
EndUndoRedoHistory
Fore
SplineSet
401 779 m 1,0,-1
 637 0 l 1,1,-1
 498 0 l 1,2,-1
 327 574 l 1,3,-1
 166 0 l 1,4,-1
 34 0 l 1,5,-1
 271 762 l 1,6,-1
 52 1500 l 1,7,-1
 182 1500 l 1,8,-1
 342 973 l 1,9,-1
 491 1500 l 1,10,-1
 633 1500 l 1,11,-1
 401 779 l 1,0,-1
EndSplineSet
EndChar

StartChar: y
Encoding: 121 121 89
Width: 733
GlyphClass: 2
Flags: W
LayerCount: 2
UndoRedoHistory
Layer: 1
Undoes
EndUndoes
Redoes
EndRedoes
EndUndoRedoHistory
Fore
SplineSet
541 1500 m 1,0,-1
 690 1500 l 1,1,-1
 451 3 l 1,2,3
 428 -151 428 -151 398 -188 c 128,-1,4
 368 -225 368 -225 330.5 -231.5 c 128,-1,5
 293 -238 293 -238 254 -238 c 2,6,-1
 130 -238 l 1,7,-1
 130 -110 l 1,8,-1
 185 -110 l 2,9,10
 292 -110 292 -110 308 -99 c 1,11,12
 322 -85 322 -85 322 -59 c 128,-1,13
 322 -33 322 -33 319 -15 c 128,-1,14
 316 3 316 3 311 38 c 2,15,-1
 61 1500 l 1,16,-1
 211 1500 l 1,17,-1
 330 707 l 1,18,-1
 378 299 l 1,19,-1
 391 299 l 1,20,-1
 434 707 l 1,21,-1
 541 1500 l 1,0,-1
EndSplineSet
EndChar

StartChar: z
Encoding: 122 122 90
Width: 635
GlyphClass: 2
Flags: W
LayerCount: 2
UndoRedoHistory
Layer: 1
Undoes
EndUndoes
Redoes
EndRedoes
EndUndoRedoHistory
Fore
SplineSet
107 1500 m 1,0,-1
 570 1500 l 1,1,-1
 570 1407 l 1,2,-1
 236 130 l 1,3,-1
 550 130 l 1,4,-1
 550 0 l 1,5,-1
 82 0 l 1,6,-1
 82 108 l 1,7,-1
 411 1371 l 1,8,-1
 107 1371 l 1,9,-1
 107 1500 l 1,0,-1
EndSplineSet
EndChar

StartChar: braceleft
Encoding: 123 123 91
Width: 798
GlyphClass: 2
Flags: W
LayerCount: 2
UndoRedoHistory
Layer: 1
Undoes
EndUndoes
Redoes
EndRedoes
EndUndoRedoHistory
Fore
SplineSet
562 1781 m 2,0,-1
 622 1781 l 1,1,-1
 622 1644 l 1,2,3
 552 1644 552 1644 527.5 1629 c 128,-1,4
 503 1614 503 1614 493 1576 c 128,-1,5
 483 1538 483 1538 483 1430 c 2,6,-1
 483 1184 l 2,7,8
 483 979 483 979 458.5 927.5 c 128,-1,9
 434 876 434 876 378 852 c 0,10,11
 354 842 354 842 311 830 c 1,12,13
 390 807 390 807 418 783 c 1,14,15
 445 758 445 758 455 738 c 0,16,17
 483 681 483 681 483 476 c 2,18,-1
 483 230 l 2,19,20
 483 58 483 58 517.5 37 c 128,-1,21
 552 16 552 16 622 16 c 1,22,-1
 622 -121 l 1,23,-1
 562 -121 l 2,24,25
 428 -121 428 -121 381 -50.5 c 128,-1,26
 334 20 334 20 334 217 c 2,27,-1
 334 492 l 2,28,29
 334 652 334 652 313 686.5 c 128,-1,30
 292 721 292 721 260 725 c 128,-1,31
 228 729 228 729 195 729 c 1,32,-1
 195 931 l 1,33,34
 287 931 287 931 308 965.5 c 128,-1,35
 329 1000 329 1000 331.5 1055.5 c 128,-1,36
 334 1111 334 1111 334 1168 c 2,37,-1
 334 1443 l 2,38,39
 334 1640 334 1640 381 1710.5 c 128,-1,40
 428 1781 428 1781 562 1781 c 2,0,-1
EndSplineSet
EndChar

StartChar: bar
Encoding: 124 124 92
Width: 537
GlyphClass: 2
Flags: W
LayerCount: 2
UndoRedoHistory
Layer: 1
Undoes
EndUndoes
Redoes
EndRedoes
EndUndoRedoHistory
Fore
SplineSet
199 1683 m 1,0,-1
 352 1683 l 1,1,-1
 352 -84 l 1,2,-1
 199 -84 l 1,3,-1
 199 1683 l 1,0,-1
EndSplineSet
EndChar

StartChar: braceright
Encoding: 125 125 93
Width: 798
GlyphClass: 2
Flags: W
LayerCount: 2
UndoRedoHistory
Layer: 1
Undoes
EndUndoes
Redoes
EndRedoes
EndUndoRedoHistory
Fore
SplineSet
195 1781 m 1,0,-1
 255 1781 l 2,1,2
 389 1781 389 1781 436 1710.5 c 128,-1,3
 483 1640 483 1640 483 1443 c 2,4,-1
 483 1168 l 2,5,6
 483 1008 483 1008 504 973.5 c 128,-1,7
 525 939 525 939 557 935 c 128,-1,8
 589 931 589 931 622 931 c 1,9,-1
 622 729 l 1,10,11
 530 729 530 729 509 694.5 c 128,-1,12
 488 660 488 660 485.5 604.5 c 128,-1,13
 483 549 483 549 483 492 c 2,14,-1
 483 217 l 2,15,16
 483 20 483 20 436 -50.5 c 128,-1,17
 389 -121 389 -121 255 -121 c 2,18,-1
 195 -121 l 1,19,-1
 195 16 l 1,20,21
 245 16 245 16 269.5 21.5 c 128,-1,22
 294 27 294 27 310 51.5 c 128,-1,23
 326 76 326 76 330 114.5 c 128,-1,24
 334 153 334 153 334 230 c 2,25,-1
 334 476 l 2,26,27
 334 681 334 681 359 732.5 c 128,-1,28
 384 784 384 784 440 808 c 0,29,30
 464 818 464 818 506 830 c 1,31,32
 391 863 391 863 362.5 921 c 128,-1,33
 334 979 334 979 334 1184 c 2,34,-1
 334 1430 l 2,35,36
 334 1507 334 1507 330 1545.5 c 128,-1,37
 326 1584 326 1584 310 1608.5 c 128,-1,38
 294 1633 294 1633 269.5 1638.5 c 128,-1,39
 245 1644 245 1644 195 1644 c 1,40,-1
 195 1781 l 1,0,-1
EndSplineSet
EndChar

StartChar: asciitilde
Encoding: 126 126 94
Width: 1117
GlyphClass: 2
Flags: W
LayerCount: 2
UndoRedoHistory
Layer: 1
Undoes
EndUndoes
Redoes
EndRedoes
EndUndoRedoHistory
Fore
SplineSet
978 1098 m 1,0,1
 916 853 916 853 772 853 c 0,2,3
 704 853 704 853 550 893 c 128,-1,4
 396 933 396 933 342.5 933 c 128,-1,5
 289 933 289 933 249 840 c 1,6,-1
 121 915 l 1,7,8
 199 1101 199 1101 335 1101 c 0,9,10
 392 1101 392 1101 550 1061.5 c 128,-1,11
 708 1022 708 1022 735 1022 c 1,12,13
 802 1031 802 1031 835 1140 c 1,14,-1
 978 1098 l 1,0,1
EndSplineSet
EndChar

StartChar: cent
Encoding: 162 162 97
Width: 788
GlyphClass: 2
Flags: W
LayerCount: 2
UndoRedoHistory
Layer: 1
Undoes
EndUndoes
Redoes
EndRedoes
EndUndoRedoHistory
Fore
SplineSet
128 1028 m 2,0,1
 128 1171 128 1171 146 1276 c 0,2,3
 182 1483 182 1483 363 1512 c 1,4,-1
 363 1768 l 1,5,-1
 476 1768 l 1,6,-1
 476 1516 l 1,7,8
 542 1509 542 1509 593.5 1476 c 128,-1,9
 645 1443 645 1443 684 1323 c 0,10,11
 700 1272 700 1272 700 1020 c 2,12,-1
 700 973 l 1,13,-1
 549 973 l 1,14,-1
 549 1065 l 2,15,16
 549 1239 549 1239 537 1291 c 0,17,18
 515 1381 515 1381 433 1381 c 128,-1,19
 351 1381 351 1381 314 1321.5 c 128,-1,20
 277 1262 277 1262 277 1057 c 2,21,-1
 277 455 l 2,22,23
 277 337 277 337 284.5 266.5 c 128,-1,24
 292 196 292 196 321.5 157.5 c 128,-1,25
 351 119 351 119 427 119 c 0,26,27
 512 119 512 119 536 226 c 0,28,29
 549 285 549 285 549 449 c 2,30,-1
 549 562 l 1,31,-1
 700 562 l 1,32,-1
 700 517 l 2,33,34
 700 292 700 292 685 209 c 0,35,36
 659 58 659 58 560 10 c 0,37,38
 526 -7 526 -7 476 -14 c 1,39,-1
 476 -249 l 1,40,-1
 363 -249 l 1,41,-1
 363 -15 l 1,42,43
 296 -7 296 -7 241.5 32 c 128,-1,44
 187 71 187 71 157.5 167 c 128,-1,45
 128 263 128 263 128 511 c 2,46,-1
 128 1028 l 2,0,1
EndSplineSet
EndChar

StartChar: sterling
Encoding: 163 163 98
Width: 809
GlyphClass: 2
Flags: W
LayerCount: 2
UndoRedoHistory
Layer: 1
Undoes
EndUndoes
Redoes
EndRedoes
EndUndoRedoHistory
Fore
SplineSet
162 1386 m 0,0,1
 162 1782 162 1782 473 1782 c 0,2,3
 695 1782 695 1782 756 1549 c 0,4,5
 775 1476 775 1476 775 1381 c 2,6,-1
 775 1246 l 1,7,-1
 642 1246 l 1,8,-1
 642 1393 l 2,9,10
 642 1656 642 1656 464 1656 c 0,11,12
 300 1656 300 1656 300 1409 c 0,13,14
 300 1237 300 1237 378 936 c 1,15,-1
 684 936 l 1,16,-1
 684 833 l 1,17,-1
 398 833 l 1,18,19
 415 700 415 700 415 583 c 0,20,21
 415 252 415 252 277 107 c 1,22,-1
 766 107 l 1,23,-1
 766 0 l 1,24,-1
 62 0 l 1,25,-1
 62 86 l 1,26,27
 184 139 184 139 232 262.5 c 128,-1,28
 280 386 280 386 280 633 c 0,29,30
 280 735 280 735 261 833 c 1,31,-1
 78 833 l 1,32,-1
 78 936 l 1,33,-1
 233 936 l 1,34,35
 162 1202 162 1202 162 1386 c 0,0,1
EndSplineSet
EndChar

StartChar: currency
Encoding: 164 164 99
Width: 1159
GlyphClass: 2
Flags: W
LayerCount: 2
UndoRedoHistory
Layer: 1
Undoes
EndUndoes
Redoes
EndRedoes
EndUndoRedoHistory
Fore
SplineSet
794 1042.5 m 128,-1,1
 876 1134 876 1134 876 1270 c 128,-1,2
 876 1406 876 1406 795 1494 c 128,-1,3
 714 1582 714 1582 580.5 1582 c 128,-1,4
 447 1582 447 1582 365 1491.5 c 128,-1,5
 283 1401 283 1401 283 1266.5 c 128,-1,6
 283 1132 283 1132 364.5 1041.5 c 128,-1,7
 446 951 446 951 579 951 c 128,-1,0
 712 951 712 951 794 1042.5 c 128,-1,1
797 1634 m 1,8,-1
 884 1721 l 1,9,-1
 1034 1572 l 1,10,-1
 944 1482 l 1,11,12
 998 1385 998 1385 998 1266.5 c 128,-1,13
 998 1148 998 1148 944 1051 c 1,14,-1
 1034 961 l 1,15,-1
 884 812 l 1,16,-1
 795 900 l 1,17,18
 703 848 703 848 579 848 c 128,-1,19
 455 848 455 848 363 901 c 1,20,-1
 274 812 l 1,21,-1
 125 962 l 1,22,-1
 216 1053 l 1,23,24
 163 1151 163 1151 163 1267.5 c 128,-1,25
 163 1384 163 1384 215 1481 c 1,26,-1
 125 1571 l 1,27,-1
 274 1721 l 1,28,-1
 361 1633 l 1,29,30
 458 1688 458 1688 579 1688 c 128,-1,31
 700 1688 700 1688 797 1634 c 1,8,-1
EndSplineSet
EndChar

StartChar: yen
Encoding: 165 165 100
Width: 821
GlyphClass: 2
Flags: W
LayerCount: 2
UndoRedoHistory
Layer: 1
Undoes
EndUndoes
Redoes
EndRedoes
EndUndoRedoHistory
Fore
SplineSet
624 1760 m 1,0,-1
 778 1760 l 1,1,-1
 506 824 l 1,2,-1
 753 824 l 1,3,-1
 753 741 l 1,4,-1
 491 741 l 1,5,-1
 491 544 l 1,6,-1
 753 544 l 1,7,-1
 753 462 l 1,8,-1
 491 462 l 1,9,-1
 491 0 l 1,10,-1
 342 0 l 1,11,-1
 342 462 l 1,12,-1
 77 462 l 1,13,-1
 77 544 l 1,14,-1
 342 544 l 1,15,-1
 342 741 l 1,16,-1
 77 741 l 1,17,-1
 77 824 l 1,18,-1
 325 824 l 1,19,-1
 24 1760 l 1,20,-1
 174 1760 l 1,21,-1
 415 982 l 1,22,-1
 418 982 l 1,23,-1
 624 1760 l 1,0,-1
EndSplineSet
EndChar

StartChar: brokenbar
Encoding: 166 166 101
Width: 530
GlyphClass: 2
Flags: W
LayerCount: 2
UndoRedoHistory
Layer: 1
Undoes
EndUndoes
Redoes
EndRedoes
EndUndoRedoHistory
Fore
SplineSet
122 724 m 1,0,-1
 275 724 l 1,1,-1
 275 -84 l 1,2,-1
 122 -84 l 1,3,-1
 122 724 l 1,0,-1
122 1761 m 1,4,-1
 275 1761 l 1,5,-1
 275 931 l 1,6,-1
 122 931 l 1,7,-1
 122 1761 l 1,4,-1
EndSplineSet
EndChar

StartChar: section
Encoding: 167 167 102
Width: 817
GlyphClass: 2
Flags: W
LayerCount: 2
UndoRedoHistory
Layer: 1
Undoes
EndUndoes
Redoes
EndRedoes
EndUndoRedoHistory
Fore
SplineSet
585 682 m 1,0,1
 592 703 592 703 592 750 c 128,-1,2
 592 797 592 797 578 833 c 128,-1,3
 564 869 564 869 537 905.5 c 128,-1,4
 510 942 510 942 483 972.5 c 128,-1,5
 456 1003 456 1003 415.5 1047.5 c 128,-1,6
 375 1092 375 1092 349 1125 c 1,7,8
 336 1093 336 1093 336 1043.5 c 128,-1,9
 336 994 336 994 349 960 c 128,-1,10
 362 926 362 926 390.5 890 c 128,-1,11
 419 854 419 854 444 827 c 128,-1,12
 469 800 469 800 514 755 c 128,-1,13
 559 710 559 710 585 682 c 1,0,1
274 1227 m 1,14,15
 201 1344 201 1344 201 1443 c 0,16,17
 201 1606 201 1606 277.5 1693.5 c 128,-1,18
 354 1781 354 1781 470 1781 c 128,-1,19
 586 1781 586 1781 648 1734 c 0,20,21
 770 1642 770 1642 770 1300 c 2,22,-1
 770 1220 l 1,23,-1
 615 1220 l 1,24,-1
 615 1327 l 2,25,26
 615 1492 615 1492 585 1569 c 128,-1,27
 555 1646 555 1646 475 1646 c 0,28,29
 420 1646 420 1646 386 1598 c 128,-1,30
 352 1550 352 1550 352 1474 c 128,-1,31
 352 1398 352 1398 406.5 1320 c 128,-1,32
 461 1242 461 1242 533.5 1158.5 c 128,-1,33
 606 1075 606 1075 662.5 975.5 c 128,-1,34
 719 876 719 876 719 763 c 128,-1,35
 719 650 719 650 683 570 c 1,36,37
 791 433 791 433 791 325 c 0,38,39
 791 165 791 165 722 72.5 c 128,-1,40
 653 -20 653 -20 505 -20 c 128,-1,41
 357 -20 357 -20 283.5 82 c 128,-1,42
 210 184 210 184 210 407 c 2,43,-1
 210 536 l 1,44,-1
 363 536 l 1,45,-1
 363 433 l 2,46,47
 363 116 363 116 501 116 c 0,48,49
 577 116 577 116 607 155 c 128,-1,50
 637 194 637 194 637 300 c 128,-1,51
 637 406 637 406 552 502 c 0,52,53
 514 544 514 544 431.5 624 c 128,-1,54
 349 704 349 704 293 774 c 0,55,56
 208 880 208 880 208 1002.5 c 128,-1,57
 208 1125 208 1125 274 1227 c 1,14,15
EndSplineSet
EndChar

StartChar: dieresis
Encoding: 168 168 103
Width: 976
GlyphClass: 2
Flags: W
LayerCount: 2
UndoRedoHistory
Layer: 1
Undoes
EndUndoes
Redoes
EndRedoes
EndUndoRedoHistory
Fore
SplineSet
155 95 m 1,0,-1
 337 95 l 1,1,-1
 337 -38 l 1,2,-1
 155 -38 l 1,3,-1
 155 95 l 1,0,-1
585 95 m 1,4,-1
 767 95 l 1,5,-1
 767 -38 l 1,6,-1
 585 -38 l 1,7,-1
 585 95 l 1,4,-1
EndSplineSet
EndChar

StartChar: copyright
Encoding: 169 169 104
Width: 1466
GlyphClass: 2
Flags: W
LayerCount: 2
UndoRedoHistory
Layer: 1
Undoes
EndUndoes
Redoes
EndRedoes
EndUndoRedoHistory
Fore
SplineSet
1309 862 m 128,-1,1
 1309 1024 1309 1024 1233.5 1160 c 128,-1,2
 1158 1296 1158 1296 1025.5 1374.5 c 128,-1,3
 893 1453 893 1453 733 1453 c 128,-1,4
 573 1453 573 1453 440.5 1374.5 c 128,-1,5
 308 1296 308 1296 232.5 1160 c 128,-1,6
 157 1024 157 1024 157 862 c 128,-1,7
 157 700 157 700 232.5 564 c 128,-1,8
 308 428 308 428 440.5 349.5 c 128,-1,9
 573 271 573 271 733 271 c 128,-1,10
 893 271 893 271 1025.5 349.5 c 128,-1,11
 1158 428 1158 428 1233.5 564 c 128,-1,0
 1309 700 1309 700 1309 862 c 128,-1,1
509 1049 m 2,12,13
 509 1305 509 1305 728 1305 c 128,-1,14
 947 1305 947 1305 947 1109 c 2,15,-1
 947 976 l 1,16,-1
 850 976 l 1,17,-1
 850 1057 l 2,18,19
 850 1143 850 1143 825.5 1178.5 c 128,-1,20
 801 1214 801 1214 733.5 1214 c 128,-1,21
 666 1214 666 1214 641 1178 c 128,-1,22
 616 1142 616 1142 616 1070 c 2,23,-1
 616 653 l 2,24,25
 616 582 616 582 643.5 545 c 128,-1,26
 671 508 671 508 736 508 c 128,-1,27
 801 508 801 508 825.5 541 c 128,-1,28
 850 574 850 574 850 653 c 2,29,-1
 850 762 l 1,30,-1
 951 762 l 1,31,-1
 951 639 l 2,32,33
 951 526 951 526 902.5 475 c 128,-1,34
 854 424 854 424 736 424 c 0,35,36
 509 424 509 424 509 648 c 2,37,-1
 509 1049 l 2,12,13
76 862 m 128,-1,39
 76 1046 76 1046 162 1196.5 c 128,-1,40
 248 1347 248 1347 398.5 1433 c 128,-1,41
 549 1519 549 1519 733 1519 c 128,-1,42
 917 1519 917 1519 1067.5 1433 c 128,-1,43
 1218 1347 1218 1347 1304 1196.5 c 128,-1,44
 1390 1046 1390 1046 1390 862 c 128,-1,45
 1390 678 1390 678 1304 527.5 c 128,-1,46
 1218 377 1218 377 1067.5 291 c 128,-1,47
 917 205 917 205 733 205 c 128,-1,48
 549 205 549 205 398.5 291 c 128,-1,49
 248 377 248 377 162 527.5 c 128,-1,38
 76 678 76 678 76 862 c 128,-1,39
EndSplineSet
EndChar

StartChar: ordfeminine
Encoding: 170 170 105
Width: 927
GlyphClass: 2
Flags: W
LayerCount: 2
UndoRedoHistory
Layer: 1
Undoes
EndUndoes
Redoes
EndRedoes
EndUndoRedoHistory
Fore
SplineSet
247 1200 m 1,0,-1
 248 1233 l 1,1,2
 248 1398 248 1398 263 1444 c 0,3,4
 294 1539 294 1539 343.5 1573.5 c 128,-1,5
 393 1608 393 1608 464 1608 c 128,-1,6
 535 1608 535 1608 574 1598 c 0,7,8
 633 1582 633 1582 676 1500 c 0,9,10
 704 1447 704 1447 704 1254 c 2,11,-1
 704 389 l 1,12,-1
 584 389 l 1,13,-1
 584 481 l 1,14,15
 572 446 572 446 531.5 412.5 c 128,-1,16
 491 379 491 379 425 379 c 0,17,18
 234 379 234 379 234 692 c 2,19,-1
 234 845 l 2,20,21
 234 936 234 936 288 991.5 c 128,-1,22
 342 1047 342 1047 416.5 1082 c 128,-1,23
 491 1117 491 1117 531 1134 c 128,-1,24
 571 1151 571 1151 584 1157 c 1,25,-1
 584 1249 l 2,26,27
 584 1410 584 1410 573.5 1436.5 c 128,-1,28
 563 1463 563 1463 547 1483 c 128,-1,29
 531 1503 531 1503 469.5 1503 c 128,-1,30
 408 1503 408 1503 388 1446 c 128,-1,31
 368 1389 368 1389 368 1230 c 2,32,-1
 368 1200 l 1,33,-1
 247 1200 l 1,0,-1
584 558 m 1,34,-1
 584 1063 l 1,35,36
 423 991 423 991 391 954 c 128,-1,37
 359 917 359 917 355.5 878.5 c 128,-1,38
 352 840 352 840 352 799 c 2,39,-1
 352 702 l 2,40,41
 352 577 352 577 371.5 528 c 128,-1,42
 391 479 391 479 440.5 479 c 128,-1,43
 490 479 490 479 528.5 504.5 c 128,-1,44
 567 530 567 530 584 558 c 1,34,-1
EndSplineSet
EndChar

StartChar: guillemotleft
Encoding: 171 171 106
Width: 1304
GlyphClass: 2
Flags: W
LayerCount: 2
UndoRedoHistory
Layer: 1
Undoes
EndUndoes
Redoes
EndRedoes
EndUndoRedoHistory
Fore
SplineSet
76 794 m 1,0,-1
 542 1065 l 1,1,-1
 542 915 l 1,2,-1
 230 749 l 1,3,-1
 542 574 l 1,4,-1
 542 414 l 1,5,-1
 76 699 l 1,6,-1
 76 794 l 1,0,-1
599 794 m 1,7,-1
 1065 1065 l 1,8,-1
 1065 915 l 1,9,-1
 753 749 l 1,10,-1
 1065 574 l 1,11,-1
 1065 414 l 1,12,-1
 599 699 l 1,13,-1
 599 794 l 1,7,-1
EndSplineSet
EndChar

StartChar: logicalnot
Encoding: 172 172 107
Width: 947
GlyphClass: 2
Flags: W
LayerCount: 2
UndoRedoHistory
Layer: 1
Undoes
EndUndoes
Redoes
EndRedoes
EndUndoRedoHistory
Fore
SplineSet
97 858 m 1,0,-1
 826 858 l 1,1,-1
 826 439 l 1,2,-1
 701 439 l 1,3,-1
 701 743 l 1,4,-1
 97 743 l 1,5,-1
 97 858 l 1,0,-1
EndSplineSet
EndChar

StartChar: uni00AD
Encoding: 173 173 108
Width: 696
GlyphClass: 2
Flags: W
LayerCount: 2
UndoRedoHistory
Layer: 1
Undoes
EndUndoes
Redoes
EndRedoes
EndUndoRedoHistory
Fore
SplineSet
90 741 m 1,0,-1
 606 741 l 1,1,-1
 606 626 l 1,2,-1
 90 626 l 1,3,-1
 90 741 l 1,0,-1
EndSplineSet
EndChar

StartChar: registered
Encoding: 174 174 109
Width: 1502
GlyphClass: 2
Flags: W
LayerCount: 2
UndoRedoHistory
Layer: 1
Undoes
EndUndoes
Redoes
EndRedoes
EndUndoRedoHistory
Fore
SplineSet
1309 862 m 128,-1,1
 1309 1024 1309 1024 1233.5 1160 c 128,-1,2
 1158 1296 1158 1296 1025.5 1374.5 c 128,-1,3
 893 1453 893 1453 733 1453 c 128,-1,4
 573 1453 573 1453 440.5 1374.5 c 128,-1,5
 308 1296 308 1296 232.5 1160 c 128,-1,6
 157 1024 157 1024 157 862 c 128,-1,7
 157 700 157 700 232.5 564 c 128,-1,8
 308 428 308 428 440.5 349.5 c 128,-1,9
 573 271 573 271 733 271 c 128,-1,10
 893 271 893 271 1025.5 349.5 c 128,-1,11
 1158 428 1158 428 1233.5 564 c 128,-1,0
 1309 700 1309 700 1309 862 c 128,-1,1
76 862 m 128,-1,13
 76 1046 76 1046 162 1196.5 c 128,-1,14
 248 1347 248 1347 398.5 1433 c 128,-1,15
 549 1519 549 1519 733 1519 c 128,-1,16
 917 1519 917 1519 1067.5 1433 c 128,-1,17
 1218 1347 1218 1347 1304 1196.5 c 128,-1,18
 1390 1046 1390 1046 1390 862 c 128,-1,19
 1390 678 1390 678 1304 527.5 c 128,-1,20
 1218 377 1218 377 1067.5 291 c 128,-1,21
 917 205 917 205 733 205 c 128,-1,22
 549 205 549 205 398.5 291 c 128,-1,23
 248 377 248 377 162 527.5 c 128,-1,12
 76 678 76 678 76 862 c 128,-1,13
726 951 m 2,24,25
 727 951 727 951 728 951 c 0,26,27
 863 951 863 951 863 1086 c 0,28,29
 863 1158 863 1158 820 1184 c 128,-1,30
 777 1210 777 1210 648 1210 c 1,31,-1
 648 951 l 1,32,-1
 726 951 l 2,24,25
753 866 m 2,33,-1
 647 864 l 1,34,-1
 647 446 l 1,35,-1
 527 446 l 1,36,-1
 527 1298 l 1,37,-1
 740 1298 l 2,38,39
 856 1298 856 1298 918.5 1246 c 128,-1,40
 981 1194 981 1194 981 1071.5 c 128,-1,41
 981 949 981 949 858 910 c 1,42,43
 902 902 902 902 934.5 869.5 c 128,-1,44
 967 837 967 837 967 787 c 2,45,-1
 967 446 l 1,46,-1
 849 446 l 1,47,-1
 849 748 l 2,48,49
 849 825 849 825 817 845.5 c 128,-1,50
 785 866 785 866 753 866 c 2,33,-1
EndSplineSet
EndChar

StartChar: macron
Encoding: 175 175 110
Width: 696
GlyphClass: 2
Flags: W
LayerCount: 2
UndoRedoHistory
Layer: 1
Undoes
EndUndoes
Redoes
EndRedoes
EndUndoRedoHistory
Fore
SplineSet
90 43 m 1,0,-1
 585 43 l 1,1,-1
 585 -70 l 1,2,-1
 90 -70 l 1,3,-1
 90 43 l 1,0,-1
EndSplineSet
EndChar

StartChar: degree
Encoding: 176 176 111
Width: 915
GlyphClass: 2
Flags: W
LayerCount: 2
UndoRedoHistory
Layer: 1
Undoes
EndUndoes
Redoes
EndRedoes
EndUndoRedoHistory
Fore
SplineSet
689 1269 m 128,-1,1
 689 1329 689 1329 669.5 1377.5 c 128,-1,2
 650 1426 650 1426 616.5 1455.5 c 128,-1,3
 583 1485 583 1485 542.5 1500.5 c 128,-1,4
 502 1516 502 1516 457.5 1516 c 128,-1,5
 413 1516 413 1516 372.5 1500.5 c 128,-1,6
 332 1485 332 1485 299 1455.5 c 128,-1,7
 266 1426 266 1426 246.5 1377.5 c 128,-1,8
 227 1329 227 1329 227 1269 c 128,-1,9
 227 1209 227 1209 246.5 1160.5 c 128,-1,10
 266 1112 266 1112 299.5 1082.5 c 128,-1,11
 333 1053 333 1053 373.5 1037.5 c 128,-1,12
 414 1022 414 1022 458.5 1022 c 128,-1,13
 503 1022 503 1022 543.5 1037.5 c 128,-1,14
 584 1053 584 1053 617 1082.5 c 128,-1,15
 650 1112 650 1112 669.5 1160.5 c 128,-1,0
 689 1209 689 1209 689 1269 c 128,-1,1
457.5 1603 m 128,-1,17
 591 1603 591 1603 696 1517.5 c 128,-1,18
 801 1432 801 1432 801 1272.5 c 128,-1,19
 801 1113 801 1113 699.5 1024 c 128,-1,20
 598 935 598 935 460.5 935 c 128,-1,21
 323 935 323 935 218.5 1020 c 128,-1,22
 114 1105 114 1105 114 1268.5 c 128,-1,23
 114 1432 114 1432 219 1517.5 c 128,-1,16
 324 1603 324 1603 457.5 1603 c 128,-1,17
EndSplineSet
EndChar

StartChar: plusminus
Encoding: 177 177 112
Width: 854
GlyphClass: 2
Flags: W
LayerCount: 2
UndoRedoHistory
Layer: 1
Undoes
EndUndoes
Redoes
EndRedoes
EndUndoRedoHistory
Fore
SplineSet
173 377 m 1,0,-1
 689 377 l 1,1,-1
 689 259 l 1,2,-1
 173 259 l 1,3,-1
 173 377 l 1,0,-1
368 1185 m 1,4,-1
 486 1185 l 1,5,-1
 486 926 l 1,6,-1
 720 926 l 1,7,-1
 720 820 l 1,8,-1
 486 820 l 1,9,-1
 486 554 l 1,10,-1
 368 554 l 1,11,-1
 368 820 l 1,12,-1
 138 820 l 1,13,-1
 138 926 l 1,14,-1
 368 926 l 1,15,-1
 368 1185 l 1,4,-1
EndSplineSet
EndChar

StartChar: uni00B2
Encoding: 178 178 113
Width: 861
GlyphClass: 2
Flags: W
LayerCount: 2
UndoRedoHistory
Layer: 1
Undoes
EndUndoes
Redoes
EndRedoes
EndUndoRedoHistory
Fore
SplineSet
507 1135 m 1,0,1
 560 1251 560 1251 560 1440 c 0,2,3
 560 1528 560 1528 547 1587.5 c 128,-1,4
 534 1647 534 1647 516 1664 c 128,-1,5
 498 1681 498 1681 474 1681 c 0,6,7
 429 1681 429 1681 402 1630.5 c 128,-1,8
 375 1580 375 1580 375 1410 c 2,9,-1
 375 1232 l 1,10,-1
 259 1232 l 1,11,-1
 260 1314 l 1,12,13
 260 1486 260 1486 266 1527 c 1,14,15
 270 1568 270 1568 276 1602 c 0,16,17
 294 1709 294 1709 372 1753 c 0,18,19
 416 1778 416 1778 476 1778 c 0,20,21
 618 1778 618 1778 651 1620 c 0,22,23
 670 1527 670 1527 670 1417 c 0,24,25
 670 1222 670 1222 576 1032 c 0,26,27
 536 950 536 950 494 870 c 0,28,29
 392 671 392 671 375 498 c 1,30,-1
 651 498 l 1,31,-1
 651 420 l 1,32,-1
 264 420 l 1,33,-1
 264 492 l 2,34,35
 264 546 264 546 460 1017 c 0,36,37
 507.078431373 1130.37254902 507.078431373 1130.37254902 507.078431373 1134.81853133 c 0,38,39
 507.078431373 1135 507.078431373 1135 507 1135 c 1,0,1
EndSplineSet
EndChar

StartChar: uni00B3
Encoding: 179 179 114
Width: 880
GlyphClass: 2
Flags: W
LayerCount: 2
UndoRedoHistory
Layer: 1
Undoes
EndUndoes
Redoes
EndRedoes
EndUndoRedoHistory
Fore
SplineSet
530 1181 m 1,0,1
 651 1127 651 1127 651 844 c 0,2,3
 651 705 651 705 599.5 623.5 c 128,-1,4
 548 542 548 542 437.5 542 c 128,-1,5
 327 542 327 542 280 623.5 c 128,-1,6
 233 705 233 705 233 880 c 2,7,-1
 233 909 l 1,8,-1
 333 909 l 1,9,-1
 333 879 l 2,10,11
 333 726 333 726 352.5 676 c 128,-1,12
 372 626 372 626 438 626 c 128,-1,13
 504 626 504 626 528.5 681 c 128,-1,14
 553 736 553 736 553 882.5 c 128,-1,15
 553 1029 553 1029 520.5 1084.5 c 128,-1,16
 488 1140 488 1140 410 1140 c 2,17,-1
 379 1140 l 1,18,-1
 379 1227 l 1,19,-1
 408 1227 l 2,20,21
 449 1227 449 1227 472.5 1234 c 128,-1,22
 496 1241 496 1241 516 1265 c 0,23,24
 550 1307 550 1307 550 1479 c 128,-1,25
 550 1651 550 1651 480 1681 c 0,26,27
 462 1689 462 1689 433 1689 c 128,-1,28
 404 1689 404 1689 384 1672 c 0,29,30
 338 1633 338 1633 337 1459 c 1,31,-1
 337 1437 l 1,32,-1
 237 1437 l 1,33,-1
 237 1460 l 2,34,35
 237 1621 237 1621 282.5 1698 c 128,-1,36
 328 1775 328 1775 438.5 1775 c 128,-1,37
 549 1775 549 1775 599 1697 c 128,-1,38
 649 1619 649 1619 649 1460 c 0,39,40
 649 1227 649 1227 530 1181 c 1,0,1
EndSplineSet
EndChar

StartChar: acute
Encoding: 180 180 115
Width: 650
GlyphClass: 2
Flags: W
LayerCount: 2
UndoRedoHistory
Layer: 1
Undoes
EndUndoes
Redoes
EndRedoes
EndUndoRedoHistory
Fore
SplineSet
100 1989 m 1,0,-1
 498 2147 l 1,1,-1
 498 2003 l 1,2,-1
 100 1920 l 1,3,-1
 100 1989 l 1,0,-1
EndSplineSet
EndChar

StartChar: paragraph
Encoding: 182 182 116
Width: 1119
GlyphClass: 2
Flags: W
LayerCount: 2
UndoRedoHistory
Layer: 1
Undoes
EndUndoes
Redoes
EndRedoes
EndUndoRedoHistory
Fore
SplineSet
666 1761 m 2,0,-1
 942 1761 l 1,1,-1
 942 0 l 1,2,-1
 779 0 l 1,3,-1
 779 1620 l 1,4,-1
 636 1620 l 1,5,-1
 636 0 l 1,6,-1
 473 0 l 1,7,-1
 473 1180 l 1,8,9
 320 1197 320 1197 239.5 1272.5 c 128,-1,10
 159 1348 159 1348 159 1468 c 128,-1,11
 159 1588 159 1588 202.5 1647.5 c 128,-1,12
 246 1707 246 1707 354 1734 c 128,-1,13
 462 1761 462 1761 666 1761 c 2,0,-1
EndSplineSet
EndChar

StartChar: periodcentered
Encoding: 183 183 117
Width: 480
GlyphClass: 2
Flags: W
LayerCount: 2
UndoRedoHistory
Layer: 1
Undoes
EndUndoes
Redoes
EndRedoes
EndUndoRedoHistory
Fore
SplineSet
163 961 m 1,0,-1
 333 961 l 1,1,-1
 333 786 l 1,2,-1
 163 786 l 1,3,-1
 163 961 l 1,0,-1
EndSplineSet
EndChar

StartChar: cedilla
Encoding: 184 184 118
Width: 1015
GlyphClass: 2
Flags: W
LayerCount: 2
UndoRedoHistory
Layer: 1
Undoes
EndUndoes
Redoes
EndRedoes
EndUndoRedoHistory
Fore
SplineSet
383 -501 m 1,0,1
 614 -501 614 -501 614 -360 c 0,2,3
 614 -296 614 -296 567.5 -253.5 c 128,-1,4
 521 -211 521 -211 454 -196 c 1,5,-1
 494 0 l 1,6,-1
 551 0 l 1,7,-1
 560 -147 l 1,8,9
 739 -237 739 -237 739 -389 c 0,10,11
 739 -465 739 -465 662 -530.5 c 128,-1,12
 585 -596 585 -596 470 -596 c 0,13,14
 430 -596 430 -596 383 -587 c 1,15,-1
 383 -501 l 1,0,1
EndSplineSet
EndChar

StartChar: uni00B9
Encoding: 185 185 119
Width: 626
GlyphClass: 2
Flags: W
LayerCount: 2
UndoRedoHistory
Layer: 1
Undoes
EndUndoes
Redoes
EndRedoes
EndUndoRedoHistory
Fore
SplineSet
309 1759 m 1,0,-1
 377 1759 l 1,1,-1
 377 414 l 1,2,-1
 266 414 l 1,3,-1
 266 1585 l 1,4,5
 242 1553 242 1553 195 1535 c 128,-1,6
 148 1517 148 1517 103 1517 c 1,7,-1
 103 1591 l 1,8,9
 166 1601 166 1601 221 1643.5 c 128,-1,10
 276 1686 276 1686 309 1759 c 1,0,-1
EndSplineSet
EndChar

StartChar: ordmasculine
Encoding: 186 186 120
Width: 908
GlyphClass: 2
Flags: W
LayerCount: 2
UndoRedoHistory
Layer: 1
Undoes
EndUndoes
Redoes
EndRedoes
EndUndoRedoHistory
Fore
SplineSet
590 1234 m 2,0,1
 590 1442 590 1442 536 1484 c 0,2,3
 512 1502 512 1502 479 1502 c 0,4,5
 389 1502 389 1502 370 1401 c 0,6,7
 358 1338 358 1338 358 1234 c 2,8,-1
 358 760 l 2,9,10
 358 607 358 607 371.5 570 c 128,-1,11
 385 533 385 533 404 505.5 c 128,-1,12
 423 478 423 478 468.5 478 c 128,-1,13
 514 478 514 478 537 497 c 0,14,15
 590 541 590 541 590 760 c 2,16,-1
 590 1234 l 2,0,1
239 1205 m 2,17,18
 239 1415 239 1415 277.5 1492.5 c 128,-1,19
 316 1570 316 1570 384 1594 c 0,20,21
 421 1607 421 1607 449.5 1607 c 128,-1,22
 478 1607 478 1607 482 1607 c 0,23,24
 596 1607 596 1607 653 1531 c 128,-1,25
 710 1455 710 1455 710 1205 c 2,26,-1
 710 801 l 2,27,28
 710 544 710 544 666 471 c 0,29,30
 608 374 608 374 499.5 374 c 128,-1,31
 391 374 391 374 356.5 398.5 c 128,-1,32
 322 423 322 423 304 443 c 128,-1,33
 286 463 286 463 262.5 527.5 c 128,-1,34
 239 592 239 592 239 801 c 2,35,-1
 239 1205 l 2,17,18
EndSplineSet
EndChar

StartChar: guillemotright
Encoding: 187 187 121
Width: 1304
GlyphClass: 2
Flags: W
LayerCount: 2
UndoRedoHistory
Layer: 1
Undoes
EndUndoes
Redoes
EndRedoes
EndUndoRedoHistory
Fore
SplineSet
193 915 m 1,0,-1
 193 1065 l 1,1,-1
 659 794 l 1,2,-1
 659 699 l 1,3,-1
 193 414 l 1,4,-1
 193 574 l 1,5,-1
 505 749 l 1,6,-1
 193 915 l 1,0,-1
716 915 m 1,7,-1
 716 1065 l 1,8,-1
 1182 794 l 1,9,-1
 1182 699 l 1,10,-1
 716 414 l 1,11,-1
 716 574 l 1,12,-1
 1028 749 l 1,13,-1
 716 915 l 1,7,-1
EndSplineSet
EndChar

StartChar: onequarter
Encoding: 188 188 122
Width: 1535
GlyphClass: 2
Flags: W
LayerCount: 2
UndoRedoHistory
Layer: 1
Undoes
EndUndoes
Redoes
EndRedoes
EndUndoRedoHistory
Fore
SplineSet
1192 1224 m 1,0,-1
 1284 1224 l 1,1,-1
 1284 326 l 1,2,-1
 1393 326 l 1,3,-1
 1393 244 l 1,4,-1
 1284 244 l 1,5,-1
 1284 0 l 1,6,-1
 1188 0 l 1,7,-1
 1188 244 l 1,8,-1
 916 244 l 1,9,-1
 916 314 l 1,10,-1
 1192 1224 l 1,0,-1
1188 326 m 1,11,-1
 1188 989 l 1,12,-1
 1007 326 l 1,13,-1
 1188 326 l 1,11,-1
312 1774 m 1,14,-1
 383 1774 l 1,15,-1
 383 416 l 1,16,-1
 267 416 l 1,17,-1
 267 1597 l 1,18,19
 242 1565 242 1565 194 1547 c 128,-1,20
 146 1529 146 1529 100 1529 c 1,21,-1
 100 1604 l 1,22,23
 165 1614 165 1614 222 1657 c 128,-1,24
 279 1700 279 1700 312 1774 c 1,14,-1
948 1768 m 1,25,-1
 1068 1768 l 1,26,-1
 607 0 l 1,27,-1
 489 0 l 1,28,-1
 948 1768 l 1,25,-1
EndSplineSet
EndChar

StartChar: onehalf
Encoding: 189 189 123
Width: 1620
GlyphClass: 2
Flags: W
LayerCount: 2
UndoRedoHistory
Layer: 1
Undoes
EndUndoes
Redoes
EndRedoes
EndUndoRedoHistory
Fore
SplineSet
1377 724 m 1,0,1
 1431 836 1431 836 1431 1030 c 0,2,3
 1431 1118 1431 1118 1418 1178.5 c 128,-1,4
 1405 1239 1405 1239 1387 1256 c 128,-1,5
 1369 1273 1369 1273 1344 1273 c 0,6,7
 1299 1273 1299 1273 1271.5 1222 c 128,-1,8
 1244 1171 1244 1171 1244 1001 c 2,9,-1
 1244 821 l 1,10,-1
 1127 821 l 1,11,-1
 1127 904 l 1,12,13
 1128 1198 1128 1198 1170 1274 c 0,14,15
 1225 1372 1225 1372 1332.5 1372 c 128,-1,16
 1440 1372 1440 1372 1480.5 1312 c 128,-1,17
 1521 1252 1521 1252 1532 1174 c 128,-1,18
 1543 1096 1543 1096 1543 996.5 c 128,-1,19
 1543 897 1543 897 1515.5 799.5 c 128,-1,20
 1488 702 1488 702 1447.5 619.5 c 128,-1,21
 1407 537 1407 537 1365 456 c 0,22,23
 1261 256 1261 256 1245 82 c 1,24,-1
 1523 82 l 1,25,-1
 1523 1 l 1,26,-1
 1131 1 l 1,27,-1
 1131 74 l 2,28,29
 1131 131 1131 131 1331 609 c 0,30,31
 1377.08 719.4 1377.08 719.4 1377.08 723.816 c 0,32,33
 1377.08 724 1377.08 724 1377 724 c 1,0,1
312 1774 m 1,34,-1
 383 1774 l 1,35,-1
 383 416 l 1,36,-1
 267 416 l 1,37,-1
 267 1597 l 1,38,39
 242 1565 242 1565 194 1547 c 128,-1,40
 146 1529 146 1529 100 1529 c 1,41,-1
 100 1604 l 1,42,43
 165 1614 165 1614 222 1657 c 128,-1,44
 279 1700 279 1700 312 1774 c 1,34,-1
948 1768 m 1,45,-1
 1068 1768 l 1,46,-1
 607 0 l 1,47,-1
 489 0 l 1,48,-1
 948 1768 l 1,45,-1
EndSplineSet
EndChar

StartChar: threequarters
Encoding: 190 190 124
Width: 1555
GlyphClass: 2
Flags: W
LayerCount: 2
UndoRedoHistory
Layer: 1
Undoes
EndUndoes
Redoes
EndRedoes
EndUndoRedoHistory
Fore
SplineSet
1212 1224 m 1,0,-1
 1304 1224 l 1,1,-1
 1304 326 l 1,2,-1
 1413 326 l 1,3,-1
 1413 244 l 1,4,-1
 1304 244 l 1,5,-1
 1304 0 l 1,6,-1
 1208 0 l 1,7,-1
 1208 244 l 1,8,-1
 936 244 l 1,9,-1
 936 314 l 1,10,-1
 1212 1224 l 1,0,-1
1208 326 m 1,11,-1
 1208 989 l 1,12,-1
 1027 326 l 1,13,-1
 1208 326 l 1,11,-1
461 1199 m 1,14,15
 585 1142 585 1142 585 858 c 0,16,17
 585 716 585 716 531.5 633.5 c 128,-1,18
 478 551 478 551 363.5 551 c 128,-1,19
 249 551 249 551 200.5 633 c 128,-1,20
 152 715 152 715 152 893 c 2,21,-1
 152 924 l 1,22,-1
 257 924 l 1,23,-1
 257 893 l 2,24,25
 257 739 257 739 277 688.5 c 128,-1,26
 297 638 297 638 364 638 c 128,-1,27
 431 638 431 638 455.5 693.5 c 128,-1,28
 480 749 480 749 480 896.5 c 128,-1,29
 480 1044 480 1044 447 1100.5 c 128,-1,30
 414 1157 414 1157 334 1157 c 2,31,-1
 303 1157 l 1,32,-1
 303 1244 l 1,33,-1
 334 1244 l 2,34,35
 390 1244 390 1244 418 1259 c 0,36,37
 478 1291 478 1291 478 1458.5 c 128,-1,38
 478 1626 478 1626 445.5 1668.5 c 128,-1,39
 413 1711 413 1711 362 1711 c 128,-1,40
 311 1711 311 1711 286 1662.5 c 128,-1,41
 261 1614 261 1614 261 1480 c 2,42,-1
 261 1457 l 1,43,-1
 156 1457 l 1,44,-1
 156 1481 l 2,45,46
 156 1644 156 1644 203.5 1722 c 128,-1,47
 251 1800 251 1800 365 1800 c 128,-1,48
 479 1800 479 1800 531 1721 c 128,-1,49
 583 1642 583 1642 583 1481 c 0,50,51
 583 1245 583 1245 461 1199 c 1,14,15
1013 1768 m 1,52,-1
 1133 1768 l 1,53,-1
 673 0 l 1,54,-1
 554 0 l 1,55,-1
 1013 1768 l 1,52,-1
EndSplineSet
EndChar

StartChar: AE
Encoding: 198 198 132
Width: 1124
GlyphClass: 2
Flags: W
LayerCount: 2
UndoRedoHistory
Layer: 1
Undoes
EndUndoes
Redoes
EndRedoes
EndUndoRedoHistory
Fore
SplineSet
564 483 m 1,0,-1
 564 1646 l 1,1,-1
 546 1645 l 1,2,-1
 301 483 l 1,3,-1
 564 483 l 1,0,-1
446 1760 m 1,4,-1
 1038 1760 l 1,5,-1
 1038 1644 l 1,6,-1
 713 1644 l 1,7,-1
 713 956 l 1,8,-1
 1019 956 l 1,9,-1
 1019 836 l 1,10,-1
 713 836 l 1,11,-1
 713 118 l 1,12,-1
 1035 118 l 1,13,-1
 1035 0 l 1,14,-1
 564 0 l 1,15,-1
 564 357 l 1,16,-1
 272 357 l 1,17,-1
 196 0 l 1,18,-1
 56 0 l 1,19,-1
 446 1760 l 1,4,-1
EndSplineSet
EndChar

StartChar: multiply
Encoding: 215 215 149
Width: 710
GlyphClass: 2
Flags: W
LayerCount: 2
UndoRedoHistory
Layer: 1
Undoes
EndUndoes
Redoes
EndRedoes
EndUndoRedoHistory
Fore
SplineSet
542 936 m 1,0,-1
 626 852 l 1,1,-1
 438 665 l 1,2,-1
 626 478 l 1,3,-1
 542 394 l 1,4,-1
 355 582 l 1,5,-1
 168 394 l 1,6,-1
 84 478 l 1,7,-1
 272 665 l 1,8,-1
 84 852 l 1,9,-1
 168 936 l 1,10,-1
 355 748 l 1,11,-1
 542 936 l 1,0,-1
EndSplineSet
EndChar

StartChar: Oslash
Encoding: 216 216 150
Width: 900
GlyphClass: 2
Flags: W
LayerCount: 2
UndoRedoHistory
Layer: 1
Undoes
EndUndoes
Redoes
EndRedoes
EndUndoRedoHistory
Fore
SplineSet
602 1384 m 1,0,1
 596 1513 596 1513 574 1575 c 0,2,3
 544 1660 544 1660 449.5 1660 c 128,-1,4
 355 1660 355 1660 319 1572.5 c 128,-1,5
 283 1485 283 1485 283 1281 c 2,6,-1
 283 519 l 2,7,8
 283 498 283 498 283 478 c 1,9,-1
 602 1384 l 1,0,1
305 216 m 1,10,11
 327 144 327 144 360.5 123 c 128,-1,12
 394 102 394 102 444 102 c 128,-1,13
 494 102 494 102 524 121 c 128,-1,14
 554 140 554 140 579 207.5 c 128,-1,15
 604 275 604 275 604 519 c 2,16,-1
 604 1058 l 1,17,-1
 305 216 l 1,10,11
173 163 m 1,18,19
 134 288 134 288 134 519 c 2,20,-1
 134 1268 l 2,21,22
 134 1587 134 1587 214 1684.5 c 128,-1,23
 294 1782 294 1782 464 1782 c 128,-1,24
 634 1782 634 1782 698 1658 c 1,25,-1
 785 1906 l 1,26,-1
 892 1870 l 1,27,-1
 746 1459 l 1,28,29
 753 1376 753 1376 753 1268 c 2,30,-1
 753 519 l 2,31,32
 753 290 753 290 725.5 196.5 c 128,-1,33
 698 103 698 103 664 63 c 0,34,35
 592 -20 592 -20 454.5 -20 c 128,-1,36
 317 -20 317 -20 245 45 c 1,37,-1
 156 -206 l 1,38,-1
 57 -166 l 1,39,-1
 173 163 l 1,18,19
EndSplineSet
EndChar

StartChar: Thorn
Encoding: 222 222 156
Width: 876
GlyphClass: 2
Flags: W
LayerCount: 2
UndoRedoHistory
Layer: 1
Undoes
EndUndoes
Redoes
EndRedoes
EndUndoRedoHistory
Fore
SplineSet
640 1008 m 2,0,1
 640 1211 640 1211 610 1294 c 128,-1,2
 580 1377 580 1377 491 1377 c 2,3,-1
 326 1377 l 1,4,-1
 326 560 l 1,5,-1
 485 560 l 2,6,7
 577 560 577 560 608.5 646.5 c 128,-1,8
 640 733 640 733 640 972 c 2,9,-1
 640 1008 l 2,0,1
177 1760 m 1,10,-1
 326 1760 l 1,11,-1
 326 1501 l 1,12,-1
 483 1501 l 2,13,14
 656 1501 656 1501 722 1394 c 0,15,16
 765 1323 765 1323 776.5 1228 c 128,-1,17
 788 1133 788 1133 788 993 c 2,18,-1
 788 973 l 2,19,20
 788 744 788 744 759 651 c 128,-1,21
 730 558 730 558 694 518 c 0,22,23
 621 434 621 434 474 434 c 2,24,-1
 326 434 l 1,25,-1
 326 0 l 1,26,-1
 177 0 l 1,27,-1
 177 1760 l 1,10,-1
EndSplineSet
EndChar

StartChar: germandbls
Encoding: 223 223 157
Width: 933
GlyphClass: 2
Flags: W
LayerCount: 2
UndoRedoHistory
Layer: 1
Undoes
EndUndoes
Redoes
EndRedoes
EndUndoRedoHistory
Fore
SplineSet
153 1417 m 2,0,1
 153 1556 153 1556 158.5 1589.5 c 128,-1,2
 164 1623 164 1623 172 1650 c 0,3,4
 208 1781 208 1781 445 1781 c 0,5,6
 543 1781 543 1781 605.5 1764.5 c 128,-1,7
 668 1748 668 1748 706 1704.5 c 128,-1,8
 744 1661 744 1661 757.5 1594 c 128,-1,9
 771 1527 771 1527 771 1417 c 2,10,-1
 771 1220 l 2,11,12
 771 1091 771 1091 736 1034 c 128,-1,13
 701 977 701 977 602 945 c 1,14,15
 692 923 692 923 740.5 882.5 c 128,-1,16
 789 842 789 842 810 765 c 128,-1,17
 831 688 831 688 831 553 c 2,18,-1
 831 476 l 2,19,20
 831 285 831 285 814 208.5 c 128,-1,21
 797 132 797 132 762 87 c 0,22,23
 694 0 694 0 518 0 c 2,24,-1
 414 0 l 1,25,-1
 414 127 l 1,26,27
 544 127 544 127 584 141 c 128,-1,28
 624 155 624 155 639.5 170.5 c 128,-1,29
 655 186 655 186 669 227 c 128,-1,30
 683 268 683 268 683 395 c 2,31,-1
 683 656 l 2,32,33
 683 780 683 780 628.5 824.5 c 128,-1,34
 574 869 574 869 423 869 c 1,35,-1
 423 1007 l 1,36,37
 538 1007 538 1007 583 1041.5 c 128,-1,38
 628 1076 628 1076 628 1170 c 2,39,-1
 628 1500 l 2,40,41
 628 1609 628 1609 591.5 1648 c 128,-1,42
 555 1687 555 1687 460.5 1687 c 128,-1,43
 366 1687 366 1687 333 1647.5 c 128,-1,44
 300 1608 300 1608 300 1500 c 2,45,-1
 300 0 l 1,46,-1
 153 0 l 1,47,-1
 153 1417 l 2,0,1
EndSplineSet
EndChar

StartChar: ae
Encoding: 230 230 164
Width: 1265
GlyphClass: 2
Flags: W
LayerCount: 2
UndoRedoHistory
Layer: 1
Undoes
EndUndoes
Redoes
EndRedoes
EndUndoRedoHistory
Fore
SplineSet
1000 874 m 1,0,-1
 1000 1082 l 2,1,2
 1000 1271 1000 1271 988.5 1299.5 c 128,-1,3
 977 1328 977 1328 959 1357.5 c 128,-1,4
 941 1387 941 1387 876.5 1387 c 128,-1,5
 812 1387 812 1387 780 1344 c 128,-1,6
 748 1301 748 1301 738.5 1233.5 c 128,-1,7
 729 1166 729 1166 729 1063 c 2,8,-1
 729 874 l 1,9,-1
 1000 874 l 1,0,-1
580 211 m 1,10,-1
 580 840 l 1,11,12
 416 764 416 764 390 744 c 128,-1,13
 364 724 364 724 344 705 c 0,14,15
 292 655 292 655 292 511 c 2,16,-1
 292 390 l 2,17,18
 292 234 292 234 316 173 c 128,-1,19
 340 112 340 112 402 112 c 128,-1,20
 464 112 464 112 512 143.5 c 128,-1,21
 560 175 560 175 580 211 c 1,10,-1
450 1518 m 0,22,23
 610 1518 610 1518 655 1427 c 1,24,25
 727 1518 727 1518 869.5 1518 c 128,-1,26
 1012 1518 1012 1518 1061.5 1455 c 128,-1,27
 1111 1392 1111 1392 1130 1307.5 c 128,-1,28
 1149 1223 1149 1223 1149 1002 c 2,29,-1
 1150 754 l 1,30,-1
 729 754 l 1,31,-1
 729 443 l 1,32,33
 730 272 730 272 744 216 c 0,34,35
 771 113 771 113 856 113 c 0,36,37
 857 113 857 113 858 113 c 1,38,39
 896 112 896 112 916 120 c 0,40,41
 985 146 985 146 996 279 c 0,42,43
 1000 334 1000 334 1000 439 c 2,44,-1
 1000 556 l 1,45,-1
 1145 556 l 1,46,-1
 1145 505 l 2,47,48
 1145 262 1145 262 1134 218 c 0,49,50
 1103 91 1103 91 1079.5 68 c 128,-1,51
 1056 45 1056 45 1028 22 c 0,52,53
 978 -18 978 -18 868 -18 c 0,54,55
 693 -18 693 -18 626 103 c 1,56,57
 565 44 565 44 490 16.5 c 128,-1,58
 415 -11 415 -11 372 -11 c 0,59,60
 144 -11 144 -11 144 375 c 2,61,-1
 144 566 l 2,62,63
 144 692 144 692 230 768 c 0,64,65
 318 844 318 844 516 928 c 0,66,67
 564 948 564 948 580 956 c 1,68,-1
 580 1065 l 2,69,70
 580 1271 580 1271 567.5 1302.5 c 128,-1,71
 555 1334 555 1334 536 1361 c 128,-1,72
 517 1388 517 1388 451 1388 c 0,73,74
 339 1388 339 1388 323 1270 c 0,75,76
 312 1183 312 1183 312 1047 c 2,77,-1
 312 1011 l 1,78,-1
 162 1011 l 1,79,-1
 162 1051 l 2,80,81
 162 1262 162 1262 180 1316 c 0,82,83
 219 1431 219 1431 279.5 1474.5 c 128,-1,84
 340 1518 340 1518 450 1518 c 0,22,23
EndSplineSet
EndChar

StartChar: eth
Encoding: 240 240 174
Width: 926
GlyphClass: 2
Flags: W
LayerCount: 2
UndoRedoHistory
Layer: 1
Undoes
EndUndoes
Redoes
EndRedoes
EndUndoRedoHistory
Fore
SplineSet
616 926 m 1,0,1
 613 927 613 927 555.5 952.5 c 128,-1,2
 498 978 498 978 427 978 c 0,3,4
 328 978 328 978 295 886.5 c 128,-1,5
 262 795 262 795 262 545 c 2,6,-1
 262 446 l 2,7,8
 262 305 262 305 277.5 234 c 128,-1,9
 293 163 293 163 328.5 135 c 128,-1,10
 364 107 364 107 433 107 c 0,11,12
 541 107 541 107 578.5 196.5 c 128,-1,13
 616 286 616 286 616 505 c 2,14,-1
 616 926 l 1,0,1
545 1534 m 1,15,16
 455 1640 455 1640 309 1640 c 0,17,18
 302 1640 302 1640 295 1640 c 1,19,-1
 295 1780 l 1,20,-1
 310 1780 l 2,21,22
 554 1780 554 1780 680 1616 c 1,23,-1
 880 1735 l 1,24,-1
 933 1635 l 1,25,-1
 734 1516 l 1,26,27
 750 1468 750 1468 765 958 c 1,28,-1
 765 506 l 2,29,30
 765 202 765 202 668 80 c 0,31,32
 589 -20 589 -20 418 -20 c 128,-1,33
 247 -20 247 -20 180 96 c 128,-1,34
 113 212 113 212 113 442 c 2,35,-1
 113 557 l 2,36,37
 113 866 113 866 179.5 984.5 c 128,-1,38
 246 1103 246 1103 413 1103 c 0,39,40
 424 1103 424 1103 453.5 1102 c 128,-1,41
 483 1101 483 1101 535.5 1076.5 c 128,-1,42
 588 1052 588 1052 618 1009 c 1,43,44
 610 1392 610 1392 598 1434 c 1,45,-1
 373 1299 l 1,46,-1
 320 1399 l 1,47,-1
 545 1534 l 1,15,16
EndSplineSet
EndChar

StartChar: divide
Encoding: 247 247 181
Width: 804
GlyphClass: 2
Flags: W
LayerCount: 2
UndoRedoHistory
Layer: 1
Undoes
EndUndoes
Redoes
EndRedoes
EndUndoRedoHistory
Fore
SplineSet
303 1174 m 1,0,-1
 501 1174 l 1,1,-1
 501 976 l 1,2,-1
 303 976 l 1,3,-1
 303 1174 l 1,0,-1
303 535 m 1,4,-1
 501 535 l 1,5,-1
 501 327 l 1,6,-1
 303 327 l 1,7,-1
 303 535 l 1,4,-1
94 823 m 1,8,-1
 710 823 l 1,9,-1
 710 708 l 1,10,-1
 94 708 l 1,11,-1
 94 823 l 1,8,-1
EndSplineSet
EndChar

StartChar: oslash
Encoding: 248 248 182
Width: 879
GlyphClass: 2
Flags: W
LayerCount: 2
UndoRedoHistory
Layer: 1
Undoes
EndUndoes
Redoes
EndRedoes
EndUndoRedoHistory
Fore
SplineSet
539 1302 m 1,0,1
 488 1372 488 1372 428 1387 c 1,2,3
 314 1387 314 1387 292 1260 c 1,4,5
 277 1181 277 1181 277 1053 c 2,6,-1
 277 463 l 2,7,8
 277 414 277 414 279 372 c 1,9,-1
 539 1302 l 1,0,1
327 159 m 1,10,11
 365 113 365 113 440.5 113 c 128,-1,12
 516 113 516 113 542 204.5 c 128,-1,13
 568 296 568 296 568 463 c 2,14,-1
 568 1017 l 1,15,-1
 327 159 l 1,10,11
670 1379 m 1,16,17
 717 1281 717 1281 717 1018 c 2,18,-1
 717 515 l 2,19,20
 717 338 717 338 709.5 286 c 128,-1,21
 702 234 702 234 695 196 c 0,22,23
 655 -18 655 -18 417 -18 c 0,24,25
 338 -18 338 -18 285 8 c 1,26,-1
 234 -173 l 1,27,-1
 134 -145 l 1,28,-1
 199 87 l 1,29,30
 146 166 146 166 137 278.5 c 128,-1,31
 128 391 128 391 128 515 c 2,32,-1
 128 1018 l 2,33,34
 128 1278 128 1278 177 1376 c 128,-1,35
 226 1474 226 1474 310 1502 c 0,36,37
 360 1518 360 1518 441 1518 c 128,-1,38
 522 1518 522 1518 588 1475 c 1,39,-1
 643 1672 l 1,40,-1
 744 1644 l 1,41,-1
 670 1379 l 1,16,17
EndSplineSet
EndChar

StartChar: thorn
Encoding: 254 254 188
Width: 882
GlyphClass: 2
Flags: W
LayerCount: 2
UndoRedoHistory
Layer: 1
Undoes
EndUndoes
Redoes
EndRedoes
EndUndoRedoHistory
Fore
SplineSet
597 1062 m 2,0,1
 597 1238 597 1238 582.5 1281 c 128,-1,2
 568 1324 568 1324 548 1355 c 128,-1,3
 528 1386 528 1386 482 1386 c 0,4,5
 475 1386 475 1386 454 1386 c 0,6,7
 367 1386 367 1386 335 1294 c 0,8,9
 310 1222 310 1222 310 1059 c 2,10,-1
 310 463 l 2,11,12
 310 272 310 272 340.5 193.5 c 128,-1,13
 371 115 371 115 456 115 c 128,-1,14
 541 115 541 115 569 193 c 128,-1,15
 597 271 597 271 597 468 c 2,16,-1
 597 1062 l 2,0,1
160 1783 m 1,17,-1
 310 1783 l 1,18,-1
 310 1385 l 1,19,20
 363 1511 363 1511 509 1511 c 0,21,22
 678 1510 678 1510 722 1310 c 0,23,24
 746 1198 746 1198 747 1013 c 1,25,-1
 747 475 l 2,26,27
 747 110 747 110 607 18 c 0,28,29
 551 -18 551 -18 485 -18 c 128,-1,30
 419 -18 419 -18 374.5 18.5 c 128,-1,31
 330 55 330 55 310 108 c 1,32,-1
 310 -265 l 1,33,-1
 160 -265 l 1,34,-1
 160 1783 l 1,17,-1
EndSplineSet
EndChar

StartChar: Hbar
Encoding: 294 294 228
Width: 932
GlyphClass: 2
Flags: W
LayerCount: 2
UndoRedoHistory
Layer: 1
Undoes
EndUndoes
Redoes
EndRedoes
EndUndoRedoHistory
Fore
SplineSet
309 1416 m 1,0,-1
 309 998 l 1,1,-1
 631 998 l 1,2,-1
 631 1416 l 1,3,-1
 309 1416 l 1,0,-1
631 1760 m 1,4,-1
 780 1760 l 1,5,-1
 780 1498 l 1,6,-1
 900 1498 l 1,7,-1
 900 1416 l 1,8,-1
 780 1416 l 1,9,-1
 780 0 l 1,10,-1
 631 0 l 1,11,-1
 631 886 l 1,12,-1
 309 886 l 1,13,-1
 309 0 l 1,14,-1
 160 0 l 1,15,-1
 160 1416 l 1,16,-1
 55 1416 l 1,17,-1
 55 1498 l 1,18,-1
 160 1498 l 1,19,-1
 160 1760 l 1,20,-1
 309 1760 l 1,21,-1
 309 1498 l 1,22,-1
 631 1498 l 1,23,-1
 631 1760 l 1,4,-1
EndSplineSet
EndChar

StartChar: hbar
Encoding: 295 295 229
Width: 924
GlyphClass: 2
Flags: W
LayerCount: 2
UndoRedoHistory
Layer: 1
Undoes
EndUndoes
Redoes
EndRedoes
EndUndoRedoHistory
Fore
SplineSet
502 1381 m 0,0,1
 310 1381 310 1381 309 1191 c 1,2,-1
 309 0 l 1,3,-1
 160 0 l 1,4,-1
 160 1561 l 1,5,-1
 0 1561 l 1,6,-1
 0 1682 l 1,7,-1
 160 1682 l 1,8,-1
 160 1783 l 1,9,-1
 309 1783 l 1,10,-1
 309 1682 l 1,11,-1
 465 1682 l 1,12,-1
 465 1561 l 1,13,-1
 309 1561 l 1,14,-1
 309 1353 l 1,15,16
 329 1420 329 1420 398.5 1469.5 c 128,-1,17
 468 1519 468 1519 561 1519 c 128,-1,18
 654 1519 654 1519 713.5 1442 c 128,-1,19
 773 1365 773 1365 773 1211 c 2,20,-1
 773 0 l 1,21,-1
 623 0 l 1,22,-1
 623 1201 l 2,23,24
 623 1303 623 1303 587.5 1342 c 128,-1,25
 552 1381 552 1381 502 1381 c 0,0,1
EndSplineSet
EndChar

StartChar: dotlessi
Encoding: 305 305 239
Width: 474
GlyphClass: 2
Flags: W
LayerCount: 2
UndoRedoHistory
Layer: 1
Undoes
EndUndoes
Redoes
EndRedoes
EndUndoRedoHistory
Fore
SplineSet
162 1500 m 1,0,-1
 312 1500 l 1,1,-1
 312 0 l 1,2,-1
 162 0 l 1,3,-1
 162 1500 l 1,0,-1
EndSplineSet
EndChar

StartChar: kgreenlandic
Encoding: 312 312 246
Width: 799
GlyphClass: 2
Flags: W
LayerCount: 2
UndoRedoHistory
Layer: 1
Undoes
EndUndoes
Redoes
EndRedoes
EndUndoRedoHistory
Fore
SplineSet
161 1500 m 1,0,-1
 310 1500 l 1,1,-1
 310 760 l 1,2,-1
 641 1500 l 1,3,-1
 790 1500 l 1,4,-1
 449 756 l 1,5,-1
 808 0 l 1,6,-1
 652 0 l 1,7,-1
 310 742 l 1,8,-1
 310 0 l 1,9,-1
 161 0 l 1,10,-1
 161 1500 l 1,0,-1
EndSplineSet
EndChar

StartChar: Lcaron
Encoding: 317 317 251
Width: 708
GlyphClass: 2
Flags: W
LayerCount: 2
UndoRedoHistory
Layer: 1
Undoes
EndUndoes
Redoes
EndRedoes
EndUndoRedoHistory
Fore
SplineSet
160 1760 m 1,0,-1
 309 1760 l 1,1,-1
 309 118 l 1,2,-1
 621 118 l 1,3,-1
 621 0 l 1,4,-1
 160 0 l 1,5,-1
 160 1760 l 1,0,-1
589 1764 m 1,6,-1
 787 1764 l 1,7,-1
 787 1580 l 1,8,-1
 708 1298 l 1,9,-1
 647 1298 l 1,10,-1
 689 1571 l 1,11,-1
 589 1571 l 1,12,-1
 589 1764 l 1,6,-1
EndSplineSet
EndChar

StartChar: Lslash
Encoding: 321 321 255
Width: 705
GlyphClass: 2
Flags: W
LayerCount: 2
UndoRedoHistory
Layer: 1
Undoes
EndUndoes
Redoes
EndRedoes
EndUndoRedoHistory
Fore
SplineSet
160 1760 m 1,0,-1
 309 1760 l 1,1,-1
 309 1051 l 1,2,-1
 497 1133 l 1,3,-1
 497 1011 l 1,4,-1
 309 929 l 1,5,-1
 309 118 l 1,6,-1
 621 118 l 1,7,-1
 621 0 l 1,8,-1
 160 0 l 1,9,-1
 160 864 l 1,10,-1
 -1 794 l 1,11,-1
 -1 916 l 1,12,-1
 160 986 l 1,13,-1
 160 1760 l 1,0,-1
EndSplineSet
EndChar

StartChar: lslash
Encoding: 322 322 256
Width: 731
GlyphClass: 2
Flags: W
LayerCount: 2
UndoRedoHistory
Layer: 1
Undoes
EndUndoes
Redoes
EndRedoes
EndUndoRedoHistory
Fore
SplineSet
254 1783 m 1,0,-1
 404 1783 l 1,1,-1
 404 1059 l 1,2,-1
 610 1153 l 1,3,-1
 610 1010 l 1,4,-1
 404 916 l 1,5,-1
 404 0 l 1,6,-1
 254 0 l 1,7,-1
 254 848 l 1,8,-1
 99 778 l 1,9,-1
 99 921 l 1,10,-1
 254 991 l 1,11,-1
 254 1783 l 1,0,-1
EndSplineSet
EndChar

StartChar: OE
Encoding: 338 338 269
Width: 1168
GlyphClass: 2
Flags: W
LayerCount: 2
UndoRedoHistory
Layer: 1
Undoes
EndUndoes
Redoes
EndRedoes
EndUndoRedoHistory
Fore
SplineSet
606 126 m 1,0,-1
 606 1634 l 1,1,-1
 453 1634 l 2,2,3
 354 1634 354 1634 318.5 1558 c 128,-1,4
 283 1482 283 1482 283 1282 c 2,5,-1
 283 518 l 2,6,7
 283 227 283 227 326 176.5 c 128,-1,8
 369 126 369 126 446 126 c 2,9,-1
 606 126 l 1,0,-1
453 1760 m 2,10,-1
 1082 1760 l 1,11,-1
 1082 1644 l 1,12,-1
 755 1644 l 1,13,-1
 755 956 l 1,14,-1
 1063 956 l 1,15,-1
 1063 836 l 1,16,-1
 755 836 l 1,17,-1
 755 118 l 1,18,-1
 1080 118 l 1,19,-1
 1080 0 l 1,20,-1
 446 0 l 2,21,22
 300 0 300 0 226 76 c 0,23,24
 134 171 134 171 134 519 c 2,25,-1
 134 1269 l 2,26,27
 134 1465 134 1465 159 1551.5 c 128,-1,28
 184 1638 184 1638 218 1676 c 0,29,30
 294 1760 294 1760 453 1760 c 2,10,-1
EndSplineSet
EndChar

StartChar: oe
Encoding: 339 339 270
Width: 1256
GlyphClass: 2
Flags: W
LayerCount: 2
UndoRedoHistory
Layer: 1
Undoes
EndUndoes
Redoes
EndRedoes
EndUndoRedoHistory
Fore
SplineSet
988 874 m 1,0,-1
 988 1138 l 2,1,2
 988 1271 988 1271 978 1295.5 c 128,-1,3
 968 1320 968 1320 961 1337 c 128,-1,4
 954 1354 954 1354 930.5 1370.5 c 128,-1,5
 907 1387 907 1387 867 1387 c 0,6,7
 758 1387 758 1387 733 1266 c 0,8,9
 717 1189 717 1189 717 1063 c 2,10,-1
 717 874 l 1,11,-1
 988 874 l 1,0,-1
567 1053 m 2,12,13
 567 1258 567 1258 531.5 1323 c 128,-1,14
 496 1388 496 1388 427 1388 c 128,-1,15
 358 1388 358 1388 317.5 1331 c 128,-1,16
 277 1274 277 1274 277 1053 c 2,17,-1
 277 463 l 2,18,19
 277 243 277 243 313.5 178 c 128,-1,20
 350 113 350 113 425 113 c 0,21,22
 552 113 552 113 564 345 c 0,23,24
 566 393 566 393 567 463 c 1,25,-1
 567 1053 l 2,12,13
643 1396 m 1,26,27
 720 1518 720 1518 860 1518 c 128,-1,28
 1000 1518 1000 1518 1054 1447 c 0,29,30
 1084 1408 1084 1408 1102 1370 c 0,31,32
 1137 1296 1137 1296 1137 1018 c 0,33,34
 1137 1010 1137 1010 1137 1002 c 2,35,-1
 1137 754 l 1,36,-1
 716 754 l 1,37,-1
 716 450 l 2,38,39
 716 217 716 217 751 165 c 128,-1,40
 786 113 786 113 853 113 c 128,-1,41
 920 113 920 113 947.5 155 c 128,-1,42
 975 197 975 197 981 261.5 c 128,-1,43
 987 326 987 326 987 439 c 2,44,-1
 987 556 l 1,45,-1
 1132 556 l 1,46,-1
 1132 505 l 2,47,48
 1132 284 1132 284 1117 201 c 0,49,50
 1091 53 1091 53 992 7 c 0,51,52
 939 -18 939 -18 859 -18 c 0,53,54
 711 -18 711 -18 636 106 c 1,55,56
 562 -18 562 -18 425 -18 c 0,57,58
 255 -18 255 -18 192 94 c 0,59,60
 150 170 150 170 139 271 c 128,-1,61
 128 372 128 372 128 515 c 2,62,-1
 128 1018 l 2,63,64
 128 1280 128 1280 177 1377 c 128,-1,65
 226 1474 226 1474 310 1502 c 0,66,67
 360 1518 360 1518 425 1518 c 0,68,69
 571 1518 571 1518 643 1396 c 1,26,27
EndSplineSet
EndChar

StartChar: florin
Encoding: 402 402 310
Width: 767
GlyphClass: 2
Flags: W
LayerCount: 2
UndoRedoHistory
Layer: 1
Undoes
EndUndoes
Redoes
EndRedoes
EndUndoRedoHistory
Fore
SplineSet
316 1539 m 2,0,1
 316 1787 316 1787 496 1787 c 0,2,3
 558 1787 558 1787 652 1752 c 1,4,-1
 652 1630 l 1,5,6
 575 1654 575 1654 533 1654 c 128,-1,7
 491 1654 491 1654 472 1623 c 128,-1,8
 453 1592 453 1592 453 1521 c 2,9,-1
 453 1252 l 1,10,-1
 667 1252 l 1,11,-1
 667 1146 l 1,12,-1
 453 1146 l 1,13,-1
 453 221 l 2,14,15
 453 -12 453 -12 252 -12 c 0,16,17
 194 -12 194 -12 115 8 c 1,18,-1
 115 130 l 1,19,20
 155 128 155 128 170 128 c 0,21,22
 264 128 264 128 290 161 c 128,-1,23
 316 194 316 194 316 305 c 2,24,-1
 316 1146 l 1,25,-1
 107 1146 l 1,26,-1
 107 1252 l 1,27,-1
 316 1252 l 1,28,-1
 316 1539 l 2,0,1
EndSplineSet
EndChar

StartChar: uni0237
Encoding: 567 567 353
Width: 513
GlyphClass: 2
Flags: W
LayerCount: 2
UndoRedoHistory
Layer: 1
Undoes
EndUndoes
Redoes
EndRedoes
EndUndoRedoHistory
Fore
SplineSet
352 34 m 2,0,1
 352 -157 352 -157 182 -157 c 0,2,3
 152 -157 152 -157 116 -152 c 1,4,-1
 95 -150 l 1,5,-1
 95 -42 l 1,6,7
 100 -42 100 -42 125.5 -44 c 128,-1,8
 151 -46 151 -46 166 -43 c 0,9,10
 203 -37 203 -37 203 24 c 2,11,-1
 203 1500 l 1,12,-1
 352 1500 l 1,13,-1
 352 34 l 2,0,1
EndSplineSet
EndChar

StartChar: circumflex
Encoding: 710 710 354
Width: 970
GlyphClass: 2
Flags: W
LayerCount: 2
UndoRedoHistory
Layer: 1
Undoes
EndUndoes
Redoes
EndRedoes
EndUndoRedoHistory
Fore
SplineSet
402 1831 m 1,0,-1
 568 1831 l 1,1,-1
 688 1577 l 1,2,-1
 571 1577 l 1,3,-1
 485 1752 l 1,4,-1
 399 1577 l 1,5,-1
 281 1577 l 1,6,-1
 402 1831 l 1,0,-1
EndSplineSet
EndChar

StartChar: caron
Encoding: 711 711 355
Width: 970
GlyphClass: 2
Flags: W
LayerCount: 2
UndoRedoHistory
Layer: 1
Undoes
EndUndoes
Redoes
EndRedoes
EndUndoRedoHistory
Fore
SplineSet
571 1830 m 1,0,-1
 688 1830 l 1,1,-1
 568 1577 l 1,2,-1
 402 1577 l 1,3,-1
 281 1830 l 1,4,-1
 399 1830 l 1,5,-1
 485 1655 l 1,6,-1
 571 1830 l 1,0,-1
EndSplineSet
EndChar

StartChar: uni02C9
Encoding: 713 713 356
Width: 696
GlyphClass: 2
Flags: W
LayerCount: 2
UndoRedoHistory
Layer: 1
Undoes
EndUndoes
Redoes
EndRedoes
EndUndoRedoHistory
Fore
SplineSet
90 741 m 1,0,-1
 606 741 l 1,1,-1
 606 626 l 1,2,-1
 90 626 l 1,3,-1
 90 741 l 1,0,-1
EndSplineSet
EndChar

StartChar: breve
Encoding: 728 728 357
Width: 1016
GlyphClass: 2
Flags: W
LayerCount: 2
UndoRedoHistory
Layer: 1
Undoes
EndUndoes
Redoes
EndRedoes
EndUndoRedoHistory
Fore
SplineSet
632 1823 m 1,0,-1
 696 1823 l 1,1,-1
 696 1810 l 2,2,3
 696 1722 696 1722 647.5 1670.5 c 128,-1,4
 599 1619 599 1619 506 1619 c 128,-1,5
 413 1619 413 1619 364 1669.5 c 128,-1,6
 315 1720 315 1720 315 1808 c 2,7,-1
 315 1823 l 1,8,-1
 379 1823 l 1,9,10
 380 1710 380 1710 506 1710 c 128,-1,11
 632 1710 632 1710 632 1823 c 1,0,-1
EndSplineSet
EndChar

StartChar: dotaccent
Encoding: 729 729 358
Width: 572
GlyphClass: 2
Flags: W
LayerCount: 2
UndoRedoHistory
Layer: 1
Undoes
EndUndoes
Redoes
EndRedoes
EndUndoRedoHistory
Fore
SplineSet
213 78 m 1,0,-1
 372 78 l 1,1,-1
 372 -55 l 1,2,-1
 213 -55 l 1,3,-1
 213 78 l 1,0,-1
EndSplineSet
EndChar

StartChar: ring
Encoding: 730 730 359
Width: 923
GlyphClass: 2
Flags: W
LayerCount: 2
UndoRedoHistory
Layer: 1
Undoes
EndUndoes
Redoes
EndRedoes
EndUndoRedoHistory
Fore
SplineSet
561 72 m 128,-1,1
 561 114 561 114 534.5 144 c 128,-1,2
 508 174 508 174 462 174 c 128,-1,3
 416 174 416 174 390 143.5 c 128,-1,4
 364 113 364 113 364 72 c 128,-1,5
 364 31 364 31 390 0.5 c 128,-1,6
 416 -30 416 -30 462 -30 c 128,-1,7
 508 -30 508 -30 534.5 0 c 128,-1,0
 561 30 561 30 561 72 c 128,-1,1
336.5 -35 m 128,-1,9
 292 11 292 11 292 71.5 c 128,-1,10
 292 132 292 132 336.5 178 c 128,-1,11
 381 224 381 224 461.5 224 c 128,-1,12
 542 224 542 224 586 178 c 128,-1,13
 630 132 630 132 630 71 c 128,-1,14
 630 10 630 10 586 -35.5 c 128,-1,15
 542 -81 542 -81 461.5 -81 c 128,-1,8
 381 -81 381 -81 336.5 -35 c 128,-1,9
EndSplineSet
EndChar

StartChar: ogonek
Encoding: 731 731 360
Width: 1015
GlyphClass: 2
Flags: W
LayerCount: 2
UndoRedoHistory
Layer: 1
Undoes
EndUndoes
Redoes
EndRedoes
EndUndoRedoHistory
Fore
SplineSet
812 -411 m 1,0,1
 768 -431 768 -431 684 -431 c 0,2,3
 491 -431 491 -431 491 -286 c 0,4,5
 491 -216 491 -216 535 -141 c 128,-1,6
 579 -66 579 -66 667 0 c 1,7,-1
 731 0 l 1,8,9
 658 -62 658 -62 621.5 -129.5 c 128,-1,10
 585 -197 585 -197 585 -252 c 0,11,12
 585 -339 585 -339 693 -339 c 0,13,14
 745 -339 745 -339 778 -329 c 128,-1,15
 811 -319 811 -319 812 -318 c 1,16,-1
 812 -411 l 1,0,1
EndSplineSet
EndChar

StartChar: tilde
Encoding: 732 732 361
Width: 1117
GlyphClass: 2
Flags: W
LayerCount: 2
UndoRedoHistory
Layer: 1
Undoes
EndUndoes
Redoes
EndRedoes
EndUndoRedoHistory
Fore
SplineSet
266 35 m 1,0,1
 294 132 294 132 336.5 151 c 128,-1,2
 379 170 379 170 428.5 170 c 128,-1,3
 478 170 478 170 570.5 133 c 128,-1,4
 663 96 663 96 684 96 c 2,5,-1
 688 96 l 1,6,7
 705 99 705 99 717.5 112.5 c 128,-1,8
 730 126 730 126 744 167 c 1,9,-1
 849 139 l 1,10,-1
 840 113 l 1,11,12
 811 22 811 22 781.5 -5 c 128,-1,13
 752 -32 752 -32 703 -32 c 128,-1,14
 654 -32 654 -32 564 9 c 128,-1,15
 474 50 474 50 445.5 50 c 128,-1,16
 417 50 417 50 401 46 c 128,-1,17
 385 42 385 42 359 -11 c 1,18,-1
 266 35 l 1,0,1
EndSplineSet
EndChar

StartChar: hungarumlaut
Encoding: 733 733 362
Width: 1300
GlyphClass: 2
Flags: W
LayerCount: 2
UndoRedoHistory
Layer: 1
Undoes
EndUndoes
Redoes
EndRedoes
EndUndoRedoHistory
Fore
SplineSet
452 40 m 1,0,-1
 559 431 l 1,1,-1
 723 353 l 1,2,-1
 521 11 l 1,3,-1
 452 40 l 1,0,-1
703 40 m 1,4,-1
 867 431 l 1,5,-1
 1034 342 l 1,6,-1
 771 0 l 1,7,-1
 703 40 l 1,4,-1
EndSplineSet
EndChar

StartChar: uni0307
Encoding: 775 775 363
Width: 572
GlyphClass: 2
Flags: W
LayerCount: 2
UndoRedoHistory
Layer: 1
Undoes
EndUndoes
Redoes
EndRedoes
EndUndoRedoHistory
Fore
SplineSet
147 260 m 1,0,-1
 425 260 l 1,1,-1
 425 -8 l 1,2,-1
 147 -8 l 1,3,-1
 147 260 l 1,0,-1
EndSplineSet
EndChar

StartChar: uni030F
Encoding: 783 783 364
Width: 825
GlyphClass: 2
Flags: W
LayerCount: 2
UndoRedoHistory
Layer: 1
Undoes
EndUndoes
Redoes
EndRedoes
EndUndoRedoHistory
Fore
SplineSet
312 1912 m 1,0,-1
 443 2009 l 1,1,-1
 594 1684 l 1,2,-1
 527 1637 l 1,3,-1
 312 1912 l 1,0,-1
9 1912 m 1,4,-1
 144 2009 l 1,5,-1
 332 1684 l 1,6,-1
 265 1637 l 1,7,-1
 9 1912 l 1,4,-1
EndSplineSet
EndChar

StartChar: uni0311
Encoding: 785 785 365
Width: 1016
GlyphClass: 2
Flags: W
LayerCount: 2
UndoRedoHistory
Layer: 1
Undoes
EndUndoes
Redoes
EndRedoes
EndUndoRedoHistory
Fore
SplineSet
313 1596 m 1,0,-1
 313 1616 l 2,1,2
 313 1699 313 1699 360 1753 c 128,-1,3
 407 1807 407 1807 500.5 1807 c 128,-1,4
 594 1807 594 1807 643.5 1759.5 c 128,-1,5
 693 1712 693 1712 695 1624 c 1,6,-1
 695 1609 l 1,7,-1
 631 1606 l 1,8,9
 629 1715 629 1715 502 1715 c 0,10,11
 376.968992248 1715 376.968992248 1715 376.968992248 1602.56901629 c 0,12,13
 376.968992248 1600.79844961 376.968992248 1600.79844961 377 1599 c 1,14,-1
 313 1596 l 1,0,-1
EndSplineSet
EndChar

StartChar: uni0326
Encoding: 806 806 366
Width: 528
GlyphClass: 2
Flags: W
LayerCount: 2
UndoRedoHistory
Layer: 1
Undoes
EndUndoes
Redoes
EndRedoes
EndUndoRedoHistory
Fore
SplineSet
168 242 m 1,0,-1
 365 242 l 1,1,-1
 365 59 l 1,2,-1
 287 -223 l 1,3,-1
 225 -223 l 1,4,-1
 268 50 l 1,5,-1
 168 50 l 1,6,-1
 168 242 l 1,0,-1
EndSplineSet
EndChar

StartChar: uni0394
Encoding: 916 916 367
Width: 868
GlyphClass: 2
Flags: W
LayerCount: 2
UndoRedoHistory
Layer: 1
Undoes
EndUndoes
Redoes
EndRedoes
EndUndoRedoHistory
Fore
SplineSet
219 123 m 1,0,-1
 644 123 l 1,1,-1
 424 1476 l 1,2,-1
 422 1476 l 1,3,-1
 219 123 l 1,0,-1
495 1760 m 1,4,-1
 808 0 l 1,5,-1
 60 0 l 1,6,-1
 343 1760 l 1,7,-1
 495 1760 l 1,4,-1
EndSplineSet
EndChar

StartChar: uni03BC
Encoding: 956 956 368
Width: 923
GlyphClass: 2
Flags: W
LayerCount: 2
UndoRedoHistory
Layer: 1
Undoes
EndUndoes
Redoes
EndRedoes
EndUndoRedoHistory
Fore
SplineSet
300 292 m 2,0,1
 300 119 300 119 452 119 c 0,2,3
 526 119 526 119 570.5 168.5 c 0,4,5
 614.021978022 216.912087912 614.021978022 216.912087912 614.021978022 299.280883951 c 0,6,7
 614.021978022 301.131868132 614.021978022 301.131868132 614 303 c 1,8,-1
 614 1500 l 1,9,-1
 764 1500 l 1,10,-1
 764 0 l 1,11,-1
 615 0 l 1,12,-1
 615 150 l 1,13,14
 596 82 596 82 533.5 31 c 128,-1,15
 471 -20 471 -20 406 -20 c 128,-1,16
 341 -20 341 -20 300 -1 c 1,17,-1
 300 -186 l 1,18,-1
 150 -186 l 1,19,-1
 150 1500 l 1,20,-1
 300 1500 l 1,21,-1
 300 292 l 2,0,1
EndSplineSet
EndChar

StartChar: endash
Encoding: 8211 8211 391
Width: 756
GlyphClass: 2
Flags: W
LayerCount: 2
UndoRedoHistory
Layer: 1
Undoes
EndUndoes
Redoes
EndRedoes
EndUndoRedoHistory
Fore
SplineSet
120 741 m 1,0,-1
 636 741 l 1,1,-1
 636 626 l 1,2,-1
 120 626 l 1,3,-1
 120 741 l 1,0,-1
EndSplineSet
EndChar

StartChar: emdash
Encoding: 8212 8212 392
Width: 1153
GlyphClass: 2
Flags: W
LayerCount: 2
UndoRedoHistory
Layer: 1
Undoes
EndUndoes
Redoes
EndRedoes
EndUndoRedoHistory
Fore
SplineSet
100 741 m 1,0,-1
 1052 741 l 1,1,-1
 1052 626 l 1,2,-1
 100 626 l 1,3,-1
 100 741 l 1,0,-1
EndSplineSet
EndChar

StartChar: quoteleft
Encoding: 8216 8216 393
Width: 597
GlyphClass: 2
Flags: W
LayerCount: 2
UndoRedoHistory
Layer: 1
Undoes
EndUndoes
Redoes
EndRedoes
EndUndoRedoHistory
Fore
SplineSet
281 1783 m 1,0,-1
 387 1783 l 1,1,-1
 296 1366 l 1,2,-1
 438 1366 l 1,3,-1
 438 1164 l 1,4,-1
 167 1164 l 1,5,-1
 167 1357 l 1,6,-1
 281 1783 l 1,0,-1
EndSplineSet
EndChar

StartChar: quoteright
Encoding: 8217 8217 394
Width: 597
GlyphClass: 2
Flags: W
LayerCount: 2
UndoRedoHistory
Layer: 1
Undoes
EndUndoes
Redoes
EndRedoes
EndUndoRedoHistory
Fore
SplineSet
189 1783 m 1,0,-1
 460 1783 l 1,1,-1
 460 1590 l 1,2,-1
 346 1164 l 1,3,-1
 240 1164 l 1,4,-1
 331 1581 l 1,5,-1
 189 1581 l 1,6,-1
 189 1783 l 1,0,-1
EndSplineSet
EndChar

StartChar: quotesinglbase
Encoding: 8218 8218 395
Width: 484
GlyphClass: 2
Flags: W
LayerCount: 2
UndoRedoHistory
Layer: 1
Undoes
EndUndoes
Redoes
EndRedoes
EndUndoRedoHistory
Fore
SplineSet
113 207 m 1,0,-1
 388 207 l 1,1,-1
 388 9 l 1,2,-1
 269 -437 l 1,3,-1
 166 -437 l 1,4,-1
 259 0 l 1,5,-1
 113 0 l 1,6,-1
 113 207 l 1,0,-1
EndSplineSet
EndChar

StartChar: quotedblleft
Encoding: 8220 8220 396
Width: 1030
GlyphClass: 2
Flags: W
LayerCount: 2
UndoRedoHistory
Layer: 1
Undoes
EndUndoes
Redoes
EndRedoes
EndUndoRedoHistory
Fore
SplineSet
295 1783 m 1,0,-1
 399 1783 l 1,1,-1
 305 1355 l 1,2,-1
 451 1355 l 1,3,-1
 451 1149 l 1,4,-1
 176 1149 l 1,5,-1
 176 1346 l 1,6,-1
 295 1783 l 1,0,-1
742 1783 m 1,7,-1
 845 1783 l 1,8,-1
 752 1355 l 1,9,-1
 898 1355 l 1,10,-1
 898 1149 l 1,11,-1
 623 1149 l 1,12,-1
 623 1346 l 1,13,-1
 742 1783 l 1,7,-1
EndSplineSet
EndChar

StartChar: quotedblright
Encoding: 8221 8221 397
Width: 1077
GlyphClass: 2
Flags: W
LayerCount: 2
UndoRedoHistory
Layer: 1
Undoes
EndUndoes
Redoes
EndRedoes
EndUndoRedoHistory
Fore
SplineSet
191 1783 m 1,0,-1
 466 1783 l 1,1,-1
 466 1586 l 1,2,-1
 346 1149 l 1,3,-1
 243 1149 l 1,4,-1
 337 1577 l 1,5,-1
 191 1577 l 1,6,-1
 191 1783 l 1,0,-1
638 1783 m 1,7,-1
 913 1783 l 1,8,-1
 913 1586 l 1,9,-1
 793 1149 l 1,10,-1
 690 1149 l 1,11,-1
 783 1577 l 1,12,-1
 638 1577 l 1,13,-1
 638 1783 l 1,7,-1
EndSplineSet
EndChar

StartChar: quotedblbase
Encoding: 8222 8222 398
Width: 1016
GlyphClass: 2
Flags: W
LayerCount: 2
UndoRedoHistory
Layer: 1
Undoes
EndUndoes
Redoes
EndRedoes
EndUndoRedoHistory
Fore
SplineSet
181 206 m 1,0,-1
 456 206 l 1,1,-1
 456 9 l 1,2,-1
 336 -428 l 1,3,-1
 233 -428 l 1,4,-1
 327 0 l 1,5,-1
 181 0 l 1,6,-1
 181 206 l 1,0,-1
628 206 m 1,7,-1
 903 206 l 1,8,-1
 903 9 l 1,9,-1
 783 -428 l 1,10,-1
 680 -428 l 1,11,-1
 774 0 l 1,12,-1
 628 0 l 1,13,-1
 628 206 l 1,7,-1
EndSplineSet
EndChar

StartChar: dagger
Encoding: 8224 8224 399
Width: 909
GlyphClass: 2
Flags: W
LayerCount: 2
UndoRedoHistory
Layer: 1
Undoes
EndUndoes
Redoes
EndRedoes
EndUndoRedoHistory
Fore
SplineSet
382 1592 m 1,0,-1
 530 1592 l 1,1,-1
 530 1182 l 1,2,-1
 818 1182 l 1,3,-1
 818 1066 l 1,4,-1
 530 1066 l 1,5,-1
 530 0 l 1,6,-1
 382 0 l 1,7,-1
 382 1066 l 1,8,-1
 91 1066 l 1,9,-1
 91 1182 l 1,10,-1
 382 1182 l 1,11,-1
 382 1592 l 1,0,-1
EndSplineSet
EndChar

StartChar: daggerdbl
Encoding: 8225 8225 400
Width: 927
GlyphClass: 2
Flags: W
LayerCount: 2
UndoRedoHistory
Layer: 1
Undoes
EndUndoes
Redoes
EndRedoes
EndUndoRedoHistory
Fore
SplineSet
818 1066 m 1,0,-1
 530 1066 l 1,1,-1
 530 612 l 1,2,-1
 818 612 l 1,3,-1
 818 496 l 1,4,-1
 530 496 l 1,5,-1
 530 0 l 1,6,-1
 382 0 l 1,7,-1
 382 496 l 1,8,-1
 91 496 l 1,9,-1
 91 612 l 1,10,-1
 382 612 l 1,11,-1
 382 1066 l 1,12,-1
 91 1066 l 1,13,-1
 91 1182 l 1,14,-1
 382 1182 l 1,15,-1
 382 1592 l 1,16,-1
 530 1592 l 1,17,-1
 530 1182 l 1,18,-1
 818 1182 l 1,19,-1
 818 1066 l 1,0,-1
EndSplineSet
EndChar

StartChar: bullet
Encoding: 8226 8226 401
Width: 861
GlyphClass: 2
Flags: W
LayerCount: 2
UndoRedoHistory
Layer: 1
Undoes
EndUndoes
Redoes
EndRedoes
EndUndoRedoHistory
Fore
SplineSet
227 741 m 129,-1,1
 226.995121951 742.112195122 226.995121951 742.112195122 226.995121951 743.218964902 c 0,2,3
 226.995121951 969 226.995121951 969 430 969 c 0,4,5
 634 969 634 969 634 741 c 128,-1,6
 634 513 634 513 430 513 c 0,7,8
 226.995121951 513 226.995121951 513 226.995121951 738.781035098 c 0,9,0
 226.995121951 739.887804878 226.995121951 739.887804878 227 741 c 129,-1,1
EndSplineSet
EndChar

StartChar: perthousand
Encoding: 8240 8240 402
Width: 3206
GlyphClass: 2
Flags: W
LayerCount: 2
UndoRedoHistory
Layer: 1
Undoes
EndUndoes
Redoes
EndRedoes
EndUndoRedoHistory
Fore
SplineSet
2653 835 m 2,0,1
 2653 958 2653 958 2624.5 1001.5 c 128,-1,2
 2596 1045 2596 1045 2516.5 1045 c 128,-1,3
 2437 1045 2437 1045 2408 1001.5 c 128,-1,4
 2379 958 2379 958 2379 835 c 2,5,-1
 2379 335 l 2,6,7
 2379 207 2379 207 2407.5 162 c 128,-1,8
 2436 117 2436 117 2516 117 c 128,-1,9
 2596 117 2596 117 2624.5 162 c 128,-1,10
 2653 207 2653 207 2653 335 c 2,11,-1
 2653 835 l 2,0,1
2232 763 m 2,12,13
 2232 1056 2232 1056 2320 1128 c 0,14,15
 2384 1180 2384 1180 2516 1180 c 128,-1,16
 2648 1180 2648 1180 2712 1128 c 0,17,18
 2800 1055 2800 1055 2800 763 c 2,19,-1
 2800 411 l 2,20,21
 2800 280 2800 280 2787.5 199.5 c 128,-1,22
 2775 119 2775 119 2741.5 68.5 c 128,-1,23
 2708 18 2708 18 2655 -1 c 128,-1,24
 2602 -20 2602 -20 2516 -20 c 128,-1,25
 2430 -20 2430 -20 2377 -1 c 128,-1,26
 2324 18 2324 18 2290.5 68.5 c 128,-1,27
 2257 119 2257 119 2244.5 199.5 c 128,-1,28
 2232 280 2232 280 2232 411 c 2,29,-1
 2232 763 l 2,12,13
1845 835 m 2,30,31
 1845 958 1845 958 1816 1001.5 c 128,-1,32
 1787 1045 1787 1045 1707.5 1045 c 128,-1,33
 1628 1045 1628 1045 1599.5 1001.5 c 128,-1,34
 1571 958 1571 958 1571 835 c 2,35,-1
 1571 335 l 2,36,37
 1571 207 1571 207 1599.5 162 c 128,-1,38
 1628 117 1628 117 1708 117 c 128,-1,39
 1788 117 1788 117 1816.5 162 c 128,-1,40
 1845 207 1845 207 1845 335 c 2,41,-1
 1845 835 l 2,30,31
1424 763 m 2,42,43
 1424 1056 1424 1056 1512 1128 c 0,44,45
 1576 1180 1576 1180 1708 1180 c 128,-1,46
 1840 1180 1840 1180 1904 1128 c 0,47,48
 1992 1055 1992 1055 1992 763 c 2,49,-1
 1992 411 l 2,50,51
 1992 280 1992 280 1979.5 199.5 c 128,-1,52
 1967 119 1967 119 1933.5 68.5 c 128,-1,53
 1900 18 1900 18 1847 -1 c 128,-1,54
 1794 -20 1794 -20 1708 -20 c 128,-1,55
 1622 -20 1622 -20 1569 -1 c 128,-1,56
 1516 18 1516 18 1482.5 68.5 c 128,-1,57
 1449 119 1449 119 1436.5 199.5 c 128,-1,58
 1424 280 1424 280 1424 411 c 2,59,-1
 1424 763 l 2,42,43
180 1364 m 2,60,61
 180 1658 180 1658 268 1730 c 0,62,63
 332 1782 332 1782 463.5 1782 c 128,-1,64
 595 1782 595 1782 660 1730 c 0,65,66
 749 1658 749 1658 749 1364 c 2,67,-1
 749 1012 l 2,68,69
 749 881 749 881 736.5 800.5 c 128,-1,70
 724 720 724 720 690 669.5 c 128,-1,71
 656 619 656 619 603.5 600 c 128,-1,72
 551 581 551 581 464.5 581 c 128,-1,73
 378 581 378 581 325 600 c 128,-1,74
 272 619 272 619 238.5 669.5 c 128,-1,75
 205 720 205 720 192.5 800.5 c 128,-1,76
 180 881 180 881 180 1012 c 2,77,-1
 180 1364 l 2,60,61
601 1436 m 2,78,79
 601 1559 601 1559 572.5 1602.5 c 128,-1,80
 544 1646 544 1646 464.5 1646 c 128,-1,81
 385 1646 385 1646 356 1602.5 c 128,-1,82
 327 1559 327 1559 327 1436 c 2,83,-1
 327 936 l 2,84,85
 327 808 327 808 355.5 763 c 128,-1,86
 384 718 384 718 464 718 c 128,-1,87
 544 718 544 718 572.5 763 c 128,-1,88
 601 808 601 808 601 936 c 2,89,-1
 601 1436 l 2,78,79
1372 1760 m 1,90,-1
 1512 1760 l 1,91,-1
 790 0 l 1,92,-1
 642 0 l 1,93,-1
 1372 1760 l 1,90,-1
EndSplineSet
EndChar

StartChar: guilsinglleft
Encoding: 8249 8249 403
Width: 606
GlyphClass: 2
Flags: W
LayerCount: 2
UndoRedoHistory
Layer: 1
Undoes
EndUndoes
Redoes
EndRedoes
EndUndoRedoHistory
Fore
SplineSet
82 794 m 1,0,-1
 548 1065 l 1,1,-1
 548 915 l 1,2,-1
 236 749 l 1,3,-1
 548 574 l 1,4,-1
 548 414 l 1,5,-1
 82 699 l 1,6,-1
 82 794 l 1,0,-1
EndSplineSet
EndChar

StartChar: guilsinglright
Encoding: 8250 8250 404
Width: 727
GlyphClass: 2
Flags: W
LayerCount: 2
UndoRedoHistory
Layer: 1
Undoes
EndUndoes
Redoes
EndRedoes
EndUndoRedoHistory
Fore
SplineSet
166 915 m 1,0,-1
 166 1065 l 1,1,-1
 632 794 l 1,2,-1
 632 699 l 1,3,-1
 166 414 l 1,4,-1
 166 574 l 1,5,-1
 478 749 l 1,6,-1
 166 915 l 1,0,-1
EndSplineSet
EndChar

StartChar: fraction
Encoding: 8260 8260 405
Width: 829
GlyphClass: 2
Flags: W
LayerCount: 2
UndoRedoHistory
Layer: 1
Undoes
EndUndoes
Redoes
EndRedoes
EndUndoRedoHistory
Fore
SplineSet
536 1768 m 1,0,-1
 673 1768 l 1,1,-1
 231 0 l 1,2,-1
 94 0 l 1,3,-1
 536 1768 l 1,0,-1
EndSplineSet
EndChar

StartChar: uni2074
Encoding: 8308 8308 406
Width: 857
GlyphClass: 2
Flags: W
LayerCount: 2
UndoRedoHistory
Layer: 1
Undoes
EndUndoes
Redoes
EndRedoes
EndUndoRedoHistory
Fore
SplineSet
489 873 m 1,0,-1
 489 1533 l 1,1,-1
 310 873 l 1,2,-1
 489 873 l 1,0,-1
495 1760 m 1,3,-1
 580 1760 l 1,4,-1
 580 873 l 1,5,-1
 688 873 l 1,6,-1
 688 795 l 1,7,-1
 580 795 l 1,8,-1
 580 554 l 1,9,-1
 489 554 l 1,10,-1
 489 795 l 1,11,-1
 224 795 l 1,12,-1
 224 862 l 1,13,-1
 495 1760 l 1,3,-1
EndSplineSet
EndChar

StartChar: Euro
Encoding: 8364 8364 407
Width: 1076
GlyphClass: 2
Flags: W
LayerCount: 2
UndoRedoHistory
Layer: 1
Undoes
EndUndoes
Redoes
EndRedoes
EndUndoRedoHistory
Fore
SplineSet
134 1251 m 2,0,1
 134 1571 134 1571 214.5 1676.5 c 128,-1,2
 295 1782 295 1782 443.5 1782 c 128,-1,3
 592 1782 592 1782 656 1709 c 0,4,5
 702 1656 702 1656 716 1604 c 0,6,7
 749 1482 749 1482 749 1239 c 2,8,-1
 749 1087 l 1,9,-1
 598 1087 l 1,10,-1
 598 1257 l 2,11,12
 598 1479 598 1479 574 1554 c 128,-1,13
 550 1629 550 1629 506 1649 c 0,14,15
 482 1660 482 1660 451 1660 c 0,16,17
 356 1660 356 1660 319.5 1563 c 128,-1,18
 283 1466 283 1466 283 1258 c 2,19,-1
 283 1076 l 1,20,-1
 508 1076 l 1,21,-1
 508 986 l 1,22,-1
 283 986 l 1,23,-1
 283 849 l 1,24,-1
 508 849 l 1,25,-1
 508 751 l 1,26,-1
 283 751 l 1,27,-1
 283 552 l 2,28,29
 283 297 283 297 315 199.5 c 128,-1,30
 347 102 347 102 443 102 c 128,-1,31
 539 102 539 102 568.5 199 c 128,-1,32
 598 296 598 296 598 551 c 2,33,-1
 598 692 l 1,34,-1
 748 692 l 1,35,-1
 748 552 l 2,36,37
 748 321 748 321 722 219.5 c 128,-1,38
 696 118 696 118 663 74 c 0,39,40
 593 -20 593 -20 446 -20 c 128,-1,41
 299 -20 299 -20 225 73 c 0,42,43
 134 187 134 187 134 550 c 2,44,-1
 134 751 l 1,45,-1
 23 751 l 1,46,-1
 23 849 l 1,47,-1
 134 849 l 1,48,-1
 134 986 l 1,49,-1
 23 986 l 1,50,-1
 23 1076 l 1,51,-1
 134 1076 l 1,52,-1
 134 1251 l 2,0,1
EndSplineSet
EndChar

StartChar: trademark
Encoding: 8482 8482 408
Width: 1407
GlyphClass: 2
Flags: W
LayerCount: 2
UndoRedoHistory
Layer: 1
Undoes
EndUndoes
Redoes
EndRedoes
EndUndoRedoHistory
Fore
SplineSet
123 1761 m 1,0,-1
 492 1761 l 1,1,-1
 492 1674 l 1,2,-1
 369 1674 l 1,3,-1
 369 447 l 1,4,-1
 260 447 l 1,5,-1
 260 1674 l 1,6,-1
 123 1674 l 1,7,-1
 123 1761 l 1,0,-1
1143 1761 m 1,8,-1
 1274 1761 l 1,9,-1
 1274 447 l 1,10,-1
 1179 447 l 1,11,-1
 1179 1005 l 1,12,-1
 1195 1525 l 1,13,-1
 1013 447 l 1,14,-1
 899 447 l 1,15,-1
 710 1525 l 1,16,-1
 727 1005 l 1,17,-1
 727 447 l 1,18,-1
 631 447 l 1,19,-1
 631 1761 l 1,20,-1
 763 1761 l 1,21,-1
 956 562 l 1,22,-1
 1143 1761 l 1,8,-1
EndSplineSet
EndChar

StartChar: partialdiff
Encoding: 8706 8706 409
Width: 961
GlyphClass: 2
Flags: W
LayerCount: 2
UndoRedoHistory
Layer: 1
Undoes
EndUndoes
Redoes
EndRedoes
EndUndoRedoHistory
Fore
SplineSet
687 919 m 1,0,1
 581 960 581 960 523.5 960 c 128,-1,2
 466 960 466 960 410 912 c 128,-1,3
 354 864 354 864 320 787 c 0,4,5
 246 623 246 623 246 434.5 c 128,-1,6
 246 246 246 246 320 162 c 1,7,8
 358 117 358 117 422 117 c 128,-1,9
 486 117 486 117 547 196 c 128,-1,10
 608 275 608 275 626 419 c 2,11,-1
 687 919 l 1,0,1
368 1055 m 128,-1,13
 438 1093 438 1093 512.5 1093 c 128,-1,14
 587 1093 587 1093 709 1047 c 1,15,16
 721 1199 721 1199 721 1296 c 128,-1,17
 721 1393 721 1393 678 1469 c 128,-1,18
 635 1545 635 1545 516 1545 c 128,-1,19
 397 1545 397 1545 225 1485 c 1,20,-1
 201 1607 l 1,21,22
 408 1673 408 1673 542 1673 c 0,23,24
 716 1673 716 1673 792.5 1564 c 128,-1,25
 869 1455 869 1455 869 1227 c 0,26,27
 869 1104 869 1104 847 925 c 2,28,-1
 783 417 l 1,29,30
 757 201 757 201 652 92 c 128,-1,31
 547 -17 547 -17 421 -17 c 0,32,33
 223 -17 223 -17 134 177 c 0,34,35
 82 291 82 291 82 413.5 c 128,-1,36
 82 536 82 536 101 628.5 c 128,-1,37
 120 721 120 721 157.5 804.5 c 128,-1,38
 195 888 195 888 246.5 952.5 c 128,-1,12
 298 1017 298 1017 368 1055 c 128,-1,13
EndSplineSet
EndChar

StartChar: product
Encoding: 8719 8719 410
Width: 933
GlyphClass: 2
Flags: W
LayerCount: 2
UndoRedoHistory
Layer: 1
Undoes
EndUndoes
Redoes
EndRedoes
EndUndoRedoHistory
Fore
SplineSet
155 1760 m 1,0,-1
 778 1760 l 1,1,-1
 778 0 l 1,2,-1
 628 0 l 1,3,-1
 628 1649 l 1,4,-1
 305 1649 l 1,5,-1
 305 0 l 1,6,-1
 155 0 l 1,7,-1
 155 1760 l 1,0,-1
EndSplineSet
EndChar

StartChar: summation
Encoding: 8721 8721 411
Width: 681
GlyphClass: 2
Flags: W
LayerCount: 2
UndoRedoHistory
Layer: 1
Undoes
EndUndoes
Redoes
EndRedoes
EndUndoRedoHistory
Fore
SplineSet
102 1761 m 1,0,-1
 553 1761 l 1,1,-1
 553 1631 l 1,2,-1
 265 1631 l 1,3,-1
 505 880 l 1,4,-1
 265 145 l 1,5,-1
 553 145 l 1,6,-1
 553 0 l 1,7,-1
 102 0 l 1,8,-1
 102 141 l 1,9,-1
 337 881 l 1,10,-1
 102 1605 l 1,11,-1
 102 1761 l 1,0,-1
EndSplineSet
EndChar

StartChar: minus
Encoding: 8722 8722 412
Width: 637
GlyphClass: 2
Flags: W
LayerCount: 2
UndoRedoHistory
Layer: 1
Undoes
EndUndoes
Redoes
EndRedoes
EndUndoRedoHistory
Fore
SplineSet
20 741 m 1,0,-1
 616 741 l 1,1,-1
 616 626 l 1,2,-1
 20 626 l 1,3,-1
 20 741 l 1,0,-1
EndSplineSet
EndChar

StartChar: uni2215
Encoding: 8725 8725 413
Width: 829
GlyphClass: 2
Flags: W
LayerCount: 2
UndoRedoHistory
Layer: 1
Undoes
EndUndoes
Redoes
EndRedoes
EndUndoRedoHistory
Fore
SplineSet
536 1768 m 1,0,-1
 673 1768 l 1,1,-1
 231 0 l 1,2,-1
 94 0 l 1,3,-1
 536 1768 l 1,0,-1
EndSplineSet
EndChar

StartChar: radical
Encoding: 8730 8730 414
Width: 1152
GlyphClass: 2
Flags: W
LayerCount: 2
UndoRedoHistory
Layer: 1
Undoes
EndUndoes
Redoes
EndRedoes
EndUndoRedoHistory
Fore
SplineSet
669 1500 m 1,0,-1
 1122 1500 l 1,1,-1
 1122 1367 l 1,2,-1
 808 1367 l 1,3,-1
 534 0 l 1,4,-1
 380 0 l 1,5,-1
 89 741 l 1,6,-1
 258 741 l 1,7,-1
 442 218 l 1,8,-1
 669 1500 l 1,0,-1
EndSplineSet
EndChar

StartChar: infinity
Encoding: 8734 8734 415
Width: 1300
GlyphClass: 2
Flags: W
LayerCount: 2
UndoRedoHistory
Layer: 1
Undoes
EndUndoes
Redoes
EndRedoes
EndUndoRedoHistory
Fore
SplineSet
1074 740 m 128,-1,1
 1074 813 1074 813 1029 857.5 c 128,-1,2
 984 902 984 902 921 902 c 128,-1,3
 858 902 858 902 795.5 857.5 c 128,-1,4
 733 813 733 813 683 740 c 1,5,6
 729 667 729 667 791.5 622.5 c 128,-1,7
 854 578 854 578 919 578 c 128,-1,8
 984 578 984 578 1029 622.5 c 128,-1,0
 1074 667 1074 667 1074 740 c 128,-1,1
588 740 m 1,9,10
 454 880 454 880 364 901 c 1,11,12
 304 901 304 901 261 857 c 128,-1,13
 218 813 218 813 218 740 c 128,-1,14
 218 667 218 667 261 622.5 c 128,-1,15
 304 578 304 578 364 578 c 128,-1,16
 424 578 424 578 483 622.5 c 128,-1,17
 542 667 542 667 588 740 c 1,9,10
639 855 m 1,18,19
 706 939 706 939 781 990 c 128,-1,20
 856 1041 856 1041 912 1041 c 0,21,22
 1042 1041 1042 1041 1122 959.5 c 128,-1,23
 1202 878 1202 878 1202 742 c 128,-1,24
 1202 606 1202 606 1122 522.5 c 128,-1,25
 1042 439 1042 439 912 439 c 0,26,27
 851 439 851 439 776 487.5 c 128,-1,28
 701 536 701 536 639 615 c 1,29,30
 574 541 574 541 500 496.5 c 128,-1,31
 426 452 426 452 370 452 c 0,32,33
 243 452 243 452 165.5 532 c 128,-1,34
 88 612 88 612 88 742 c 128,-1,35
 88 872 88 872 165.5 950 c 128,-1,36
 243 1028 243 1028 370 1028 c 0,37,38
 422 1028 422 1028 495.5 980.5 c 128,-1,39
 569 933 569 933 639 855 c 1,18,19
EndSplineSet
EndChar

StartChar: integral
Encoding: 8747 8747 416
Width: 767
GlyphClass: 2
Flags: W
LayerCount: 2
UndoRedoHistory
Layer: 1
Undoes
EndUndoes
Redoes
EndRedoes
EndUndoRedoHistory
Fore
SplineSet
316 1539 m 2,0,1
 316 1787 316 1787 496 1787 c 0,2,3
 558 1787 558 1787 652 1752 c 1,4,-1
 652 1630 l 1,5,6
 575 1654 575 1654 533 1654 c 128,-1,7
 491 1654 491 1654 472 1623 c 128,-1,8
 453 1592 453 1592 453 1521 c 2,9,-1
 453 221 l 2,10,11
 453 -12 453 -12 252 -12 c 0,12,13
 194 -12 194 -12 115 8 c 1,14,-1
 115 130 l 1,15,16
 155 128 155 128 170 128 c 0,17,18
 264 128 264 128 290 161 c 128,-1,19
 316 194 316 194 316 305 c 2,20,-1
 316 1539 l 2,0,1
EndSplineSet
EndChar

StartChar: approxequal
Encoding: 8776 8776 417
Width: 1117
GlyphClass: 2
Flags: W
LayerCount: 2
UndoRedoHistory
Layer: 1
Undoes
EndUndoes
Redoes
EndRedoes
EndUndoRedoHistory
Fore
SplineSet
989 718 m 1,0,1
 927 473 927 473 783 473 c 1,2,3
 783 468 783 468 758 468 c 128,-1,4
 733 468 733 468 570 510.5 c 128,-1,5
 407 553 407 553 353.5 553 c 128,-1,6
 300 553 300 553 260 460 c 1,7,-1
 132 535 l 1,8,9
 211 721 211 721 346 721 c 0,10,11
 403 721 403 721 561 681.5 c 128,-1,12
 719 642 719 642 746 642 c 1,13,14
 813 649 813 649 846 760 c 1,15,-1
 989 718 l 1,0,1
989 1120 m 1,16,17
 927 875 927 875 783 875 c 0,18,19
 715 875 715 875 561 915 c 128,-1,20
 407 955 407 955 353.5 955 c 128,-1,21
 300 955 300 955 260 862 c 1,22,-1
 132 937 l 1,23,24
 210 1123 210 1123 346 1123 c 0,25,26
 403 1123 403 1123 561 1083.5 c 128,-1,27
 719 1044 719 1044 746 1044 c 1,28,29
 813 1053 813 1053 846 1162 c 1,30,-1
 989 1120 l 1,16,17
EndSplineSet
EndChar

StartChar: lessequal
Encoding: 8804 8804 419
Width: 781
GlyphClass: 2
Flags: W
LayerCount: 2
UndoRedoHistory
Layer: 1
Undoes
EndUndoes
Redoes
EndRedoes
EndUndoRedoHistory
Fore
SplineSet
93 111 m 1,0,-1
 642 111 l 1,1,-1
 642 0 l 1,2,-1
 93 0 l 1,3,-1
 93 111 l 1,0,-1
59 813 m 1,4,-1
 638 1209 l 1,5,-1
 638 1042 l 1,6,-1
 171 749 l 1,7,-1
 638 439 l 1,8,-1
 638 279 l 1,9,-1
 59 679 l 1,10,-1
 59 813 l 1,4,-1
EndSplineSet
EndChar

StartChar: greaterequal
Encoding: 8805 8805 420
Width: 781
GlyphClass: 2
Flags: W
LayerCount: 2
UndoRedoHistory
Layer: 1
Undoes
EndUndoes
Redoes
EndRedoes
EndUndoRedoHistory
Fore
SplineSet
92 111 m 1,0,-1
 641 111 l 1,1,-1
 641 0 l 1,2,-1
 92 0 l 1,3,-1
 92 111 l 1,0,-1
100 1042 m 1,4,-1
 100 1209 l 1,5,-1
 679 813 l 1,6,-1
 679 679 l 1,7,-1
 100 279 l 1,8,-1
 100 439 l 1,9,-1
 567 749 l 1,10,-1
 100 1042 l 1,4,-1
EndSplineSet
EndChar

StartChar: lozenge
Encoding: 9674 9674 421
Width: 921
GlyphClass: 2
Flags: W
LayerCount: 2
UndoRedoHistory
Layer: 1
Undoes
EndUndoes
Redoes
EndRedoes
EndUndoRedoHistory
Fore
SplineSet
659 883 m 1,0,-1
 465 1623 l 1,1,-1
 453 1623 l 1,2,-1
 259 883 l 1,3,-1
 453 129 l 1,4,-1
 465 129 l 1,5,-1
 659 883 l 1,0,-1
367 1762 m 1,6,-1
 558 1762 l 1,7,-1
 807 883 l 1,8,-1
 558 0 l 1,9,-1
 367 0 l 1,10,-1
 114 883 l 1,11,-1
 367 1762 l 1,6,-1
EndSplineSet
EndChar

StartChar: uniFB01
Encoding: 64257 64257 423
Width: 1084
GlyphClass: 2
Flags: W
LayerCount: 2
UndoRedoHistory
Layer: 1
Undoes
EndUndoes
Redoes
EndRedoes
EndUndoRedoHistory
Fore
SplineSet
922 0 m 1,0,-1
 772 0 l 1,1,-1
 772 1388 l 1,2,-1
 374 1388 l 1,3,-1
 374 0 l 1,4,-1
 224 0 l 1,5,-1
 224 1388 l 1,6,-1
 84 1388 l 1,7,-1
 84 1501 l 1,8,-1
 224 1501 l 1,9,-1
 224 1518 l 2,10,11
 224 1656 224 1656 273 1725.5 c 128,-1,12
 322 1795 322 1795 438 1795 c 0,13,14
 519 1795 519 1795 573 1777 c 1,15,-1
 573 1656 l 1,16,17
 528 1663 528 1663 472 1663 c 128,-1,18
 416 1663 416 1663 395 1633.5 c 128,-1,19
 374 1604 374 1604 374 1540 c 2,20,-1
 374 1500 l 1,21,-1
 922 1500 l 1,22,-1
 922 0 l 1,0,-1
922 1615 m 1,23,-1
 772 1615 l 1,24,-1
 772 1800 l 1,25,-1
 922 1800 l 1,26,-1
 922 1615 l 1,23,-1
EndSplineSet
EndChar

StartChar: uniFB02
Encoding: 64258 64258 424
Width: 1080
GlyphClass: 2
Flags: W
LayerCount: 2
UndoRedoHistory
Layer: 1
Undoes
EndUndoes
Redoes
EndRedoes
EndUndoRedoHistory
Fore
SplineSet
920 1744 m 1,0,-1
 920 0 l 1,1,-1
 770 0 l 1,2,-1
 770 1660 l 1,3,4
 638 1691 638 1691 568 1691 c 128,-1,5
 498 1691 498 1691 450 1676 c 128,-1,6
 402 1661 402 1661 388 1624 c 128,-1,7
 374 1587 374 1587 374 1541 c 2,8,-1
 374 1442 l 1,9,-1
 573 1442 l 1,10,-1
 573 1329 l 1,11,-1
 374 1329 l 1,12,-1
 374 0 l 1,13,-1
 224 0 l 1,14,-1
 224 1329 l 1,15,-1
 84 1329 l 1,16,-1
 84 1442 l 1,17,-1
 224 1442 l 1,18,-1
 224 1512 l 2,19,20
 224 1696 224 1696 295.5 1753.5 c 128,-1,21
 367 1811 367 1811 511.5 1811 c 128,-1,22
 656 1811 656 1811 920 1744 c 1,0,-1
EndSplineSet
EndChar

StartChar: ff
Encoding: 64256 64256 425
Width: 1220
GlyphClass: 2
Flags: W
LayerCount: 2
UndoRedoHistory
Layer: 1
Undoes
EndUndoes
Redoes
EndRedoes
EndUndoRedoHistory
Fore
SplineSet
834 1442 m 1,0,-1
 834 1512 l 2,1,2
 834 1650 834 1650 883 1719.5 c 128,-1,3
 932 1789 932 1789 1048 1789 c 0,4,5
 1129 1789 1129 1789 1183 1771 c 1,6,-1
 1183 1650 l 1,7,8
 1138 1657 1138 1657 1082 1657 c 128,-1,9
 1026 1657 1026 1657 1005 1627.5 c 128,-1,10
 984 1598 984 1598 984 1534 c 2,11,-1
 984 1442 l 1,12,-1
 1183 1442 l 1,13,-1
 1183 1329 l 1,14,-1
 984 1329 l 1,15,-1
 984 0 l 1,16,-1
 834 0 l 1,17,-1
 834 1329 l 1,18,-1
 374 1329 l 1,19,-1
 374 0 l 1,20,-1
 224 0 l 1,21,-1
 224 1329 l 1,22,-1
 84 1329 l 1,23,-1
 84 1442 l 1,24,-1
 224 1442 l 1,25,-1
 224 1512 l 2,26,27
 224 1650 224 1650 273 1719.5 c 128,-1,28
 322 1789 322 1789 438 1789 c 0,29,30
 519 1789 519 1789 573 1771 c 1,31,-1
 573 1650 l 1,32,33
 528 1657 528 1657 472 1657 c 128,-1,34
 416 1657 416 1657 395 1627.5 c 128,-1,35
 374 1598 374 1598 374 1534 c 2,36,-1
 374 1442 l 1,37,-1
 834 1442 l 1,0,-1
EndSplineSet
EndChar

StartChar: ffi
Encoding: 64259 64259 426
Width: 1694
GlyphClass: 2
Flags: W
LayerCount: 2
UndoRedoHistory
Layer: 1
Undoes
EndUndoes
Redoes
EndRedoes
EndUndoRedoHistory
Fore
SplineSet
984 1500 m 1,0,-1
 1532 1500 l 1,1,-1
 1532 0 l 1,2,-1
 1382 0 l 1,3,-1
 1382 1387 l 1,4,-1
 984 1387 l 1,5,-1
 984 0 l 1,6,-1
 834 0 l 1,7,-1
 834 1387 l 1,8,-1
 374 1387 l 1,9,-1
 374 0 l 1,10,-1
 224 0 l 1,11,-1
 224 1387 l 1,12,-1
 84 1387 l 1,13,-1
 84 1500 l 1,14,-1
 224 1500 l 1,15,-1
 224 1519 l 2,16,17
 224 1657 224 1657 273 1726.5 c 128,-1,18
 322 1796 322 1796 438 1796 c 0,19,20
 519 1796 519 1796 573 1778 c 1,21,-1
 573 1657 l 1,22,23
 528 1664 528 1664 472 1664 c 128,-1,24
 416 1664 416 1664 395 1634.5 c 128,-1,25
 374 1605 374 1605 374 1541 c 2,26,-1
 374 1500 l 1,27,-1
 834 1500 l 1,28,-1
 834 1519 l 2,29,30
 834 1657 834 1657 883 1726.5 c 128,-1,31
 932 1796 932 1796 1048 1796 c 0,32,33
 1129 1796 1129 1796 1183 1778 c 1,34,-1
 1183 1657 l 1,35,36
 1138 1664 1138 1664 1082 1664 c 128,-1,37
 1026 1664 1026 1664 1005 1634.5 c 128,-1,38
 984 1605 984 1605 984 1541 c 2,39,-1
 984 1500 l 1,0,-1
1382 1800 m 1,40,-1
 1532 1800 l 1,41,-1
 1532 1615 l 1,42,-1
 1382 1615 l 1,43,-1
 1382 1800 l 1,40,-1
EndSplineSet
EndChar

StartChar: ffl
Encoding: 64260 64260 427
Width: 1635
GlyphClass: 2
Flags: W
LayerCount: 2
UndoRedoHistory
Layer: 1
Undoes
EndUndoes
Redoes
EndRedoes
EndUndoRedoHistory
Fore
SplineSet
779 1442 m 1,0,-1
 779 1512 l 2,1,2
 779 1696 779 1696 850.5 1753.5 c 128,-1,3
 922 1811 922 1811 1066.5 1811 c 128,-1,4
 1211 1811 1211 1811 1475 1744 c 1,5,-1
 1475 0 l 1,6,-1
 1325 0 l 1,7,-1
 1325 1660 l 1,8,9
 1193 1691 1193 1691 1123 1691 c 128,-1,10
 1053 1691 1053 1691 1005 1676 c 128,-1,11
 957 1661 957 1661 943 1624 c 128,-1,12
 929 1587 929 1587 929 1541 c 2,13,-1
 929 1442 l 1,14,-1
 1128 1442 l 1,15,-1
 1128 1329 l 1,16,-1
 929 1329 l 1,17,-1
 929 0 l 1,18,-1
 779 0 l 1,19,-1
 779 1329 l 1,20,-1
 374 1329 l 1,21,-1
 374 0 l 1,22,-1
 224 0 l 1,23,-1
 224 1329 l 1,24,-1
 84 1329 l 1,25,-1
 84 1442 l 1,26,-1
 224 1442 l 1,27,-1
 224 1512 l 2,28,29
 224 1650 224 1650 273 1719.5 c 128,-1,30
 322 1789 322 1789 438 1789 c 0,31,32
 519 1789 519 1789 573 1771 c 1,33,-1
 573 1650 l 1,34,35
 528 1657 528 1657 472 1657 c 128,-1,36
 416 1657 416 1657 395 1627.5 c 128,-1,37
 374 1598 374 1598 374 1534 c 2,38,-1
 374 1442 l 1,39,-1
 779 1442 l 1,0,-1
EndSplineSet
EndChar
